<svg width="1459" height="1080" viewBox="0 0 1459 1080" fill="none" xmlns="http://www.w3.org/2000/svg">
<path d="M784.482 229.719C784.482 233.131 781.717 235.895 778.306 235.895C774.894 235.895 772.129 233.131 772.129 229.719C772.129 226.308 774.894 223.543 778.306 223.543C781.717 223.543 784.482 226.308 784.482 229.719Z" fill="#0764FF"/>
<path d="M678.834 191.176C678.834 194.588 676.068 197.352 672.658 197.352C669.247 197.352 666.482 194.588 666.482 191.176C666.482 187.765 669.247 185 672.658 185C676.068 185 678.834 187.765 678.834 191.176ZM680.687 234.039C678.981 234.039 677.599 232.657 677.599 230.951V200.601L664.011 205.547V206.474H664.629C666.333 206.474 667.717 207.857 667.717 209.562V230.951C667.717 232.657 666.333 234.039 664.629 234.039H664.011V234.966H681.305V234.039H680.687ZM706.044 201.177L696.78 206.526V200.601L683.192 205.547V206.474H683.81C685.516 206.474 686.898 207.857 686.898 209.562V230.951C686.898 232.657 685.516 234.039 683.81 234.039H683.192V234.966H700.486V234.039H699.868C698.162 234.039 696.78 232.657 696.78 230.951V207.453H699.873C699.926 210.817 702.667 213.53 706.044 213.53C709.456 213.53 712.22 210.764 712.22 207.354C712.22 203.942 709.456 201.177 706.044 201.177ZM769.659 234.043H769.041C767.336 234.043 765.953 232.66 765.953 230.955V210.442C765.953 205.325 761.805 201.177 756.689 201.177H756.071L746.115 206.925C744.73 203.554 741.414 201.177 737.543 201.177H736.925L727.661 206.526V200.601L714.073 205.547V206.474H714.691C716.397 206.474 717.779 207.857 717.779 209.562V230.951C717.779 232.656 716.397 234.039 714.691 234.039H714.073V234.966H731.367V234.039H730.749C729.043 234.039 727.661 232.656 727.661 230.951V207.453H732.293C734.852 207.453 736.925 209.526 736.925 212.085V230.955C736.925 232.66 735.543 234.043 733.837 234.043H733.219V234.969H750.513V234.043H749.895C748.189 234.043 746.807 232.66 746.807 230.955V210.442C746.807 209.396 746.631 208.391 746.311 207.453H751.439C753.998 207.453 756.071 209.526 756.071 212.085V230.955C756.071 232.66 754.689 234.043 752.983 234.043H752.366V234.969H769.659V234.043ZM662.242 188.059H628V188.986H628.618C631.176 188.986 633.25 191.059 633.25 193.618V229.378C633.25 231.935 631.176 234.01 628.618 234.01H628V234.937H648.381V234.01H647.764C645.205 234.01 643.132 231.935 643.132 229.378V214.022H655.484V208.599L646.836 211.746L643.132 213.094V190.53H651.433C657.403 190.53 662.242 195.368 662.242 201.338V201.956H663.477V188.059H662.242Z" fill="#010B1A"/>
</svg>
