<svg width="1459" height="1080" viewBox="0 0 1459 1080" fill="none" xmlns="http://www.w3.org/2000/svg">
<rect x="345.568" y="799.795" width="60.9937" height="60.9937" rx="4.15866" fill="#2FFBCF"/>
<path d="M351.167 810.916H351.257C351.636 810.916 351.962 810.87 352.233 810.779C352.508 810.684 352.734 810.548 352.911 810.371C353.088 810.195 353.219 809.978 353.304 809.722C353.39 809.463 353.432 809.17 353.432 808.841V807.533C353.432 807.284 353.407 807.064 353.356 806.875C353.309 806.685 353.24 806.529 353.148 806.406C353.059 806.279 352.955 806.185 352.835 806.121C352.718 806.058 352.589 806.027 352.447 806.027C352.295 806.027 352.161 806.065 352.044 806.14C351.927 806.213 351.828 806.312 351.745 806.439C351.666 806.565 351.605 806.71 351.561 806.875C351.52 807.036 351.499 807.205 351.499 807.382C351.499 807.559 351.52 807.728 351.561 807.889C351.602 808.047 351.663 808.187 351.745 808.31C351.828 808.43 351.93 808.527 352.053 808.599C352.177 808.669 352.322 808.704 352.489 808.704C352.65 808.704 352.794 808.674 352.921 808.614C353.05 808.55 353.159 808.468 353.247 808.367C353.339 808.266 353.409 808.154 353.456 808.031C353.506 807.908 353.532 807.783 353.532 807.657L353.982 807.903C353.982 808.124 353.934 808.342 353.84 808.557C353.745 808.772 353.612 808.967 353.442 809.144C353.274 809.318 353.08 809.457 352.859 809.561C352.638 809.665 352.401 809.718 352.148 809.718C351.826 809.718 351.54 809.659 351.291 809.542C351.041 809.422 350.829 809.258 350.656 809.049C350.485 808.838 350.356 808.591 350.267 808.31C350.179 808.029 350.135 807.724 350.135 807.396C350.135 807.061 350.188 806.747 350.296 806.453C350.406 806.159 350.563 805.9 350.765 805.676C350.97 805.452 351.215 805.276 351.499 805.15C351.787 805.021 352.106 804.956 352.456 804.956C352.807 804.956 353.126 805.024 353.413 805.16C353.701 805.295 353.947 805.488 354.152 805.738C354.358 805.984 354.516 806.279 354.626 806.624C354.74 806.968 354.797 807.35 354.797 807.77V808.244C354.797 808.693 354.748 809.11 354.65 809.495C354.555 809.88 354.411 810.229 354.219 810.542C354.029 810.852 353.792 811.117 353.508 811.338C353.227 811.559 352.9 811.728 352.527 811.845C352.155 811.962 351.738 812.02 351.276 812.02H351.167V810.916ZM360.416 807.898V809.092C360.416 809.61 360.361 810.057 360.25 810.433C360.14 810.806 359.98 811.112 359.772 811.352C359.566 811.589 359.322 811.764 359.037 811.878C358.753 811.992 358.437 812.049 358.09 812.049C357.812 812.049 357.553 812.014 357.313 811.944C357.073 811.872 356.856 811.76 356.664 811.608C356.474 811.456 356.31 811.265 356.171 811.035C356.035 810.801 355.931 810.523 355.858 810.201C355.785 809.879 355.749 809.509 355.749 809.092V807.898C355.749 807.38 355.804 806.936 355.915 806.567C356.029 806.194 356.188 805.889 356.393 805.652C356.602 805.415 356.848 805.242 357.133 805.131C357.417 805.017 357.733 804.961 358.08 804.961C358.358 804.961 358.616 804.997 358.853 805.07C359.093 805.139 359.309 805.248 359.502 805.396C359.694 805.545 359.859 805.736 359.994 805.97C360.13 806.2 360.234 806.477 360.307 806.799C360.38 807.118 360.416 807.484 360.416 807.898ZM359.047 809.272V807.713C359.047 807.464 359.033 807.246 359.004 807.06C358.979 806.873 358.939 806.715 358.886 806.586C358.832 806.453 358.766 806.346 358.687 806.264C358.608 806.181 358.518 806.121 358.417 806.083C358.316 806.046 358.203 806.027 358.08 806.027C357.925 806.027 357.788 806.057 357.668 806.117C357.551 806.177 357.452 806.273 357.37 806.406C357.287 806.535 357.224 806.709 357.18 806.927C357.139 807.142 357.118 807.404 357.118 807.713V809.272C357.118 809.522 357.131 809.741 357.156 809.931C357.185 810.12 357.226 810.283 357.28 810.419C357.336 810.551 357.403 810.66 357.479 810.746C357.557 810.828 357.648 810.888 357.749 810.926C357.853 810.964 357.967 810.983 358.09 810.983C358.241 810.983 358.376 810.953 358.492 810.893C358.612 810.829 358.714 810.732 358.796 810.599C358.881 810.463 358.944 810.286 358.985 810.068C359.026 809.85 359.047 809.585 359.047 809.272Z" fill="#5164DF"/>
<path d="M371.839 818.94V832.737H369.479V818.94H371.839ZM376.169 818.94V820.835H365.187V818.94H376.169ZM380.017 818.181V832.737H377.742V818.181H380.017ZM379.619 827.231L378.88 827.222C378.886 826.514 378.984 825.86 379.173 825.26C379.369 824.66 379.641 824.139 379.988 823.697C380.342 823.248 380.765 822.904 381.258 822.664C381.751 822.417 382.297 822.294 382.897 822.294C383.403 822.294 383.858 822.364 384.262 822.503C384.673 822.642 385.026 822.866 385.323 823.175C385.62 823.479 385.844 823.877 385.996 824.369C386.154 824.856 386.233 825.45 386.233 826.151V832.737H383.94V826.132C383.94 825.639 383.867 825.247 383.722 824.957C383.583 824.666 383.378 824.458 383.106 824.331C382.834 824.199 382.503 824.132 382.111 824.132C381.7 824.132 381.337 824.215 381.021 824.379C380.712 824.543 380.453 824.767 380.244 825.052C380.036 825.336 379.878 825.664 379.77 826.037C379.669 826.41 379.619 826.808 379.619 827.231Z" fill="#5164DF"/>
<path d="M364.484 838.803V844.223H363.776V838.803H364.484ZM366.226 838.803V839.391H362.038V838.803H366.226ZM367.615 838.505V844.223H366.926V838.505H367.615ZM367.451 842.057L367.164 842.045C367.167 841.77 367.208 841.516 367.287 841.282C367.366 841.046 367.478 840.842 367.622 840.668C367.766 840.494 367.937 840.36 368.136 840.266C368.337 840.169 368.559 840.121 368.802 840.121C369.001 840.121 369.179 840.148 369.338 840.203C369.497 840.255 369.632 840.339 369.744 840.456C369.858 840.572 369.945 840.724 370.005 840.91C370.064 841.094 370.094 841.318 370.094 841.584V844.223H369.402V841.576C369.402 841.365 369.37 841.197 369.308 841.07C369.246 840.941 369.156 840.848 369.037 840.791C368.918 840.731 368.771 840.701 368.597 840.701C368.426 840.701 368.27 840.737 368.128 840.809C367.989 840.881 367.869 840.981 367.767 841.107C367.668 841.234 367.59 841.379 367.533 841.543C367.478 841.704 367.451 841.875 367.451 842.057ZM370.943 842.254V842.168C370.943 841.878 370.985 841.609 371.069 841.36C371.154 841.11 371.275 840.893 371.434 840.709C371.593 840.523 371.785 840.379 372.011 840.277C372.237 840.173 372.49 840.121 372.771 840.121C373.054 840.121 373.308 840.173 373.534 840.277C373.762 840.379 373.956 840.523 374.115 840.709C374.276 840.893 374.399 841.11 374.483 841.36C374.567 841.609 374.61 841.878 374.61 842.168V842.254C374.61 842.544 374.567 842.814 374.483 843.062C374.399 843.31 374.276 843.527 374.115 843.713C373.956 843.897 373.763 844.041 373.537 844.145C373.314 844.247 373.061 844.298 372.778 844.298C372.495 844.298 372.241 844.247 372.015 844.145C371.789 844.041 371.595 843.897 371.434 843.713C371.275 843.527 371.154 843.31 371.069 843.062C370.985 842.814 370.943 842.544 370.943 842.254ZM371.631 842.168V842.254C371.631 842.455 371.655 842.645 371.702 842.823C371.749 843 371.82 843.156 371.914 843.293C372.011 843.429 372.132 843.537 372.275 843.616C372.419 843.693 372.587 843.732 372.778 843.732C372.967 843.732 373.132 843.693 373.273 843.616C373.417 843.537 373.536 843.429 373.631 843.293C373.725 843.156 373.796 843 373.843 842.823C373.892 842.645 373.917 842.455 373.917 842.254V842.168C373.917 841.97 373.892 841.782 373.843 841.606C373.796 841.427 373.724 841.27 373.627 841.133C373.533 840.994 373.413 840.885 373.269 840.806C373.128 840.726 372.962 840.687 372.771 840.687C372.582 840.687 372.416 840.726 372.272 840.806C372.13 840.885 372.011 840.994 371.914 841.133C371.82 841.27 371.749 841.427 371.702 841.606C371.655 841.782 371.631 841.97 371.631 842.168ZM376.162 840.828V844.223H375.473V840.195H376.143L376.162 840.828ZM377.42 840.173L377.417 840.813C377.36 840.801 377.305 840.793 377.253 840.791C377.203 840.786 377.146 840.783 377.082 840.783C376.923 840.783 376.782 840.808 376.661 840.858C376.539 840.907 376.436 840.977 376.352 841.066C376.268 841.156 376.2 841.262 376.151 841.386C376.104 841.508 376.073 841.642 376.058 841.789L375.864 841.9C375.864 841.657 375.888 841.429 375.935 841.215C375.985 841.002 376.06 840.813 376.162 840.649C376.264 840.483 376.393 840.354 376.549 840.262C376.708 840.168 376.897 840.121 377.115 840.121C377.165 840.121 377.222 840.127 377.286 840.139C377.351 840.149 377.396 840.16 377.42 840.173ZM378.805 840.195V844.223H378.113V840.195H378.805ZM378.061 839.127C378.061 839.015 378.094 838.921 378.161 838.844C378.231 838.767 378.332 838.728 378.466 838.728C378.598 838.728 378.698 838.767 378.768 838.844C378.84 838.921 378.876 839.015 378.876 839.127C378.876 839.233 378.84 839.325 378.768 839.402C378.698 839.477 378.598 839.514 378.466 839.514C378.332 839.514 378.231 839.477 378.161 839.402C378.094 839.325 378.061 839.233 378.061 839.127ZM382.375 843.293V840.195H383.068V844.223H382.409L382.375 843.293ZM382.506 842.444L382.792 842.436C382.792 842.704 382.764 842.952 382.707 843.181C382.652 843.407 382.563 843.603 382.439 843.769C382.315 843.935 382.152 844.066 381.951 844.16C381.75 844.252 381.505 844.298 381.218 844.298C381.021 844.298 380.842 844.269 380.678 844.212C380.516 844.155 380.377 844.067 380.261 843.948C380.144 843.829 380.054 843.673 379.989 843.482C379.927 843.291 379.896 843.062 379.896 842.794V840.195H380.585V842.801C380.585 842.982 380.605 843.132 380.644 843.252C380.686 843.368 380.742 843.461 380.812 843.531C380.884 843.598 380.963 843.645 381.05 843.672C381.139 843.7 381.231 843.713 381.325 843.713C381.618 843.713 381.85 843.657 382.022 843.546C382.193 843.431 382.316 843.279 382.39 843.088C382.467 842.894 382.506 842.679 382.506 842.444ZM384.803 840.996V844.223H384.11V840.195H384.765L384.803 840.996ZM384.661 842.057L384.341 842.045C384.343 841.77 384.379 841.516 384.449 841.282C384.518 841.046 384.621 840.842 384.758 840.668C384.894 840.494 385.064 840.36 385.268 840.266C385.471 840.169 385.707 840.121 385.975 840.121C386.164 840.121 386.338 840.148 386.496 840.203C386.655 840.255 386.793 840.338 386.91 840.452C387.026 840.566 387.117 840.713 387.181 840.891C387.246 841.07 387.278 841.286 387.278 841.539V844.223H386.589V841.573C386.589 841.362 386.553 841.193 386.482 841.066C386.412 840.94 386.313 840.848 386.184 840.791C386.055 840.731 385.903 840.701 385.73 840.701C385.526 840.701 385.356 840.737 385.22 840.809C385.083 840.881 384.974 840.981 384.892 841.107C384.81 841.234 384.75 841.379 384.713 841.543C384.678 841.704 384.661 841.875 384.661 842.057ZM387.271 841.677L386.809 841.818C386.812 841.597 386.848 841.385 386.917 841.182C386.989 840.978 387.092 840.797 387.226 840.638C387.363 840.479 387.53 840.354 387.729 840.262C387.927 840.168 388.154 840.121 388.41 840.121C388.626 840.121 388.817 840.149 388.983 840.206C389.152 840.263 389.293 840.352 389.408 840.471C389.524 840.587 389.612 840.737 389.672 840.921C389.731 841.105 389.761 841.323 389.761 841.576V844.223H389.069V841.569C389.069 841.343 389.033 841.168 388.961 841.044C388.891 840.917 388.792 840.829 388.663 840.78C388.536 840.728 388.385 840.701 388.209 840.701C388.057 840.701 387.923 840.728 387.807 840.78C387.69 840.832 387.592 840.904 387.513 840.996C387.433 841.085 387.372 841.188 387.33 841.305C387.291 841.421 387.271 841.545 387.271 841.677Z" fill="#5164DF"/>
<path d="M370.447 854.288V854.699H367.867V854.339L369.158 852.901C369.317 852.725 369.44 852.575 369.527 852.452C369.615 852.327 369.677 852.216 369.711 852.119C369.747 852.02 369.765 851.919 369.765 851.816C369.765 851.686 369.738 851.568 369.684 851.464C369.631 851.357 369.554 851.272 369.451 851.209C369.348 851.146 369.223 851.114 369.077 851.114C368.902 851.114 368.756 851.149 368.639 851.217C368.523 851.284 368.436 851.378 368.379 851.499C368.321 851.62 368.292 851.759 368.292 851.916H367.791C367.791 851.694 367.84 851.491 367.937 851.307C368.035 851.123 368.179 850.976 368.371 850.868C368.562 850.758 368.797 850.703 369.077 850.703C369.326 850.703 369.539 850.747 369.716 850.836C369.893 850.922 370.028 851.045 370.122 851.204C370.218 851.361 370.266 851.545 370.266 851.756C370.266 851.872 370.246 851.989 370.206 852.108C370.168 852.225 370.115 852.343 370.047 852.46C369.98 852.577 369.901 852.693 369.811 852.807C369.723 852.92 369.628 853.032 369.527 853.142L368.471 854.288H370.447ZM371.714 852.482H372.072C372.247 852.482 372.391 852.453 372.505 852.395C372.62 852.336 372.706 852.255 372.762 852.154C372.82 852.051 372.849 851.936 372.849 851.808C372.849 851.656 372.823 851.529 372.773 851.426C372.722 851.323 372.647 851.245 372.546 851.193C372.444 851.141 372.316 851.114 372.161 851.114C372.02 851.114 371.896 851.142 371.787 851.198C371.681 851.253 371.597 851.33 371.536 851.431C371.476 851.532 371.446 851.651 371.446 851.789H370.945C370.945 851.588 370.996 851.406 371.097 851.242C371.198 851.077 371.34 850.947 371.522 850.849C371.706 850.752 371.919 850.703 372.161 850.703C372.399 850.703 372.608 850.745 372.786 850.83C372.965 850.913 373.104 851.038 373.203 851.204C373.303 851.368 373.352 851.573 373.352 851.818C373.352 851.918 373.329 852.024 373.282 852.138C373.237 852.25 373.166 852.355 373.068 852.452C372.972 852.549 372.848 852.63 372.694 852.693C372.541 852.754 372.357 852.785 372.142 852.785H371.714V852.482ZM371.714 852.893V852.593H372.142C372.393 852.593 372.601 852.623 372.765 852.682C372.929 852.742 373.058 852.821 373.152 852.92C373.248 853.02 373.314 853.129 373.352 853.248C373.392 853.365 373.412 853.483 373.412 853.6C373.412 853.784 373.38 853.947 373.317 854.09C373.256 854.233 373.168 854.354 373.055 854.453C372.943 854.552 372.811 854.627 372.659 854.678C372.508 854.728 372.342 854.753 372.164 854.753C371.992 854.753 371.831 854.729 371.679 854.68C371.529 854.631 371.397 854.561 371.281 854.469C371.166 854.375 371.075 854.261 371.01 854.125C370.945 853.988 370.913 853.832 370.913 853.657H371.414C371.414 853.794 371.444 853.914 371.503 854.017C371.565 854.12 371.651 854.2 371.763 854.258C371.877 854.314 372.01 854.342 372.164 854.342C372.317 854.342 372.449 854.316 372.559 854.263C372.671 854.209 372.757 854.128 372.816 854.02C372.878 853.911 372.908 853.775 372.908 853.611C372.908 853.447 372.874 853.312 372.805 853.207C372.737 853.101 372.639 853.022 372.513 852.972C372.388 852.919 372.241 852.893 372.072 852.893H371.714ZM376.685 854.288V854.699H374.105V854.339L375.396 852.901C375.555 852.725 375.678 852.575 375.765 852.452C375.853 852.327 375.914 852.216 375.949 852.119C375.985 852.02 376.003 851.919 376.003 851.816C376.003 851.686 375.976 851.568 375.922 851.464C375.869 851.357 375.792 851.272 375.689 851.209C375.586 851.146 375.461 851.114 375.315 851.114C375.14 851.114 374.994 851.149 374.877 851.217C374.761 851.284 374.674 851.378 374.617 851.499C374.559 851.62 374.53 851.759 374.53 851.916H374.029C374.029 851.694 374.078 851.491 374.175 851.307C374.273 851.123 374.417 850.976 374.609 850.868C374.8 850.758 375.035 850.703 375.315 850.703C375.564 850.703 375.777 850.747 375.954 850.836C376.131 850.922 376.266 851.045 376.36 851.204C376.456 851.361 376.504 851.545 376.504 851.756C376.504 851.872 376.484 851.989 376.444 852.108C376.406 852.225 376.353 852.343 376.285 852.46C376.218 852.577 376.139 852.693 376.049 852.807C375.961 852.92 375.866 853.032 375.765 853.142L374.709 854.288H376.685ZM377.284 854.434C377.284 854.349 377.31 854.278 377.362 854.22C377.416 854.16 377.494 854.131 377.595 854.131C377.696 854.131 377.773 854.16 377.825 854.22C377.879 854.278 377.906 854.349 377.906 854.434C377.906 854.517 377.879 854.587 377.825 854.645C377.773 854.703 377.696 854.732 377.595 854.732C377.494 854.732 377.416 854.703 377.362 854.645C377.31 854.587 377.284 854.517 377.284 854.434ZM381.158 852.414V853.015C381.158 853.338 381.129 853.611 381.071 853.833C381.014 854.055 380.931 854.233 380.822 854.369C380.714 854.504 380.583 854.603 380.43 854.664C380.278 854.724 380.107 854.753 379.915 854.753C379.764 854.753 379.624 854.734 379.496 854.696C379.367 854.659 379.252 854.598 379.149 854.515C379.048 854.43 378.961 854.32 378.889 854.185C378.817 854.049 378.762 853.885 378.724 853.692C378.686 853.499 378.667 853.273 378.667 853.015V852.414C378.667 852.091 378.696 851.82 378.754 851.602C378.813 851.383 378.897 851.208 379.006 851.077C379.114 850.943 379.244 850.847 379.395 850.79C379.549 850.732 379.72 850.703 379.91 850.703C380.063 850.703 380.204 850.722 380.332 850.76C380.462 850.796 380.578 850.855 380.679 850.936C380.78 851.015 380.866 851.122 380.936 851.255C381.008 851.387 381.063 851.549 381.101 851.74C381.139 851.931 381.158 852.156 381.158 852.414ZM380.654 853.096V852.33C380.654 852.153 380.644 851.998 380.622 851.864C380.602 851.729 380.572 851.614 380.533 851.518C380.493 851.422 380.442 851.345 380.381 851.285C380.321 851.226 380.252 851.182 380.172 851.155C380.095 851.126 380.007 851.112 379.91 851.112C379.791 851.112 379.685 851.134 379.593 851.179C379.501 851.223 379.423 851.292 379.36 851.388C379.299 851.484 379.252 851.609 379.219 851.764C379.187 851.92 379.171 852.108 379.171 852.33V853.096C379.171 853.273 379.181 853.429 379.2 853.565C379.222 853.7 379.254 853.817 379.295 853.917C379.337 854.014 379.387 854.095 379.447 854.158C379.506 854.221 379.575 854.268 379.653 854.298C379.732 854.327 379.82 854.342 379.915 854.342C380.038 854.342 380.145 854.318 380.237 854.271C380.329 854.224 380.406 854.151 380.468 854.052C380.531 853.951 380.578 853.822 380.608 853.665C380.639 853.506 380.654 853.317 380.654 853.096ZM384.466 853.373V853.784H381.618V853.489L383.383 850.757H383.792L383.354 851.548L382.187 853.373H384.466ZM383.917 850.757V854.699H383.416V850.757H383.917Z" fill="#5164DF"/>
<rect x="187.538" y="644.539" width="60.9937" height="60.9937" rx="4.15866" fill="#2FFBCF"/>
<path d="M196.819 654.807C196.819 655.24 196.718 655.604 196.515 655.901C196.313 656.195 196.035 656.418 195.681 656.569C195.331 656.718 194.933 656.792 194.487 656.792C194.042 656.792 193.643 656.718 193.289 656.569C192.935 656.418 192.655 656.195 192.45 655.901C192.245 655.604 192.142 655.24 192.142 654.807C192.142 654.516 192.201 654.254 192.317 654.02C192.434 653.783 192.597 653.581 192.805 653.414C193.017 653.243 193.265 653.114 193.549 653.025C193.834 652.934 194.143 652.888 194.478 652.888C194.927 652.888 195.328 652.967 195.681 653.125C196.035 653.283 196.313 653.505 196.515 653.793C196.718 654.08 196.819 654.418 196.819 654.807ZM195.445 654.717C195.445 654.505 195.404 654.323 195.321 654.172C195.242 654.017 195.13 653.899 194.985 653.817C194.84 653.734 194.671 653.693 194.478 653.693C194.285 653.693 194.116 653.734 193.971 653.817C193.826 653.899 193.712 654.017 193.63 654.172C193.551 654.323 193.511 654.505 193.511 654.717C193.511 654.925 193.551 655.105 193.63 655.257C193.712 655.409 193.826 655.525 193.971 655.608C194.12 655.686 194.292 655.726 194.487 655.726C194.683 655.726 194.852 655.686 194.994 655.608C195.14 655.525 195.25 655.409 195.326 655.257C195.405 655.105 195.445 654.925 195.445 654.717ZM196.672 651.628C196.672 651.978 196.579 652.289 196.392 652.561C196.206 652.829 195.947 653.039 195.615 653.191C195.287 653.343 194.911 653.419 194.487 653.419C194.061 653.419 193.682 653.343 193.35 653.191C193.019 653.039 192.76 652.829 192.573 652.561C192.387 652.289 192.294 651.978 192.294 651.628C192.294 651.211 192.387 650.86 192.573 650.576C192.763 650.288 193.022 650.07 193.35 649.922C193.682 649.773 194.058 649.699 194.478 649.699C194.904 649.699 195.282 649.773 195.61 649.922C195.942 650.07 196.201 650.288 196.387 650.576C196.577 650.86 196.672 651.211 196.672 651.628ZM195.307 651.689C195.307 651.503 195.274 651.342 195.208 651.206C195.141 651.067 195.047 650.959 194.923 650.884C194.803 650.808 194.655 650.77 194.478 650.77C194.307 650.77 194.161 650.806 194.037 650.879C193.917 650.952 193.824 651.057 193.758 651.196C193.695 651.332 193.663 651.496 193.663 651.689C193.663 651.876 193.695 652.04 193.758 652.182C193.824 652.321 193.919 652.43 194.042 652.509C194.165 652.588 194.314 652.627 194.487 652.627C194.661 652.627 194.808 652.588 194.928 652.509C195.051 652.43 195.145 652.321 195.208 652.182C195.274 652.04 195.307 651.876 195.307 651.689ZM202.391 654.807C202.391 655.24 202.289 655.604 202.087 655.901C201.885 656.195 201.607 656.418 201.253 656.569C200.903 656.718 200.505 656.792 200.059 656.792C199.614 656.792 199.214 656.718 198.861 656.569C198.507 656.418 198.227 656.195 198.022 655.901C197.817 655.604 197.714 655.24 197.714 654.807C197.714 654.516 197.773 654.254 197.889 654.02C198.006 653.783 198.169 653.581 198.377 653.414C198.589 653.243 198.837 653.114 199.121 653.025C199.406 652.934 199.715 652.888 200.05 652.888C200.499 652.888 200.9 652.967 201.253 653.125C201.607 653.283 201.885 653.505 202.087 653.793C202.289 654.08 202.391 654.418 202.391 654.807ZM201.017 654.717C201.017 654.505 200.975 654.323 200.893 654.172C200.814 654.017 200.702 653.899 200.557 653.817C200.412 653.734 200.243 653.693 200.05 653.693C199.857 653.693 199.688 653.734 199.543 653.817C199.398 653.899 199.284 654.017 199.202 654.172C199.123 654.323 199.083 654.505 199.083 654.717C199.083 654.925 199.123 655.105 199.202 655.257C199.284 655.409 199.398 655.525 199.543 655.608C199.691 655.686 199.864 655.726 200.059 655.726C200.255 655.726 200.424 655.686 200.566 655.608C200.712 655.525 200.822 655.409 200.898 655.257C200.977 655.105 201.017 654.925 201.017 654.717ZM202.244 651.628C202.244 651.978 202.151 652.289 201.964 652.561C201.778 652.829 201.519 653.039 201.187 653.191C200.859 653.343 200.483 653.419 200.059 653.419C199.633 653.419 199.254 653.343 198.922 653.191C198.591 653.039 198.332 652.829 198.145 652.561C197.959 652.289 197.866 651.978 197.866 651.628C197.866 651.211 197.959 650.86 198.145 650.576C198.335 650.288 198.594 650.07 198.922 649.922C199.254 649.773 199.63 649.699 200.05 649.699C200.476 649.699 200.854 649.773 201.182 649.922C201.514 650.07 201.773 650.288 201.959 650.576C202.149 650.86 202.244 651.211 202.244 651.628ZM200.879 651.689C200.879 651.503 200.846 651.342 200.78 651.206C200.713 651.067 200.619 650.959 200.495 650.884C200.375 650.808 200.227 650.77 200.05 650.77C199.879 650.77 199.733 650.806 199.609 650.879C199.489 650.952 199.396 651.057 199.33 651.196C199.267 651.332 199.235 651.496 199.235 651.689C199.235 651.876 199.267 652.04 199.33 652.182C199.396 652.321 199.491 652.43 199.614 652.509C199.737 652.588 199.886 652.627 200.059 652.627C200.233 652.627 200.38 652.588 200.5 652.509C200.623 652.43 200.716 652.321 200.78 652.182C200.846 652.04 200.879 651.876 200.879 651.689Z" fill="#5164DF"/>
<path d="M208.094 663.683H212.975C214.023 663.683 214.917 663.841 215.656 664.157C216.395 664.473 216.961 664.94 217.353 665.559C217.751 666.172 217.95 666.93 217.95 667.833C217.95 668.522 217.823 669.129 217.571 669.653C217.318 670.177 216.961 670.619 216.5 670.98C216.039 671.333 215.489 671.608 214.851 671.804L214.131 672.155H209.743L209.724 670.269H213.013C213.581 670.269 214.055 670.168 214.434 669.966C214.813 669.763 215.097 669.489 215.287 669.141C215.483 668.787 215.581 668.389 215.581 667.947C215.581 667.467 215.486 667.05 215.296 666.696C215.113 666.336 214.829 666.061 214.443 665.872C214.058 665.676 213.568 665.578 212.975 665.578H210.473V677.48H208.094V663.683ZM215.969 677.48L212.728 671.283L215.22 671.273L218.509 677.357V677.48H215.969ZM225.872 675.424V670.534C225.872 670.168 225.805 669.852 225.673 669.587C225.54 669.321 225.338 669.116 225.066 668.971C224.801 668.825 224.466 668.753 224.062 668.753C223.689 668.753 223.367 668.816 223.095 668.942C222.823 669.069 222.612 669.239 222.46 669.454C222.309 669.669 222.233 669.912 222.233 670.184H219.959C219.959 669.779 220.056 669.388 220.252 669.008C220.448 668.629 220.732 668.291 221.105 667.995C221.478 667.698 221.923 667.464 222.441 667.293C222.959 667.123 223.54 667.037 224.185 667.037C224.956 667.037 225.638 667.167 226.232 667.426C226.832 667.685 227.302 668.077 227.644 668.601C227.991 669.119 228.165 669.77 228.165 670.553V675.111C228.165 675.579 228.196 675.999 228.26 676.371C228.329 676.738 228.427 677.057 228.553 677.329V677.48H226.213C226.105 677.234 226.02 676.921 225.957 676.542C225.9 676.157 225.872 675.784 225.872 675.424ZM226.203 671.245L226.222 672.657H224.583C224.16 672.657 223.787 672.698 223.465 672.78C223.142 672.856 222.874 672.97 222.659 673.121C222.444 673.273 222.283 673.456 222.176 673.671C222.069 673.886 222.015 674.129 222.015 674.4C222.015 674.672 222.078 674.922 222.204 675.149C222.331 675.37 222.514 675.544 222.754 675.67C223 675.797 223.297 675.86 223.645 675.86C224.112 675.86 224.52 675.765 224.867 675.575C225.221 675.38 225.499 675.143 225.701 674.865C225.903 674.58 226.011 674.312 226.023 674.059L226.762 675.073C226.687 675.332 226.557 675.61 226.374 675.907C226.191 676.204 225.951 676.488 225.654 676.76C225.363 677.025 225.012 677.243 224.602 677.414C224.197 677.584 223.73 677.67 223.199 677.67C222.53 677.67 221.933 677.537 221.408 677.272C220.884 677 220.473 676.637 220.176 676.182C219.88 675.721 219.731 675.2 219.731 674.618C219.731 674.075 219.832 673.595 220.034 673.178C220.243 672.755 220.546 672.401 220.944 672.117C221.348 671.832 221.841 671.618 222.422 671.472C223.004 671.321 223.667 671.245 224.412 671.245H226.203Z" fill="#5164DF"/>
<path d="M205.716 683.546H207.511C207.918 683.546 208.261 683.608 208.542 683.732C208.825 683.856 209.04 684.04 209.186 684.283C209.335 684.524 209.409 684.821 209.409 685.173C209.409 685.421 209.358 685.648 209.257 685.854C209.157 686.058 209.013 686.232 208.825 686.375C208.639 686.517 208.415 686.622 208.155 686.692L207.954 686.77H206.267L206.26 686.186H207.533C207.791 686.186 208.006 686.141 208.177 686.052C208.348 685.96 208.477 685.837 208.564 685.683C208.651 685.529 208.695 685.359 208.695 685.173C208.695 684.965 208.654 684.782 208.572 684.626C208.49 684.469 208.361 684.349 208.185 684.265C208.011 684.178 207.786 684.134 207.511 684.134H206.435V688.967H205.716V683.546ZM208.884 688.967L207.567 686.51L208.315 686.506L209.651 688.922V688.967H208.884ZM212.685 688.278V686.204C212.685 686.045 212.653 685.908 212.589 685.791C212.527 685.672 212.432 685.58 212.306 685.516C212.179 685.451 212.023 685.419 211.837 685.419C211.663 685.419 211.51 685.449 211.379 685.508C211.25 685.568 211.148 685.646 211.073 685.743C211.001 685.839 210.965 685.944 210.965 686.055H210.277C210.277 685.911 210.314 685.769 210.388 685.627C210.463 685.486 210.57 685.358 210.709 685.244C210.85 685.127 211.019 685.035 211.215 684.968C211.413 684.899 211.634 684.864 211.878 684.864C212.17 684.864 212.428 684.914 212.652 685.013C212.878 685.112 213.054 685.262 213.18 685.463C213.31 685.662 213.374 685.911 213.374 686.212V688.088C213.374 688.222 213.385 688.365 213.408 688.516C213.432 688.667 213.468 688.798 213.516 688.907V688.967H212.797C212.762 688.887 212.735 688.782 212.715 688.65C212.695 688.516 212.685 688.392 212.685 688.278ZM212.804 686.524L212.812 687.008H212.116C211.92 687.008 211.745 687.024 211.591 687.057C211.437 687.087 211.308 687.132 211.204 687.195C211.099 687.257 211.02 687.335 210.965 687.429C210.911 687.521 210.884 687.629 210.884 687.753C210.884 687.879 210.912 687.995 210.969 688.099C211.026 688.203 211.112 688.287 211.226 688.349C211.343 688.408 211.485 688.438 211.654 688.438C211.865 688.438 212.051 688.393 212.213 688.304C212.374 688.215 212.502 688.105 212.596 687.976C212.693 687.847 212.745 687.722 212.752 687.6L213.046 687.932C213.029 688.036 212.982 688.151 212.905 688.278C212.828 688.404 212.725 688.526 212.596 688.643C212.469 688.757 212.318 688.852 212.142 688.929C211.968 689.004 211.772 689.041 211.554 689.041C211.281 689.041 211.041 688.988 210.835 688.881C210.632 688.774 210.473 688.631 210.359 688.453C210.247 688.272 210.191 688.069 210.191 687.846C210.191 687.63 210.233 687.44 210.318 687.276C210.402 687.11 210.524 686.972 210.683 686.863C210.841 686.751 211.032 686.667 211.256 686.61C211.479 686.553 211.729 686.524 212.004 686.524H212.804ZM216.996 688.185V683.248H217.689V688.967H217.056L216.996 688.185ZM214.286 686.997V686.919C214.286 686.611 214.323 686.332 214.398 686.081C214.475 685.828 214.583 685.611 214.722 685.43C214.863 685.249 215.031 685.11 215.224 685.013C215.42 684.914 215.639 684.864 215.879 684.864C216.133 684.864 216.354 684.909 216.542 684.998C216.733 685.085 216.895 685.213 217.026 685.382C217.16 685.548 217.266 685.749 217.343 685.985C217.419 686.22 217.473 686.487 217.503 686.785V687.127C217.475 687.423 217.422 687.688 217.343 687.924C217.266 688.16 217.16 688.361 217.026 688.527C216.895 688.694 216.733 688.821 216.542 688.911C216.351 688.998 216.128 689.041 215.872 689.041C215.636 689.041 215.42 688.99 215.224 688.888C215.031 688.787 214.863 688.644 214.722 688.46C214.583 688.277 214.475 688.061 214.398 687.812C214.323 687.562 214.286 687.29 214.286 686.997ZM214.979 686.919V686.997C214.979 687.198 214.998 687.387 215.038 687.563C215.08 687.739 215.145 687.894 215.232 688.028C215.319 688.162 215.429 688.268 215.563 688.345C215.697 688.419 215.857 688.457 216.043 688.457C216.272 688.457 216.459 688.408 216.605 688.311C216.754 688.215 216.873 688.087 216.963 687.928C217.052 687.769 217.122 687.597 217.171 687.41V686.513C217.142 686.377 217.098 686.245 217.041 686.119C216.986 685.99 216.914 685.875 216.825 685.776C216.738 685.674 216.63 685.594 216.501 685.534C216.375 685.475 216.224 685.445 216.051 685.445C215.862 685.445 215.7 685.485 215.563 685.564C215.429 685.641 215.319 685.748 215.232 685.884C215.145 686.018 215.08 686.174 215.038 686.353C214.998 686.529 214.979 686.718 214.979 686.919ZM219.509 684.939V688.967H218.817V684.939H219.509ZM218.765 683.87C218.765 683.758 218.798 683.664 218.865 683.587C218.935 683.51 219.036 683.472 219.17 683.472C219.302 683.472 219.402 683.51 219.472 683.587C219.544 683.664 219.58 683.758 219.58 683.87C219.58 683.977 219.544 684.069 219.472 684.146C219.402 684.22 219.302 684.257 219.17 684.257C219.036 684.257 218.935 684.22 218.865 684.146C218.798 684.069 218.765 683.977 218.765 683.87ZM223.079 688.036V684.939H223.772V688.967H223.113L223.079 688.036ZM223.21 687.187L223.496 687.18C223.496 687.448 223.468 687.696 223.411 687.924C223.356 688.15 223.267 688.346 223.143 688.512C223.018 688.679 222.856 688.809 222.655 688.903C222.454 688.995 222.209 689.041 221.922 689.041C221.725 689.041 221.546 689.012 221.382 688.955C221.22 688.898 221.081 688.81 220.965 688.691C220.848 688.572 220.758 688.417 220.693 688.226C220.631 688.035 220.6 687.805 220.6 687.537V684.939H221.289V687.544C221.289 687.726 221.309 687.876 221.348 687.995C221.39 688.112 221.446 688.205 221.516 688.274C221.588 688.341 221.667 688.388 221.754 688.416C221.843 688.443 221.935 688.457 222.029 688.457C222.322 688.457 222.554 688.401 222.726 688.289C222.897 688.175 223.02 688.022 223.094 687.831C223.171 687.638 223.21 687.423 223.21 687.187ZM225.507 685.739V688.967H224.814V684.939H225.469L225.507 685.739ZM225.365 686.8L225.045 686.789C225.047 686.513 225.083 686.259 225.153 686.026C225.222 685.79 225.325 685.585 225.462 685.411C225.598 685.238 225.768 685.104 225.972 685.009C226.175 684.912 226.411 684.864 226.679 684.864C226.868 684.864 227.042 684.891 227.2 684.946C227.359 684.998 227.497 685.081 227.614 685.195C227.73 685.31 227.821 685.456 227.885 685.635C227.95 685.813 227.982 686.029 227.982 686.282V688.967H227.293V686.316C227.293 686.105 227.257 685.936 227.186 685.81C227.116 685.683 227.017 685.591 226.888 685.534C226.759 685.475 226.607 685.445 226.434 685.445C226.23 685.445 226.06 685.481 225.923 685.553C225.787 685.625 225.678 685.724 225.596 685.851C225.514 685.977 225.454 686.122 225.417 686.286C225.382 686.447 225.365 686.619 225.365 686.8ZM227.975 686.42L227.513 686.562C227.516 686.341 227.552 686.129 227.621 685.925C227.693 685.722 227.796 685.54 227.93 685.382C228.067 685.223 228.234 685.097 228.433 685.006C228.631 684.911 228.858 684.864 229.114 684.864C229.33 684.864 229.521 684.893 229.687 684.95C229.856 685.007 229.997 685.095 230.112 685.214C230.228 685.331 230.316 685.481 230.376 685.664C230.435 685.848 230.465 686.067 230.465 686.32V688.967H229.773V686.312C229.773 686.086 229.737 685.911 229.665 685.787C229.595 685.661 229.496 685.573 229.367 685.523C229.24 685.471 229.089 685.445 228.913 685.445C228.761 685.445 228.627 685.471 228.511 685.523C228.394 685.575 228.296 685.647 228.217 685.739C228.137 685.828 228.076 685.931 228.034 686.048C227.995 686.165 227.975 686.289 227.975 686.42Z" fill="#5164DF"/>
<path d="M216.267 699.031V699.443H213.687V699.082L214.978 697.645C215.137 697.468 215.26 697.318 215.346 697.195C215.435 697.071 215.496 696.96 215.531 696.862C215.567 696.763 215.585 696.662 215.585 696.559C215.585 696.429 215.558 696.312 215.503 696.207C215.451 696.101 215.374 696.016 215.271 695.953C215.168 695.889 215.043 695.858 214.897 695.858C214.722 695.858 214.576 695.892 214.458 695.961C214.343 696.028 214.256 696.121 214.198 696.242C214.141 696.363 214.112 696.502 214.112 696.659H213.611C213.611 696.437 213.66 696.234 213.757 696.05C213.855 695.866 213.999 695.72 214.19 695.611C214.382 695.501 214.617 695.446 214.897 695.446C215.146 695.446 215.359 695.491 215.536 695.579C215.713 695.666 215.848 695.788 215.942 695.947C216.038 696.104 216.086 696.288 216.086 696.5C216.086 696.615 216.066 696.732 216.026 696.851C215.988 696.969 215.935 697.086 215.866 697.203C215.799 697.321 215.721 697.436 215.631 697.55C215.542 697.664 215.448 697.776 215.346 697.886L214.291 699.031H216.267ZM219.386 699.031V699.443H216.806V699.082L218.097 697.645C218.256 697.468 218.379 697.318 218.465 697.195C218.554 697.071 218.615 696.96 218.65 696.862C218.686 696.763 218.704 696.662 218.704 696.559C218.704 696.429 218.677 696.312 218.622 696.207C218.57 696.101 218.492 696.016 218.39 695.953C218.287 695.889 218.162 695.858 218.016 695.858C217.841 695.858 217.695 695.892 217.577 695.961C217.462 696.028 217.375 696.121 217.317 696.242C217.26 696.363 217.231 696.502 217.231 696.659H216.73C216.73 696.437 216.779 696.234 216.876 696.05C216.974 695.866 217.118 695.72 217.309 695.611C217.501 695.501 217.736 695.446 218.016 695.446C218.265 695.446 218.478 695.491 218.655 695.579C218.832 695.666 218.967 695.788 219.061 695.947C219.157 696.104 219.205 696.288 219.205 696.5C219.205 696.615 219.185 696.732 219.145 696.851C219.107 696.969 219.054 697.086 218.985 697.203C218.918 697.321 218.84 697.436 218.75 697.55C218.661 697.664 218.567 697.776 218.465 697.886L217.41 699.031H219.386ZM221.844 695.495H221.888V695.92H221.844C221.579 695.92 221.357 695.963 221.178 696.05C221 696.135 220.858 696.25 220.753 696.394C220.649 696.537 220.573 696.697 220.526 696.876C220.481 697.055 220.458 697.236 220.458 697.42V697.999C220.458 698.175 220.479 698.33 220.52 698.465C220.562 698.599 220.619 698.712 220.691 698.804C220.763 698.896 220.844 698.965 220.935 699.012C221.027 699.059 221.122 699.082 221.222 699.082C221.337 699.082 221.44 699.061 221.53 699.017C221.621 698.972 221.696 698.91 221.758 698.831C221.821 698.749 221.869 698.654 221.901 698.544C221.934 698.434 221.95 698.313 221.95 698.181C221.95 698.064 221.935 697.951 221.907 697.842C221.878 697.732 221.834 697.635 221.774 697.55C221.714 697.463 221.639 697.396 221.549 697.347C221.461 697.296 221.355 697.271 221.232 697.271C221.093 697.271 220.964 697.305 220.843 697.374C220.723 697.441 220.625 697.529 220.547 697.639C220.472 697.748 220.428 697.866 220.418 697.994L220.152 697.991C220.177 697.789 220.224 697.617 220.293 697.474C220.363 697.33 220.45 697.212 220.553 697.122C220.658 697.03 220.774 696.963 220.902 696.922C221.032 696.879 221.169 696.857 221.314 696.857C221.51 696.857 221.68 696.894 221.823 696.968C221.965 697.042 222.083 697.141 222.175 697.266C222.267 697.388 222.334 697.527 222.378 697.683C222.423 697.836 222.445 697.994 222.445 698.156C222.445 698.342 222.419 698.517 222.367 698.679C222.315 698.841 222.236 698.984 222.131 699.107C222.028 699.23 221.901 699.325 221.75 699.394C221.598 699.462 221.422 699.497 221.222 699.497C221.009 699.497 220.823 699.453 220.664 699.367C220.505 699.278 220.373 699.161 220.269 699.015C220.164 698.869 220.085 698.706 220.033 698.527C219.981 698.349 219.955 698.167 219.955 697.983V697.748C219.955 697.47 219.983 697.197 220.038 696.93C220.094 696.663 220.191 696.421 220.328 696.204C220.467 695.988 220.659 695.815 220.905 695.687C221.15 695.559 221.463 695.495 221.844 695.495Z" fill="#5164DF"/>
<rect x="276.257" y="644.539" width="60.9937" height="60.9937" rx="4.15866" fill="#2FFBCF"/>
<path d="M285.537 654.807C285.537 655.24 285.436 655.604 285.234 655.901C285.032 656.195 284.754 656.418 284.4 656.569C284.05 656.718 283.652 656.792 283.206 656.792C282.761 656.792 282.361 656.718 282.008 656.569C281.654 656.418 281.374 656.195 281.169 655.901C280.964 655.604 280.861 655.24 280.861 654.807C280.861 654.516 280.919 654.254 281.036 654.02C281.153 653.783 281.316 653.581 281.524 653.414C281.736 653.243 281.984 653.114 282.268 653.025C282.552 652.934 282.862 652.888 283.197 652.888C283.645 652.888 284.046 652.967 284.4 653.125C284.754 653.283 285.032 653.505 285.234 653.793C285.436 654.08 285.537 654.418 285.537 654.807ZM284.163 654.717C284.163 654.505 284.122 654.323 284.04 654.172C283.961 654.017 283.849 653.899 283.704 653.817C283.558 653.734 283.389 653.693 283.197 653.693C283.004 653.693 282.835 653.734 282.69 653.817C282.544 653.899 282.431 654.017 282.349 654.172C282.27 654.323 282.23 654.505 282.23 654.717C282.23 654.925 282.27 655.105 282.349 655.257C282.431 655.409 282.544 655.525 282.69 655.608C282.838 655.686 283.01 655.726 283.206 655.726C283.402 655.726 283.571 655.686 283.713 655.608C283.859 655.525 283.969 655.409 284.045 655.257C284.124 655.105 284.163 654.925 284.163 654.717ZM285.39 651.628C285.39 651.978 285.297 652.289 285.111 652.561C284.925 652.829 284.666 653.039 284.334 653.191C284.005 653.343 283.63 653.419 283.206 653.419C282.78 653.419 282.401 653.343 282.069 653.191C281.737 653.039 281.478 652.829 281.292 652.561C281.106 652.289 281.013 651.978 281.013 651.628C281.013 651.211 281.106 650.86 281.292 650.576C281.482 650.288 281.741 650.07 282.069 649.922C282.401 649.773 282.777 649.699 283.197 649.699C283.623 649.699 284.001 649.773 284.329 649.922C284.661 650.07 284.92 650.288 285.106 650.576C285.296 650.86 285.39 651.211 285.39 651.628ZM284.026 651.689C284.026 651.503 283.993 651.342 283.926 651.206C283.86 651.067 283.765 650.959 283.642 650.884C283.522 650.808 283.374 650.77 283.197 650.77C283.026 650.77 282.879 650.806 282.756 650.879C282.636 650.952 282.543 651.057 282.477 651.196C282.413 651.332 282.382 651.496 282.382 651.689C282.382 651.876 282.413 652.04 282.477 652.182C282.543 652.321 282.638 652.43 282.761 652.509C282.884 652.588 283.033 652.627 283.206 652.627C283.38 652.627 283.527 652.588 283.647 652.509C283.77 652.43 283.863 652.321 283.926 652.182C283.993 652.04 284.026 651.876 284.026 651.689ZM287.428 655.66H287.518C287.897 655.66 288.222 655.614 288.494 655.522C288.769 655.427 288.995 655.292 289.171 655.115C289.348 654.938 289.479 654.721 289.565 654.466C289.65 654.207 289.693 653.913 289.693 653.584V652.277C289.693 652.027 289.667 651.808 289.617 651.618C289.569 651.429 289.5 651.272 289.408 651.149C289.32 651.023 289.216 650.928 289.096 650.865C288.979 650.802 288.849 650.77 288.707 650.77C288.556 650.77 288.421 650.808 288.304 650.884C288.188 650.956 288.088 651.056 288.006 651.182C287.927 651.309 287.865 651.454 287.821 651.618C287.78 651.779 287.76 651.948 287.76 652.125C287.76 652.302 287.78 652.471 287.821 652.632C287.862 652.79 287.924 652.931 288.006 653.054C288.088 653.174 288.191 653.27 288.314 653.343C288.437 653.412 288.582 653.447 288.75 653.447C288.911 653.447 289.055 653.417 289.181 653.357C289.31 653.294 289.419 653.212 289.508 653.111C289.599 653.009 289.669 652.897 289.716 652.774C289.767 652.651 289.792 652.526 289.792 652.4L290.242 652.646C290.242 652.867 290.195 653.085 290.1 653.3C290.005 653.515 289.873 653.711 289.702 653.888C289.535 654.061 289.34 654.2 289.119 654.305C288.898 654.409 288.661 654.461 288.409 654.461C288.086 654.461 287.801 654.402 287.551 654.286C287.302 654.166 287.09 654.001 286.916 653.793C286.746 653.581 286.616 653.335 286.528 653.054C286.439 652.773 286.395 652.468 286.395 652.139C286.395 651.804 286.449 651.49 286.556 651.196C286.667 650.903 286.823 650.644 287.025 650.419C287.23 650.195 287.475 650.02 287.76 649.893C288.047 649.764 288.366 649.699 288.717 649.699C289.067 649.699 289.386 649.767 289.674 649.903C289.961 650.039 290.208 650.231 290.413 650.481C290.618 650.727 290.776 651.023 290.887 651.367C291 651.711 291.057 652.093 291.057 652.514V652.987C291.057 653.436 291.008 653.853 290.91 654.238C290.816 654.624 290.672 654.973 290.479 655.285C290.29 655.595 290.053 655.86 289.768 656.081C289.487 656.302 289.16 656.471 288.788 656.588C288.415 656.705 287.998 656.764 287.537 656.764H287.428V655.66Z" fill="#5164DF"/>
<path d="M302.025 665.521L297.903 677.48H295.411L300.604 663.683H302.196L302.025 665.521ZM305.474 677.48L301.343 665.521L301.163 663.683H302.764L307.976 677.48H305.474ZM305.275 672.363V674.249H297.77V672.363H305.275ZM313.482 675.85C313.854 675.85 314.189 675.778 314.486 675.632C314.789 675.481 315.033 675.272 315.216 675.007C315.405 674.742 315.51 674.435 315.528 674.088H317.68C317.667 674.751 317.471 675.354 317.092 675.898C316.713 676.441 316.211 676.874 315.585 677.196C314.96 677.512 314.268 677.67 313.51 677.67C312.727 677.67 312.044 677.537 311.463 677.272C310.882 677 310.399 676.627 310.013 676.153C309.628 675.68 309.337 675.133 309.142 674.514C308.952 673.895 308.857 673.232 308.857 672.524V672.192C308.857 671.485 308.952 670.822 309.142 670.202C309.337 669.577 309.628 669.027 310.013 668.554C310.399 668.08 310.882 667.71 311.463 667.445C312.044 667.173 312.724 667.037 313.501 667.037C314.322 667.037 315.042 667.202 315.661 667.53C316.28 667.852 316.767 668.304 317.12 668.885C317.481 669.46 317.667 670.13 317.68 670.894H315.528C315.51 670.515 315.415 670.174 315.244 669.871C315.08 669.561 314.846 669.315 314.543 669.132C314.246 668.948 313.889 668.857 313.472 668.857C313.011 668.857 312.629 668.952 312.326 669.141C312.022 669.324 311.785 669.577 311.615 669.899C311.444 670.215 311.321 670.572 311.245 670.97C311.176 671.362 311.141 671.769 311.141 672.192V672.524C311.141 672.947 311.176 673.358 311.245 673.756C311.315 674.154 311.435 674.511 311.605 674.827C311.782 675.136 312.022 675.386 312.326 675.575C312.629 675.759 313.014 675.85 313.482 675.85Z" fill="#5164DF"/>
<path d="M294.253 684.026L292.458 688.967H291.725L293.791 683.546H294.264L294.253 684.026ZM295.757 688.967L293.959 684.026L293.947 683.546H294.42L296.494 688.967H295.757ZM295.664 686.96V687.548H292.618V686.96H295.664ZM298.727 688.475C298.891 688.475 299.043 688.442 299.182 688.375C299.321 688.308 299.435 688.216 299.524 688.099C299.613 687.98 299.664 687.845 299.677 687.693H300.332C300.32 687.932 300.239 688.154 300.09 688.36C299.944 688.563 299.751 688.728 299.513 688.855C299.275 688.979 299.013 689.041 298.727 689.041C298.425 689.041 298.16 688.988 297.934 688.881C297.711 688.774 297.525 688.628 297.376 688.442C297.23 688.255 297.119 688.042 297.045 687.801C296.973 687.558 296.937 687.301 296.937 687.031V686.874C296.937 686.604 296.973 686.348 297.045 686.107C297.119 685.864 297.23 685.65 297.376 685.463C297.525 685.277 297.711 685.131 297.934 685.024C298.16 684.917 298.425 684.864 298.727 684.864C299.043 684.864 299.318 684.929 299.554 685.058C299.79 685.184 299.975 685.358 300.109 685.579C300.245 685.797 300.32 686.045 300.332 686.323H299.677C299.664 686.157 299.617 686.007 299.535 685.873C299.456 685.739 299.347 685.632 299.208 685.553C299.071 685.471 298.911 685.43 298.727 685.43C298.516 685.43 298.339 685.472 298.195 685.556C298.054 685.638 297.941 685.75 297.856 685.892C297.774 686.031 297.715 686.186 297.678 686.357C297.643 686.526 297.626 686.698 297.626 686.874V687.031C297.626 687.207 297.643 687.381 297.678 687.552C297.712 687.723 297.771 687.878 297.853 688.017C297.937 688.156 298.05 688.268 298.191 688.352C298.335 688.434 298.514 688.475 298.727 688.475ZM302.793 684.939V685.467H300.615V684.939H302.793ZM301.352 683.959H302.041V687.969C302.041 688.105 302.062 688.208 302.104 688.278C302.146 688.347 302.201 688.393 302.268 688.416C302.335 688.438 302.407 688.449 302.484 688.449C302.541 688.449 302.6 688.444 302.662 688.434C302.727 688.422 302.775 688.412 302.808 688.404L302.811 688.967C302.757 688.984 302.685 689 302.595 689.015C302.509 689.032 302.403 689.041 302.279 689.041C302.11 689.041 301.955 689.007 301.814 688.94C301.672 688.873 301.559 688.762 301.475 688.605C301.393 688.447 301.352 688.233 301.352 687.965V683.959ZM304.349 684.939V688.967H303.656V684.939H304.349ZM303.604 683.87C303.604 683.758 303.638 683.664 303.705 683.587C303.774 683.51 303.876 683.472 304.01 683.472C304.142 683.472 304.242 683.51 304.312 683.587C304.384 683.664 304.42 683.758 304.42 683.87C304.42 683.977 304.384 684.069 304.312 684.146C304.242 684.22 304.142 684.257 304.01 684.257C303.876 684.257 303.774 684.22 303.705 684.146C303.638 684.069 303.604 683.977 303.604 683.87ZM306.143 685.798V688.967H305.454V684.939H306.106L306.143 685.798ZM305.979 686.8L305.693 686.789C305.695 686.513 305.736 686.259 305.816 686.026C305.895 685.79 306.007 685.585 306.151 685.411C306.295 685.238 306.466 685.104 306.664 685.009C306.865 684.912 307.088 684.864 307.331 684.864C307.529 684.864 307.708 684.891 307.867 684.946C308.026 684.998 308.161 685.082 308.273 685.199C308.387 685.316 308.474 685.467 308.533 685.653C308.593 685.837 308.623 686.062 308.623 686.327V688.967H307.93V686.32C307.93 686.109 307.899 685.94 307.837 685.813C307.775 685.684 307.684 685.591 307.565 685.534C307.446 685.475 307.3 685.445 307.126 685.445C306.955 685.445 306.798 685.481 306.657 685.553C306.518 685.625 306.398 685.724 306.296 685.851C306.197 685.977 306.118 686.122 306.061 686.286C306.007 686.447 305.979 686.619 305.979 686.8ZM310.417 684.939V688.967H309.724V684.939H310.417ZM309.672 683.87C309.672 683.758 309.706 683.664 309.773 683.587C309.842 683.51 309.944 683.472 310.078 683.472C310.21 683.472 310.31 683.51 310.38 683.587C310.452 683.664 310.488 683.758 310.488 683.87C310.488 683.977 310.452 684.069 310.38 684.146C310.31 684.22 310.21 684.257 310.078 684.257C309.944 684.257 309.842 684.22 309.773 684.146C309.706 684.069 309.672 683.977 309.672 683.87ZM313.987 688.036V684.939H314.679V688.967H314.021L313.987 688.036ZM314.117 687.187L314.404 687.18C314.404 687.448 314.375 687.696 314.318 687.924C314.264 688.15 314.174 688.346 314.05 688.512C313.926 688.679 313.764 688.809 313.563 688.903C313.362 688.995 313.117 689.041 312.829 689.041C312.633 689.041 312.453 689.012 312.289 688.955C312.128 688.898 311.989 688.81 311.873 688.691C311.756 688.572 311.665 688.417 311.601 688.226C311.539 688.035 311.508 687.805 311.508 687.537V684.939H312.196V687.544C312.196 687.726 312.216 687.876 312.256 687.995C312.298 688.112 312.354 688.205 312.423 688.274C312.495 688.341 312.575 688.388 312.662 688.416C312.751 688.443 312.843 688.457 312.937 688.457C313.23 688.457 313.462 688.401 313.633 688.289C313.805 688.175 313.927 688.022 314.002 687.831C314.079 687.638 314.117 687.423 314.117 687.187ZM316.414 685.739V688.967H315.722V684.939H316.377L316.414 685.739ZM316.273 686.8L315.953 686.789C315.955 686.513 315.991 686.259 316.061 686.026C316.13 685.79 316.233 685.585 316.37 685.411C316.506 685.238 316.676 685.104 316.88 685.009C317.083 684.912 317.319 684.864 317.587 684.864C317.776 684.864 317.949 684.891 318.108 684.946C318.267 684.998 318.405 685.081 318.521 685.195C318.638 685.31 318.729 685.456 318.793 685.635C318.858 685.813 318.89 686.029 318.89 686.282V688.967H318.201V686.316C318.201 686.105 318.165 685.936 318.093 685.81C318.024 685.683 317.924 685.591 317.795 685.534C317.666 685.475 317.515 685.445 317.341 685.445C317.138 685.445 316.968 685.481 316.831 685.553C316.695 685.625 316.586 685.724 316.504 685.851C316.422 685.977 316.362 686.122 316.325 686.286C316.29 686.447 316.273 686.619 316.273 686.8ZM318.882 686.42L318.421 686.562C318.423 686.341 318.459 686.129 318.529 685.925C318.601 685.722 318.704 685.54 318.838 685.382C318.974 685.223 319.142 685.097 319.34 685.006C319.539 684.911 319.766 684.864 320.022 684.864C320.238 684.864 320.429 684.893 320.595 684.95C320.764 685.007 320.905 685.095 321.019 685.214C321.136 685.331 321.224 685.481 321.284 685.664C321.343 685.848 321.373 686.067 321.373 686.32V688.967H320.681V686.312C320.681 686.086 320.645 685.911 320.573 685.787C320.503 685.661 320.404 685.573 320.275 685.523C320.148 685.471 319.997 685.445 319.821 685.445C319.669 685.445 319.535 685.471 319.419 685.523C319.302 685.575 319.204 685.647 319.124 685.739C319.045 685.828 318.984 685.931 318.942 686.048C318.902 686.165 318.882 686.289 318.882 686.42Z" fill="#5164DF"/>
<path d="M304.986 699.031V699.443H302.406V699.082L303.697 697.645C303.856 697.468 303.979 697.318 304.065 697.195C304.154 697.071 304.215 696.96 304.249 696.862C304.285 696.763 304.303 696.662 304.303 696.559C304.303 696.429 304.276 696.312 304.222 696.207C304.17 696.101 304.092 696.016 303.989 695.953C303.886 695.889 303.762 695.858 303.616 695.858C303.441 695.858 303.294 695.892 303.177 695.961C303.062 696.028 302.975 696.121 302.917 696.242C302.859 696.363 302.831 696.502 302.831 696.659H302.33C302.33 696.437 302.378 696.234 302.476 696.05C302.573 695.866 302.718 695.72 302.909 695.611C303.1 695.501 303.336 695.446 303.616 695.446C303.865 695.446 304.078 695.491 304.255 695.579C304.432 695.666 304.567 695.788 304.661 695.947C304.756 696.104 304.804 696.288 304.804 696.5C304.804 696.615 304.784 696.732 304.745 696.851C304.707 696.969 304.654 697.086 304.585 697.203C304.518 697.321 304.44 697.436 304.349 697.55C304.261 697.664 304.166 697.776 304.065 697.886L303.009 699.031H304.986ZM308.105 699.031V699.443H305.525V699.082L306.816 697.645C306.975 697.468 307.098 697.318 307.184 697.195C307.273 697.071 307.334 696.96 307.368 696.862C307.404 696.763 307.422 696.662 307.422 696.559C307.422 696.429 307.395 696.312 307.341 696.207C307.289 696.101 307.211 696.016 307.108 695.953C307.005 695.889 306.881 695.858 306.735 695.858C306.56 695.858 306.413 695.892 306.296 695.961C306.181 696.028 306.094 696.121 306.036 696.242C305.978 696.363 305.95 696.502 305.95 696.659H305.449C305.449 696.437 305.497 696.234 305.595 696.05C305.692 695.866 305.837 695.72 306.028 695.611C306.219 695.501 306.455 695.446 306.735 695.446C306.984 695.446 307.197 695.491 307.374 695.579C307.551 695.666 307.686 695.788 307.78 695.947C307.875 696.104 307.923 696.288 307.923 696.5C307.923 696.615 307.903 696.732 307.864 696.851C307.826 696.969 307.773 697.086 307.704 697.203C307.637 697.321 307.559 697.436 307.468 697.55C307.38 697.664 307.285 697.776 307.184 697.886L306.128 699.031H308.105ZM311.189 695.5V695.782L309.556 699.443H309.028L310.658 695.912H308.524V695.5H311.189Z" fill="#5164DF"/>
<rect x="1207.8" y="578" width="60.9937" height="60.9937" rx="4.15866" fill="#2FFBCF"/>
<path d="M1217.08 588.268C1217.08 588.701 1216.98 589.066 1216.77 589.363C1216.57 589.656 1216.29 589.879 1215.94 590.031C1215.59 590.179 1215.19 590.253 1214.75 590.253C1214.3 590.253 1213.9 590.179 1213.55 590.031C1213.19 589.879 1212.91 589.656 1212.71 589.363C1212.5 589.066 1212.4 588.701 1212.4 588.268C1212.4 587.978 1212.46 587.715 1212.58 587.482C1212.69 587.245 1212.85 587.043 1213.06 586.875C1213.27 586.705 1213.52 586.575 1213.81 586.487C1214.09 586.395 1214.4 586.349 1214.74 586.349C1215.18 586.349 1215.59 586.428 1215.94 586.586C1216.29 586.744 1216.57 586.967 1216.77 587.254C1216.98 587.542 1217.08 587.88 1217.08 588.268ZM1215.7 588.178C1215.7 587.967 1215.66 587.785 1215.58 587.633C1215.5 587.479 1215.39 587.36 1215.24 587.278C1215.1 587.196 1214.93 587.155 1214.74 587.155C1214.54 587.155 1214.37 587.196 1214.23 587.278C1214.08 587.36 1213.97 587.479 1213.89 587.633C1213.81 587.785 1213.77 587.967 1213.77 588.178C1213.77 588.387 1213.81 588.567 1213.89 588.718C1213.97 588.87 1214.08 588.987 1214.23 589.069C1214.38 589.148 1214.55 589.187 1214.75 589.187C1214.94 589.187 1215.11 589.148 1215.25 589.069C1215.4 588.987 1215.51 588.87 1215.58 588.718C1215.66 588.567 1215.7 588.387 1215.7 588.178ZM1216.93 585.089C1216.93 585.44 1216.84 585.751 1216.65 586.022C1216.46 586.291 1216.2 586.501 1215.87 586.652C1215.54 586.804 1215.17 586.88 1214.75 586.88C1214.32 586.88 1213.94 586.804 1213.61 586.652C1213.28 586.501 1213.02 586.291 1212.83 586.022C1212.64 585.751 1212.55 585.44 1212.55 585.089C1212.55 584.672 1212.64 584.321 1212.83 584.037C1213.02 583.75 1213.28 583.532 1213.61 583.383C1213.94 583.235 1214.32 583.161 1214.74 583.161C1215.16 583.161 1215.54 583.235 1215.87 583.383C1216.2 583.532 1216.46 583.75 1216.65 584.037C1216.83 584.321 1216.93 584.672 1216.93 585.089ZM1215.56 585.151C1215.56 584.964 1215.53 584.803 1215.47 584.667C1215.4 584.528 1215.3 584.421 1215.18 584.345C1215.06 584.269 1214.91 584.231 1214.74 584.231C1214.57 584.231 1214.42 584.268 1214.3 584.34C1214.18 584.413 1214.08 584.519 1214.02 584.658C1213.95 584.794 1213.92 584.958 1213.92 585.151C1213.92 585.337 1213.95 585.501 1214.02 585.643C1214.08 585.782 1214.18 585.891 1214.3 585.97C1214.42 586.049 1214.57 586.089 1214.75 586.089C1214.92 586.089 1215.07 586.049 1215.19 585.97C1215.31 585.891 1215.4 585.782 1215.47 585.643C1215.53 585.501 1215.56 585.337 1215.56 585.151ZM1219.28 587.017L1218.19 586.757L1218.59 583.26H1222.46V584.364H1219.71L1219.54 585.894C1219.63 585.841 1219.77 585.784 1219.96 585.724C1220.14 585.661 1220.35 585.629 1220.58 585.629C1220.92 585.629 1221.21 585.681 1221.47 585.785C1221.73 585.89 1221.95 586.041 1222.13 586.24C1222.32 586.439 1222.45 586.683 1222.55 586.97C1222.64 587.257 1222.69 587.583 1222.69 587.946C1222.69 588.252 1222.64 588.545 1222.55 588.823C1222.45 589.097 1222.31 589.344 1222.12 589.562C1221.92 589.776 1221.68 589.945 1221.39 590.069C1221.1 590.192 1220.76 590.253 1220.36 590.253C1220.06 590.253 1219.78 590.209 1219.5 590.121C1219.22 590.032 1218.97 589.901 1218.75 589.727C1218.54 589.554 1218.36 589.344 1218.23 589.097C1218.1 588.848 1218.03 588.564 1218.02 588.244H1219.38C1219.4 588.44 1219.45 588.609 1219.53 588.751C1219.62 588.89 1219.73 588.998 1219.87 589.074C1220.01 589.149 1220.17 589.187 1220.36 589.187C1220.53 589.187 1220.68 589.154 1220.8 589.088C1220.92 589.022 1221.02 588.93 1221.1 588.813C1221.17 588.693 1221.23 588.554 1221.26 588.396C1221.3 588.235 1221.32 588.061 1221.32 587.875C1221.32 587.689 1221.3 587.52 1221.26 587.368C1221.21 587.216 1221.14 587.085 1221.05 586.975C1220.96 586.864 1220.84 586.779 1220.7 586.719C1220.56 586.659 1220.4 586.629 1220.21 586.629C1219.96 586.629 1219.76 586.668 1219.63 586.747C1219.49 586.826 1219.38 586.916 1219.28 587.017Z" fill="#5164DF"/>
<path d="M1235.49 598.983L1231.37 610.942H1228.87L1234.07 597.144H1235.66L1235.49 598.983ZM1238.94 610.942L1234.81 598.983L1234.63 597.144H1236.23L1241.44 610.942H1238.94ZM1238.74 605.824V607.71H1231.23V605.824H1238.74ZM1247.29 600.688V602.356H1241.51V600.688H1247.29ZM1243.17 598.177H1245.46V608.108C1245.46 608.424 1245.5 608.667 1245.59 608.838C1245.68 609.002 1245.81 609.113 1245.98 609.169C1246.14 609.226 1246.33 609.255 1246.56 609.255C1246.71 609.255 1246.87 609.245 1247.01 609.226C1247.16 609.207 1247.27 609.188 1247.36 609.169L1247.37 610.913C1247.18 610.97 1246.96 611.02 1246.71 611.065C1246.46 611.109 1246.18 611.131 1245.85 611.131C1245.33 611.131 1244.87 611.039 1244.46 610.856C1244.06 610.667 1243.74 610.36 1243.51 609.937C1243.29 609.514 1243.17 608.952 1243.17 608.25V598.177Z" fill="#5164DF"/>
<path d="M1226.85 617.488L1225.05 622.428H1224.32L1226.39 617.008H1226.86L1226.85 617.488ZM1228.35 622.428L1226.55 617.488L1226.54 617.008H1227.02L1229.09 622.428H1228.35ZM1228.26 620.421V621.01H1225.21V620.421H1228.26ZM1232.06 621.36C1232.06 621.26 1232.03 621.168 1231.99 621.084C1231.95 620.997 1231.86 620.919 1231.73 620.849C1231.59 620.778 1231.4 620.715 1231.13 620.663C1230.91 620.616 1230.7 620.56 1230.52 620.496C1230.34 620.431 1230.19 620.353 1230.07 620.261C1229.94 620.169 1229.85 620.061 1229.78 619.937C1229.71 619.813 1229.68 619.668 1229.68 619.502C1229.68 619.343 1229.71 619.193 1229.78 619.051C1229.85 618.91 1229.95 618.785 1230.08 618.675C1230.22 618.566 1230.37 618.481 1230.56 618.419C1230.74 618.356 1230.95 618.325 1231.17 618.325C1231.49 618.325 1231.77 618.383 1232 618.497C1232.23 618.611 1232.4 618.763 1232.52 618.955C1232.64 619.143 1232.7 619.353 1232.7 619.584H1232.02C1232.02 619.472 1231.98 619.364 1231.92 619.26C1231.85 619.153 1231.76 619.065 1231.63 618.996C1231.5 618.926 1231.35 618.891 1231.17 618.891C1230.98 618.891 1230.82 618.921 1230.71 618.981C1230.59 619.038 1230.5 619.111 1230.45 619.2C1230.4 619.29 1230.37 619.384 1230.37 619.483C1230.37 619.558 1230.38 619.625 1230.41 619.684C1230.44 619.741 1230.48 619.795 1230.55 619.844C1230.62 619.891 1230.71 619.936 1230.83 619.978C1230.95 620.021 1231.11 620.063 1231.3 620.105C1231.63 620.179 1231.9 620.269 1232.11 620.373C1232.33 620.477 1232.49 620.605 1232.59 620.756C1232.69 620.908 1232.75 621.091 1232.75 621.307C1232.75 621.484 1232.71 621.645 1232.63 621.791C1232.56 621.938 1232.46 622.064 1232.32 622.171C1232.18 622.275 1232.02 622.357 1231.83 622.417C1231.64 622.474 1231.43 622.502 1231.19 622.502C1230.83 622.502 1230.53 622.439 1230.29 622.313C1230.04 622.186 1229.86 622.022 1229.73 621.821C1229.6 621.62 1229.54 621.408 1229.54 621.185H1230.23C1230.24 621.373 1230.3 621.523 1230.4 621.635C1230.5 621.744 1230.62 621.822 1230.76 621.87C1230.91 621.914 1231.05 621.937 1231.19 621.937C1231.38 621.937 1231.54 621.912 1231.66 621.862C1231.79 621.812 1231.89 621.744 1231.96 621.657C1232.02 621.57 1232.06 621.471 1232.06 621.36ZM1235.34 618.4V618.929H1233.16V618.4H1235.34ZM1233.9 617.421H1234.58V621.43C1234.58 621.567 1234.61 621.67 1234.65 621.739C1234.69 621.809 1234.74 621.855 1234.81 621.877C1234.88 621.899 1234.95 621.91 1235.03 621.91C1235.08 621.91 1235.14 621.906 1235.21 621.896C1235.27 621.883 1235.32 621.873 1235.35 621.866L1235.36 622.428C1235.3 622.445 1235.23 622.461 1235.14 622.476C1235.05 622.494 1234.95 622.502 1234.82 622.502C1234.65 622.502 1234.5 622.469 1234.36 622.402C1234.22 622.335 1234.1 622.223 1234.02 622.067C1233.94 621.908 1233.9 621.695 1233.9 621.427V617.421ZM1238.52 621.739V619.666C1238.52 619.507 1238.49 619.369 1238.42 619.252C1238.36 619.133 1238.27 619.041 1238.14 618.977C1238.01 618.912 1237.86 618.88 1237.67 618.88C1237.5 618.88 1237.34 618.91 1237.21 618.969C1237.08 619.029 1236.98 619.107 1236.91 619.204C1236.84 619.301 1236.8 619.405 1236.8 619.517H1236.11C1236.11 619.373 1236.15 619.23 1236.22 619.089C1236.3 618.947 1236.4 618.819 1236.54 618.705C1236.68 618.589 1236.85 618.497 1237.05 618.43C1237.25 618.36 1237.47 618.325 1237.71 618.325C1238 618.325 1238.26 618.375 1238.49 618.474C1238.71 618.574 1238.89 618.724 1239.01 618.925C1239.14 619.123 1239.21 619.373 1239.21 619.673V621.549C1239.21 621.683 1239.22 621.826 1239.24 621.977C1239.27 622.129 1239.3 622.259 1239.35 622.368V622.428H1238.63C1238.6 622.349 1238.57 622.243 1238.55 622.111C1238.53 621.977 1238.52 621.853 1238.52 621.739ZM1238.64 619.986L1238.65 620.47H1237.95C1237.75 620.47 1237.58 620.486 1237.43 620.518C1237.27 620.548 1237.14 620.594 1237.04 620.656C1236.93 620.718 1236.85 620.796 1236.8 620.89C1236.75 620.982 1236.72 621.09 1236.72 621.214C1236.72 621.341 1236.75 621.456 1236.8 621.561C1236.86 621.665 1236.95 621.748 1237.06 621.81C1237.18 621.87 1237.32 621.899 1237.49 621.899C1237.7 621.899 1237.89 621.855 1238.05 621.765C1238.21 621.676 1238.34 621.567 1238.43 621.438C1238.53 621.309 1238.58 621.183 1238.59 621.062L1238.88 621.393C1238.86 621.497 1238.82 621.613 1238.74 621.739C1238.66 621.866 1238.56 621.987 1238.43 622.104C1238.3 622.218 1238.15 622.314 1237.98 622.391C1237.8 622.465 1237.61 622.502 1237.39 622.502C1237.12 622.502 1236.88 622.449 1236.67 622.342C1236.47 622.236 1236.31 622.093 1236.19 621.914C1236.08 621.733 1236.03 621.531 1236.03 621.307C1236.03 621.091 1236.07 620.902 1236.15 620.738C1236.24 620.572 1236.36 620.434 1236.52 620.325C1236.68 620.213 1236.87 620.129 1237.09 620.071C1237.31 620.014 1237.56 619.986 1237.84 619.986H1238.64ZM1241.98 618.4V618.929H1239.8V618.4H1241.98ZM1240.54 617.421H1241.23V621.43C1241.23 621.567 1241.25 621.67 1241.29 621.739C1241.33 621.809 1241.39 621.855 1241.45 621.877C1241.52 621.899 1241.59 621.91 1241.67 621.91C1241.73 621.91 1241.79 621.906 1241.85 621.896C1241.91 621.883 1241.96 621.873 1241.99 621.866L1242 622.428C1241.94 622.445 1241.87 622.461 1241.78 622.476C1241.69 622.494 1241.59 622.502 1241.46 622.502C1241.3 622.502 1241.14 622.469 1241 622.402C1240.86 622.335 1240.74 622.223 1240.66 622.067C1240.58 621.908 1240.54 621.695 1240.54 621.427V617.421ZM1243.53 618.4V622.428H1242.84V618.4H1243.53ZM1242.79 617.331C1242.79 617.22 1242.82 617.125 1242.89 617.049C1242.96 616.972 1243.06 616.933 1243.2 616.933C1243.33 616.933 1243.43 616.972 1243.5 617.049C1243.57 617.125 1243.61 617.22 1243.61 617.331C1243.61 617.438 1243.57 617.53 1243.5 617.607C1243.43 617.681 1243.33 617.719 1243.2 617.719C1243.06 617.719 1242.96 617.681 1242.89 617.607C1242.82 617.53 1242.79 617.438 1242.79 617.331ZM1245.33 619.26V622.428H1244.64V618.4H1245.29L1245.33 619.26ZM1245.16 620.261L1244.88 620.25C1244.88 619.975 1244.92 619.72 1245 619.487C1245.08 619.251 1245.19 619.046 1245.34 618.873C1245.48 618.699 1245.65 618.565 1245.85 618.471C1246.05 618.374 1246.27 618.325 1246.52 618.325C1246.71 618.325 1246.89 618.353 1247.05 618.407C1247.21 618.459 1247.35 618.544 1247.46 618.661C1247.57 618.777 1247.66 618.929 1247.72 619.115C1247.78 619.298 1247.81 619.523 1247.81 619.788V622.428H1247.12V619.781C1247.12 619.57 1247.08 619.401 1247.02 619.275C1246.96 619.146 1246.87 619.053 1246.75 618.996C1246.63 618.936 1246.49 618.906 1246.31 618.906C1246.14 618.906 1245.98 618.942 1245.84 619.014C1245.7 619.086 1245.58 619.185 1245.48 619.312C1245.38 619.439 1245.3 619.584 1245.25 619.748C1245.19 619.909 1245.16 620.08 1245.16 620.261ZM1250.53 622.502C1250.25 622.502 1249.99 622.455 1249.76 622.361C1249.54 622.264 1249.34 622.129 1249.18 621.955C1249.02 621.781 1248.89 621.575 1248.81 621.337C1248.72 621.099 1248.68 620.838 1248.68 620.555V620.399C1248.68 620.071 1248.72 619.78 1248.82 619.524C1248.92 619.266 1249.05 619.048 1249.22 618.869C1249.38 618.69 1249.57 618.555 1249.78 618.463C1249.99 618.371 1250.21 618.325 1250.44 618.325C1250.72 618.325 1250.97 618.375 1251.18 618.474C1251.39 618.574 1251.56 618.713 1251.7 618.891C1251.83 619.068 1251.93 619.276 1252 619.517C1252.06 619.755 1252.09 620.016 1252.09 620.299V620.608H1249.08V620.045H1251.4V619.993C1251.39 619.815 1251.36 619.641 1251.29 619.472C1251.23 619.303 1251.13 619.164 1250.99 619.055C1250.86 618.946 1250.67 618.891 1250.44 618.891C1250.28 618.891 1250.14 618.925 1250 618.992C1249.87 619.056 1249.76 619.153 1249.67 619.282C1249.57 619.411 1249.5 619.569 1249.45 619.755C1249.39 619.941 1249.37 620.156 1249.37 620.399V620.555C1249.37 620.746 1249.39 620.926 1249.45 621.095C1249.5 621.261 1249.58 621.408 1249.68 621.534C1249.78 621.661 1249.91 621.76 1250.06 621.832C1250.21 621.904 1250.37 621.94 1250.56 621.94C1250.81 621.94 1251.01 621.891 1251.18 621.791C1251.35 621.692 1251.5 621.559 1251.62 621.393L1252.04 621.724C1251.95 621.856 1251.84 621.981 1251.71 622.1C1251.58 622.219 1251.41 622.316 1251.21 622.391C1251.02 622.465 1250.79 622.502 1250.53 622.502Z" fill="#5164DF"/>
<path d="M1236.52 632.492V632.904H1233.94V632.544L1235.24 631.106C1235.39 630.929 1235.52 630.779 1235.6 630.657C1235.69 630.532 1235.75 630.421 1235.79 630.324C1235.82 630.224 1235.84 630.123 1235.84 630.02C1235.84 629.891 1235.82 629.773 1235.76 629.669C1235.71 629.562 1235.63 629.477 1235.53 629.414C1235.43 629.351 1235.3 629.319 1235.15 629.319C1234.98 629.319 1234.83 629.354 1234.72 629.422C1234.6 629.489 1234.51 629.583 1234.46 629.704C1234.4 629.825 1234.37 629.964 1234.37 630.121H1233.87C1233.87 629.899 1233.92 629.696 1234.01 629.511C1234.11 629.327 1234.26 629.181 1234.45 629.073C1234.64 628.963 1234.88 628.908 1235.15 628.908C1235.4 628.908 1235.62 628.952 1235.79 629.04C1235.97 629.127 1236.11 629.25 1236.2 629.409C1236.3 629.566 1236.34 629.75 1236.34 629.961C1236.34 630.076 1236.32 630.194 1236.28 630.313C1236.25 630.43 1236.19 630.548 1236.12 630.665C1236.06 630.782 1235.98 630.898 1235.89 631.011C1235.8 631.125 1235.71 631.237 1235.6 631.347L1234.55 632.492H1236.52ZM1238.71 628.94V632.904H1238.21V629.566L1237.2 629.934V629.482L1238.63 628.94H1238.71ZM1242.65 630.619V631.22C1242.65 631.543 1242.63 631.816 1242.57 632.038C1242.51 632.26 1242.43 632.438 1242.32 632.574C1242.21 632.709 1242.08 632.807 1241.93 632.869C1241.77 632.928 1241.6 632.958 1241.41 632.958C1241.26 632.958 1241.12 632.939 1240.99 632.901C1240.86 632.863 1240.75 632.803 1240.65 632.72C1240.54 632.635 1240.46 632.525 1240.39 632.389C1240.31 632.254 1240.26 632.09 1240.22 631.897C1240.18 631.704 1240.16 631.478 1240.16 631.22V630.619C1240.16 630.296 1240.19 630.025 1240.25 629.807C1240.31 629.588 1240.39 629.413 1240.5 629.281C1240.61 629.148 1240.74 629.052 1240.89 628.994C1241.05 628.937 1241.22 628.908 1241.41 628.908C1241.56 628.908 1241.7 628.927 1241.83 628.965C1241.96 629.001 1242.07 629.059 1242.18 629.141C1242.28 629.22 1242.36 629.326 1242.43 629.46C1242.5 629.592 1242.56 629.753 1242.6 629.945C1242.64 630.136 1242.65 630.361 1242.65 630.619ZM1242.15 631.301V630.535C1242.15 630.358 1242.14 630.203 1242.12 630.069C1242.1 629.934 1242.07 629.818 1242.03 629.723C1241.99 629.627 1241.94 629.549 1241.88 629.49C1241.82 629.43 1241.75 629.387 1241.67 629.36C1241.59 629.331 1241.5 629.317 1241.41 629.317C1241.29 629.317 1241.18 629.339 1241.09 629.384C1241 629.428 1240.92 629.497 1240.86 629.593C1240.8 629.688 1240.75 629.814 1240.72 629.969C1240.68 630.124 1240.67 630.313 1240.67 630.535V631.301C1240.67 631.478 1240.68 631.634 1240.7 631.769C1240.72 631.905 1240.75 632.022 1240.79 632.121C1240.83 632.219 1240.88 632.299 1240.94 632.362C1241 632.426 1241.07 632.473 1241.15 632.503C1241.23 632.532 1241.32 632.547 1241.41 632.547C1241.53 632.547 1241.64 632.523 1241.73 632.476C1241.83 632.429 1241.9 632.356 1241.96 632.257C1242.03 632.156 1242.07 632.027 1242.1 631.87C1242.14 631.711 1242.15 631.521 1242.15 631.301Z" fill="#5164DF"/>
<rect x="1008.18" y="578" width="60.9937" height="60.9937" rx="4.15866" fill="#2FFBCF"/>
<path d="M1017.46 588.268C1017.46 588.701 1017.36 589.066 1017.16 589.363C1016.96 589.656 1016.68 589.879 1016.32 590.031C1015.97 590.179 1015.58 590.253 1015.13 590.253C1014.68 590.253 1014.29 590.179 1013.93 590.031C1013.58 589.879 1013.3 589.656 1013.09 589.363C1012.89 589.066 1012.78 588.701 1012.78 588.268C1012.78 587.978 1012.84 587.715 1012.96 587.482C1013.08 587.245 1013.24 587.043 1013.45 586.875C1013.66 586.705 1013.91 586.575 1014.19 586.487C1014.48 586.395 1014.79 586.349 1015.12 586.349C1015.57 586.349 1015.97 586.428 1016.32 586.586C1016.68 586.744 1016.96 586.967 1017.16 587.254C1017.36 587.542 1017.46 587.88 1017.46 588.268ZM1016.09 588.178C1016.09 587.967 1016.05 587.785 1015.96 587.633C1015.88 587.479 1015.77 587.36 1015.63 587.278C1015.48 587.196 1015.31 587.155 1015.12 587.155C1014.93 587.155 1014.76 587.196 1014.61 587.278C1014.47 587.36 1014.35 587.479 1014.27 587.633C1014.19 587.785 1014.15 587.967 1014.15 588.178C1014.15 588.387 1014.19 588.567 1014.27 588.718C1014.35 588.87 1014.47 588.987 1014.61 589.069C1014.76 589.148 1014.93 589.187 1015.13 589.187C1015.33 589.187 1015.49 589.148 1015.64 589.069C1015.78 588.987 1015.89 588.87 1015.97 588.718C1016.05 588.567 1016.09 588.387 1016.09 588.178ZM1017.31 585.089C1017.31 585.44 1017.22 585.751 1017.03 586.022C1016.85 586.291 1016.59 586.501 1016.26 586.653C1015.93 586.804 1015.55 586.88 1015.13 586.88C1014.7 586.88 1014.32 586.804 1013.99 586.653C1013.66 586.501 1013.4 586.291 1013.22 586.022C1013.03 585.751 1012.94 585.44 1012.94 585.089C1012.94 584.672 1013.03 584.321 1013.22 584.037C1013.41 583.75 1013.66 583.532 1013.99 583.383C1014.32 583.235 1014.7 583.161 1015.12 583.161C1015.55 583.161 1015.92 583.235 1016.25 583.383C1016.58 583.532 1016.84 583.75 1017.03 584.037C1017.22 584.321 1017.31 584.672 1017.31 585.089ZM1015.95 585.151C1015.95 584.964 1015.92 584.803 1015.85 584.667C1015.78 584.528 1015.69 584.421 1015.57 584.345C1015.45 584.269 1015.3 584.231 1015.12 584.231C1014.95 584.231 1014.8 584.268 1014.68 584.34C1014.56 584.413 1014.47 584.519 1014.4 584.658C1014.34 584.794 1014.31 584.958 1014.31 585.151C1014.31 585.337 1014.34 585.501 1014.4 585.643C1014.47 585.782 1014.56 585.891 1014.68 585.97C1014.81 586.049 1014.96 586.089 1015.13 586.089C1015.3 586.089 1015.45 586.049 1015.57 585.97C1015.69 585.891 1015.79 585.782 1015.85 585.643C1015.92 585.501 1015.95 585.337 1015.95 585.151ZM1023.1 589.093V590.159H1018.39V589.249L1020.62 586.856C1020.84 586.607 1021.02 586.387 1021.15 586.198C1021.28 586.005 1021.37 585.833 1021.43 585.681C1021.49 585.526 1021.52 585.38 1021.52 585.241C1021.52 585.032 1021.48 584.854 1021.41 584.705C1021.34 584.554 1021.24 584.437 1021.1 584.355C1020.97 584.272 1020.81 584.231 1020.61 584.231C1020.4 584.231 1020.22 584.282 1020.07 584.383C1019.92 584.484 1019.81 584.625 1019.73 584.805C1019.65 584.985 1019.62 585.188 1019.62 585.416H1018.25C1018.25 585.005 1018.35 584.629 1018.54 584.288C1018.74 583.944 1019.01 583.671 1019.37 583.469C1019.73 583.263 1020.15 583.161 1020.64 583.161C1021.12 583.161 1021.53 583.24 1021.86 583.397C1022.2 583.552 1022.45 583.777 1022.62 584.07C1022.79 584.361 1022.88 584.708 1022.88 585.113C1022.88 585.34 1022.85 585.563 1022.77 585.781C1022.7 585.996 1022.6 586.21 1022.46 586.425C1022.33 586.637 1022.17 586.852 1021.98 587.069C1021.79 587.287 1021.58 587.513 1021.35 587.747L1020.15 589.093H1023.1Z" fill="#5164DF"/>
<path d="M1033.66 605.796H1030.07V603.91H1033.66C1034.29 603.91 1034.8 603.809 1035.18 603.607C1035.57 603.405 1035.85 603.127 1036.02 602.773C1036.21 602.413 1036.3 602.002 1036.3 601.541C1036.3 601.105 1036.21 600.698 1036.02 600.319C1035.85 599.933 1035.57 599.624 1035.18 599.39C1034.8 599.156 1034.29 599.04 1033.66 599.04H1030.8V610.942H1028.42V597.144H1033.66C1034.73 597.144 1035.64 597.334 1036.38 597.713C1037.14 598.086 1037.71 598.604 1038.1 599.267C1038.49 599.924 1038.69 600.676 1038.69 601.522C1038.69 602.413 1038.49 603.177 1038.1 603.816C1037.71 604.454 1037.14 604.943 1036.38 605.284C1035.64 605.625 1034.73 605.796 1033.66 605.796ZM1040.6 596.386H1042.88V608.753L1042.67 610.942H1040.6V596.386ZM1049.58 605.72V605.919C1049.58 606.677 1049.49 607.375 1049.32 608.013C1049.15 608.645 1048.9 609.195 1048.56 609.662C1048.23 610.13 1047.81 610.493 1047.31 610.752C1046.82 611.005 1046.25 611.131 1045.6 611.131C1044.96 611.131 1044.4 611.011 1043.93 610.771C1043.45 610.531 1043.06 610.19 1042.73 609.748C1042.42 609.305 1042.16 608.778 1041.97 608.165C1041.77 607.552 1041.63 606.876 1041.55 606.137V605.502C1041.63 604.757 1041.77 604.081 1041.97 603.474C1042.16 602.862 1042.42 602.334 1042.73 601.892C1043.06 601.443 1043.45 601.099 1043.92 600.859C1044.39 600.619 1044.94 600.499 1045.58 600.499C1046.23 600.499 1046.81 600.625 1047.31 600.878C1047.82 601.131 1048.24 601.491 1048.57 601.958C1048.91 602.419 1049.15 602.969 1049.32 603.607C1049.49 604.245 1049.58 604.949 1049.58 605.72ZM1047.29 605.919V605.72C1047.29 605.259 1047.25 604.826 1047.18 604.422C1047.1 604.011 1046.98 603.651 1046.8 603.342C1046.63 603.032 1046.39 602.789 1046.1 602.612C1045.81 602.429 1045.44 602.337 1045.01 602.337C1044.6 602.337 1044.26 602.407 1043.97 602.546C1043.67 602.685 1043.43 602.874 1043.24 603.114C1043.04 603.354 1042.88 603.632 1042.77 603.948C1042.66 604.264 1042.59 604.605 1042.55 604.972V606.687C1042.61 607.161 1042.73 607.596 1042.91 607.994C1043.1 608.386 1043.37 608.702 1043.71 608.942C1044.05 609.176 1044.49 609.293 1045.03 609.293C1045.45 609.293 1045.81 609.207 1046.1 609.037C1046.39 608.866 1046.62 608.629 1046.79 608.326C1046.97 608.017 1047.09 607.657 1047.17 607.246C1047.25 606.835 1047.29 606.393 1047.29 605.919Z" fill="#5164DF"/>
<path d="M1034.29 621.843V622.428H1031.58V621.843H1034.29ZM1031.72 617.008V622.428H1031V617.008H1031.72ZM1036.68 622.502C1036.4 622.502 1036.15 622.455 1035.92 622.361C1035.69 622.264 1035.5 622.129 1035.33 621.955C1035.17 621.781 1035.05 621.575 1034.96 621.337C1034.88 621.099 1034.83 620.838 1034.83 620.555V620.399C1034.83 620.071 1034.88 619.78 1034.98 619.524C1035.07 619.266 1035.21 619.048 1035.37 618.869C1035.54 618.69 1035.73 618.555 1035.94 618.463C1036.15 618.371 1036.37 618.325 1036.59 618.325C1036.88 618.325 1037.13 618.375 1037.34 618.474C1037.55 618.574 1037.72 618.713 1037.85 618.891C1037.99 619.068 1038.09 619.276 1038.15 619.517C1038.22 619.755 1038.25 620.016 1038.25 620.299V620.608H1035.24V620.045H1037.56V619.993C1037.55 619.815 1037.51 619.641 1037.45 619.472C1037.39 619.303 1037.29 619.164 1037.15 619.055C1037.01 618.946 1036.83 618.891 1036.59 618.891C1036.44 618.891 1036.29 618.925 1036.16 618.992C1036.03 619.056 1035.92 619.153 1035.82 619.282C1035.73 619.411 1035.65 619.569 1035.6 619.755C1035.55 619.941 1035.52 620.156 1035.52 620.399V620.555C1035.52 620.747 1035.55 620.926 1035.6 621.095C1035.66 621.261 1035.74 621.408 1035.84 621.535C1035.94 621.661 1036.07 621.76 1036.21 621.832C1036.36 621.904 1036.53 621.94 1036.72 621.94C1036.96 621.94 1037.17 621.891 1037.34 621.791C1037.51 621.692 1037.65 621.559 1037.78 621.393L1038.2 621.724C1038.11 621.856 1038 621.981 1037.87 622.1C1037.73 622.219 1037.57 622.316 1037.37 622.391C1037.18 622.465 1036.95 622.502 1036.68 622.502ZM1041.43 621.739V619.666C1041.43 619.507 1041.4 619.369 1041.33 619.252C1041.27 619.133 1041.18 619.041 1041.05 618.977C1040.92 618.912 1040.77 618.88 1040.58 618.88C1040.41 618.88 1040.25 618.91 1040.12 618.97C1039.99 619.029 1039.89 619.107 1039.82 619.204C1039.74 619.301 1039.71 619.405 1039.71 619.517H1039.02C1039.02 619.373 1039.06 619.23 1039.13 619.089C1039.21 618.947 1039.31 618.819 1039.45 618.705C1039.59 618.589 1039.76 618.497 1039.96 618.43C1040.16 618.36 1040.38 618.325 1040.62 618.325C1040.91 618.325 1041.17 618.375 1041.4 618.474C1041.62 618.574 1041.8 618.724 1041.92 618.925C1042.05 619.123 1042.12 619.373 1042.12 619.673V621.549C1042.12 621.683 1042.13 621.826 1042.15 621.978C1042.18 622.129 1042.21 622.259 1042.26 622.368V622.428H1041.54C1041.51 622.349 1041.48 622.243 1041.46 622.112C1041.44 621.978 1041.43 621.853 1041.43 621.739ZM1041.55 619.986L1041.56 620.47H1040.86C1040.66 620.47 1040.49 620.486 1040.33 620.518C1040.18 620.548 1040.05 620.594 1039.95 620.656C1039.84 620.718 1039.76 620.796 1039.71 620.89C1039.65 620.982 1039.63 621.09 1039.63 621.214C1039.63 621.341 1039.66 621.456 1039.71 621.561C1039.77 621.665 1039.86 621.748 1039.97 621.81C1040.09 621.87 1040.23 621.899 1040.4 621.899C1040.61 621.899 1040.79 621.855 1040.96 621.765C1041.12 621.676 1041.24 621.567 1041.34 621.438C1041.44 621.309 1041.49 621.183 1041.5 621.062L1041.79 621.393C1041.77 621.497 1041.73 621.613 1041.65 621.739C1041.57 621.866 1041.47 621.987 1041.34 622.104C1041.21 622.218 1041.06 622.314 1040.89 622.391C1040.71 622.465 1040.52 622.502 1040.3 622.502C1040.02 622.502 1039.78 622.449 1039.58 622.342C1039.37 622.236 1039.22 622.093 1039.1 621.914C1038.99 621.733 1038.93 621.531 1038.93 621.307C1038.93 621.091 1038.98 620.902 1039.06 620.738C1039.15 620.572 1039.27 620.434 1039.43 620.325C1039.58 620.213 1039.78 620.129 1040 620.071C1040.22 620.014 1040.47 619.986 1040.75 619.986H1041.55ZM1045.74 621.646V616.71H1046.43V622.428H1045.8L1045.74 621.646ZM1043.03 620.459V620.38C1043.03 620.073 1043.07 619.793 1043.14 619.543C1043.22 619.29 1043.33 619.073 1043.46 618.891C1043.61 618.71 1043.77 618.571 1043.97 618.474C1044.16 618.375 1044.38 618.325 1044.62 618.325C1044.88 618.325 1045.1 618.37 1045.29 618.46C1045.48 618.546 1045.64 618.674 1045.77 618.843C1045.9 619.009 1046.01 619.21 1046.09 619.446C1046.16 619.682 1046.22 619.949 1046.25 620.246V620.589C1046.22 620.884 1046.17 621.15 1046.09 621.386C1046.01 621.621 1045.9 621.822 1045.77 621.989C1045.64 622.155 1045.48 622.283 1045.29 622.372C1045.09 622.459 1044.87 622.502 1044.62 622.502C1044.38 622.502 1044.16 622.452 1043.97 622.35C1043.77 622.248 1043.61 622.105 1043.46 621.922C1043.33 621.738 1043.22 621.522 1043.14 621.274C1043.07 621.023 1043.03 620.751 1043.03 620.459ZM1043.72 620.38V620.459C1043.72 620.66 1043.74 620.848 1043.78 621.024C1043.82 621.201 1043.89 621.356 1043.97 621.49C1044.06 621.624 1044.17 621.729 1044.31 621.806C1044.44 621.881 1044.6 621.918 1044.79 621.918C1045.01 621.918 1045.2 621.87 1045.35 621.773C1045.5 621.676 1045.62 621.548 1045.71 621.389C1045.8 621.23 1045.86 621.058 1045.91 620.872V619.975C1045.88 619.838 1045.84 619.707 1045.78 619.58C1045.73 619.451 1045.66 619.337 1045.57 619.238C1045.48 619.136 1045.37 619.055 1045.24 618.996C1045.12 618.936 1044.97 618.906 1044.79 618.906C1044.61 618.906 1044.44 618.946 1044.31 619.025C1044.17 619.102 1044.06 619.209 1043.97 619.346C1043.89 619.48 1043.82 619.636 1043.78 619.815C1043.74 619.991 1043.72 620.179 1043.72 620.38Z" fill="#5164DF"/>
<path d="M1033.14 631.577V631.989H1030.29V631.694L1032.06 628.962H1032.47L1032.03 629.752L1030.86 631.577H1033.14ZM1032.59 628.962V632.904H1032.09V628.962H1032.59ZM1036.26 631.577V631.989H1033.41V631.694L1035.18 628.962H1035.59L1035.15 629.752L1033.98 631.577H1036.26ZM1035.71 628.962V632.904H1035.21V628.962H1035.71ZM1036.78 632.639C1036.78 632.554 1036.8 632.482 1036.86 632.425C1036.91 632.365 1036.99 632.335 1037.09 632.335C1037.19 632.335 1037.27 632.365 1037.32 632.425C1037.37 632.482 1037.4 632.554 1037.4 632.639C1037.4 632.722 1037.37 632.792 1037.32 632.85C1037.27 632.908 1037.19 632.936 1037.09 632.936C1036.99 632.936 1036.91 632.908 1036.86 632.85C1036.8 632.792 1036.78 632.722 1036.78 632.639ZM1038.67 632.484H1038.73C1039.02 632.484 1039.25 632.444 1039.43 632.362C1039.61 632.281 1039.75 632.172 1039.85 632.035C1039.94 631.898 1040.01 631.743 1040.05 631.572C1040.08 631.399 1040.1 631.221 1040.1 631.039V630.435C1040.1 630.256 1040.08 630.097 1040.04 629.958C1040 629.819 1039.94 629.703 1039.87 629.609C1039.8 629.515 1039.72 629.444 1039.63 629.395C1039.54 629.346 1039.44 629.322 1039.34 629.322C1039.23 629.322 1039.12 629.345 1039.03 629.392C1038.94 629.437 1038.87 629.502 1038.8 629.585C1038.74 629.668 1038.69 629.765 1038.66 629.877C1038.63 629.989 1038.61 630.111 1038.61 630.243C1038.61 630.36 1038.63 630.474 1038.66 630.584C1038.68 630.694 1038.73 630.793 1038.79 630.881C1038.85 630.97 1038.92 631.04 1039.01 631.093C1039.1 631.143 1039.21 631.168 1039.33 631.168C1039.44 631.168 1039.54 631.147 1039.64 631.103C1039.74 631.058 1039.83 630.998 1039.9 630.922C1039.98 630.844 1040.04 630.757 1040.09 630.659C1040.14 630.562 1040.16 630.46 1040.17 630.354H1040.41C1040.41 630.503 1040.38 630.651 1040.32 630.798C1040.26 630.942 1040.18 631.074 1040.07 631.193C1039.97 631.312 1039.85 631.408 1039.71 631.48C1039.57 631.55 1039.41 631.585 1039.25 631.585C1039.05 631.585 1038.88 631.548 1038.74 631.472C1038.6 631.396 1038.48 631.295 1038.39 631.168C1038.3 631.042 1038.23 630.901 1038.18 630.746C1038.14 630.589 1038.12 630.43 1038.12 630.27C1038.12 630.082 1038.15 629.906 1038.2 629.742C1038.25 629.577 1038.33 629.433 1038.43 629.308C1038.53 629.182 1038.66 629.084 1038.81 629.013C1038.97 628.943 1039.14 628.908 1039.34 628.908C1039.57 628.908 1039.76 628.953 1039.92 629.043C1040.08 629.133 1040.21 629.254 1040.31 629.406C1040.41 629.558 1040.48 629.728 1040.53 629.918C1040.58 630.107 1040.6 630.302 1040.6 630.502V630.684C1040.6 630.888 1040.59 631.095 1040.56 631.307C1040.53 631.516 1040.48 631.716 1040.41 631.908C1040.34 632.099 1040.23 632.27 1040.09 632.422C1039.95 632.572 1039.77 632.691 1039.55 632.779C1039.33 632.866 1039.05 632.909 1038.73 632.909H1038.67V632.484ZM1041.93 631.028L1041.53 630.925L1041.73 628.962H1043.75V629.425H1042.15L1042.03 630.497C1042.1 630.455 1042.2 630.417 1042.31 630.381C1042.42 630.344 1042.55 630.326 1042.69 630.326C1042.87 630.326 1043.04 630.358 1043.18 630.421C1043.32 630.483 1043.45 630.571 1043.55 630.687C1043.65 630.802 1043.73 630.941 1043.78 631.103C1043.84 631.266 1043.87 631.447 1043.87 631.648C1043.87 631.837 1043.84 632.011 1043.79 632.17C1043.74 632.329 1043.66 632.468 1043.56 632.587C1043.45 632.704 1043.32 632.796 1043.17 632.861C1043.01 632.926 1042.83 632.958 1042.62 632.958C1042.46 632.958 1042.31 632.936 1042.16 632.893C1042.02 632.848 1041.9 632.78 1041.79 632.69C1041.68 632.598 1041.59 632.484 1041.51 632.349C1041.45 632.212 1041.4 632.051 1041.38 631.867H1041.86C1041.88 632.015 1041.93 632.14 1041.99 632.241C1042.06 632.342 1042.14 632.418 1042.25 632.471C1042.35 632.521 1042.48 632.547 1042.62 632.547C1042.74 632.547 1042.84 632.526 1042.93 632.484C1043.03 632.443 1043.1 632.383 1043.17 632.306C1043.23 632.228 1043.28 632.134 1043.31 632.024C1043.34 631.914 1043.36 631.79 1043.36 631.653C1043.36 631.529 1043.34 631.413 1043.31 631.307C1043.28 631.2 1043.22 631.107 1043.16 631.028C1043.09 630.948 1043.01 630.887 1042.91 630.844C1042.81 630.798 1042.7 630.776 1042.57 630.776C1042.41 630.776 1042.28 630.798 1042.19 630.844C1042.11 630.889 1042.02 630.95 1041.93 631.028ZM1046.34 628.956H1046.38V629.382H1046.34C1046.07 629.382 1045.85 629.425 1045.67 629.511C1045.49 629.596 1045.35 629.711 1045.25 629.855C1045.14 629.998 1045.07 630.159 1045.02 630.337C1044.97 630.516 1044.95 630.697 1044.95 630.881V631.461C1044.95 631.636 1044.97 631.791 1045.01 631.927C1045.05 632.06 1045.11 632.173 1045.18 632.265C1045.26 632.357 1045.34 632.427 1045.43 632.473C1045.52 632.52 1045.61 632.544 1045.71 632.544C1045.83 632.544 1045.93 632.522 1046.02 632.479C1046.11 632.434 1046.19 632.371 1046.25 632.292C1046.31 632.211 1046.36 632.115 1046.39 632.005C1046.43 631.895 1046.44 631.774 1046.44 631.642C1046.44 631.525 1046.43 631.412 1046.4 631.304C1046.37 631.194 1046.33 631.096 1046.27 631.011C1046.21 630.925 1046.13 630.857 1046.04 630.808C1045.95 630.758 1045.85 630.733 1045.73 630.733C1045.59 630.733 1045.46 630.767 1045.34 630.835C1045.22 630.902 1045.12 630.991 1045.04 631.101C1044.96 631.209 1044.92 631.327 1044.91 631.455L1044.64 631.453C1044.67 631.251 1044.72 631.078 1044.79 630.936C1044.86 630.791 1044.94 630.674 1045.05 630.584C1045.15 630.492 1045.27 630.425 1045.39 630.383C1045.52 630.34 1045.66 630.318 1045.81 630.318C1046 630.318 1046.17 630.355 1046.32 630.429C1046.46 630.503 1046.58 630.603 1046.67 630.727C1046.76 630.85 1046.83 630.989 1046.87 631.144C1046.92 631.298 1046.94 631.455 1046.94 631.618C1046.94 631.804 1046.91 631.978 1046.86 632.14C1046.81 632.303 1046.73 632.445 1046.62 632.568C1046.52 632.691 1046.39 632.787 1046.24 632.855C1046.09 632.924 1045.91 632.958 1045.71 632.958C1045.5 632.958 1045.32 632.915 1045.16 632.828C1045 632.74 1044.87 632.622 1044.76 632.476C1044.66 632.33 1044.58 632.168 1044.53 631.989C1044.47 631.81 1044.45 631.629 1044.45 631.445V631.209C1044.45 630.931 1044.48 630.659 1044.53 630.391C1044.59 630.124 1044.68 629.882 1044.82 629.666C1044.96 629.449 1045.15 629.277 1045.4 629.149C1045.64 629.021 1045.96 628.956 1046.34 628.956Z" fill="#5164DF"/>
</svg>
