<svg width="1459" height="1080" viewBox="0 0 1459 1080" fill="none" xmlns="http://www.w3.org/2000/svg">
<rect x="1274.33" y="441.308" width="60.9937" height="60.9937" rx="4.15866" fill="#DFFF2F"/>
<path d="M1280.36 449.426H1281.09C1281.33 449.426 1281.52 449.386 1281.67 449.307C1281.82 449.225 1281.94 449.111 1282.01 448.966C1282.08 448.818 1282.12 448.645 1282.12 448.45C1282.12 448.273 1282.09 448.116 1282.02 447.98C1281.95 447.841 1281.85 447.734 1281.71 447.658C1281.57 447.579 1281.4 447.54 1281.18 447.54C1281.02 447.54 1280.86 447.573 1280.72 447.639C1280.58 447.706 1280.46 447.799 1280.38 447.919C1280.29 448.039 1280.25 448.184 1280.25 448.355H1278.88C1278.88 447.976 1278.98 447.646 1279.18 447.365C1279.39 447.083 1279.66 446.864 1280.01 446.706C1280.35 446.548 1280.73 446.469 1281.15 446.469C1281.61 446.469 1282.02 446.545 1282.37 446.696C1282.72 446.845 1283 447.064 1283.19 447.355C1283.39 447.646 1283.49 448.006 1283.49 448.435C1283.49 448.653 1283.44 448.865 1283.33 449.07C1283.23 449.272 1283.09 449.456 1282.9 449.62C1282.71 449.781 1282.49 449.91 1282.22 450.008C1281.95 450.103 1281.65 450.15 1281.31 450.15H1280.36V449.426ZM1280.36 450.463V449.757H1281.31C1281.69 449.757 1282.02 449.8 1282.3 449.885C1282.59 449.97 1282.82 450.094 1283.02 450.255C1283.21 450.413 1283.36 450.601 1283.45 450.819C1283.55 451.033 1283.6 451.272 1283.6 451.534C1283.6 451.856 1283.54 452.144 1283.42 452.396C1283.29 452.646 1283.12 452.858 1282.89 453.031C1282.67 453.205 1282.41 453.338 1282.12 453.429C1281.82 453.518 1281.5 453.562 1281.15 453.562C1280.86 453.562 1280.57 453.522 1280.29 453.443C1280.01 453.361 1279.76 453.24 1279.53 453.079C1279.31 452.914 1279.13 452.709 1278.99 452.463C1278.86 452.213 1278.79 451.918 1278.79 451.577H1280.16C1280.16 451.754 1280.2 451.911 1280.29 452.05C1280.38 452.189 1280.5 452.298 1280.66 452.377C1280.82 452.456 1280.99 452.496 1281.18 452.496C1281.4 452.496 1281.59 452.456 1281.74 452.377C1281.9 452.295 1282.02 452.182 1282.1 452.036C1282.19 451.888 1282.23 451.716 1282.23 451.52C1282.23 451.267 1282.19 451.065 1282.09 450.913C1282 450.759 1281.87 450.645 1281.7 450.572C1281.53 450.5 1281.33 450.463 1281.09 450.463H1280.36ZM1288.06 446.497H1288.26V447.587H1288.18C1287.82 447.587 1287.5 447.641 1287.22 447.748C1286.93 447.856 1286.7 448.009 1286.5 448.208C1286.31 448.404 1286.16 448.641 1286.05 448.919C1285.95 449.197 1285.9 449.508 1285.9 449.852V450.999C1285.9 451.245 1285.93 451.463 1285.97 451.652C1286.02 451.839 1286.1 451.995 1286.19 452.122C1286.28 452.245 1286.39 452.338 1286.52 452.401C1286.65 452.461 1286.79 452.491 1286.95 452.491C1287.09 452.491 1287.23 452.46 1287.35 452.396C1287.47 452.333 1287.58 452.245 1287.66 452.131C1287.75 452.014 1287.82 451.878 1287.86 451.724C1287.91 451.566 1287.93 451.393 1287.93 451.207C1287.93 451.021 1287.91 450.849 1287.86 450.691C1287.82 450.533 1287.75 450.397 1287.66 450.283C1287.57 450.166 1287.46 450.076 1287.34 450.013C1287.21 449.95 1287.07 449.918 1286.91 449.918C1286.7 449.918 1286.51 449.969 1286.34 450.07C1286.18 450.168 1286.06 450.294 1285.96 450.449C1285.87 450.604 1285.82 450.766 1285.82 450.937L1285.41 450.672C1285.41 450.428 1285.47 450.198 1285.56 449.98C1285.65 449.762 1285.78 449.569 1285.95 449.402C1286.11 449.231 1286.31 449.099 1286.55 449.004C1286.78 448.906 1287.04 448.857 1287.34 448.857C1287.66 448.857 1287.94 448.919 1288.19 449.042C1288.43 449.165 1288.64 449.334 1288.8 449.549C1288.97 449.764 1289.09 450.012 1289.17 450.293C1289.25 450.574 1289.3 450.874 1289.3 451.193C1289.3 451.528 1289.24 451.839 1289.13 452.126C1289.02 452.414 1288.87 452.665 1288.66 452.88C1288.46 453.094 1288.22 453.262 1287.93 453.382C1287.65 453.502 1287.33 453.562 1286.97 453.562C1286.61 453.562 1286.27 453.496 1285.97 453.363C1285.68 453.227 1285.42 453.038 1285.21 452.794C1284.99 452.551 1284.83 452.262 1284.71 451.927C1284.6 451.592 1284.54 451.226 1284.54 450.828V450.297C1284.54 449.741 1284.62 449.233 1284.78 448.772C1284.94 448.307 1285.18 447.906 1285.49 447.568C1285.79 447.227 1286.16 446.963 1286.59 446.777C1287.03 446.591 1287.52 446.497 1288.06 446.497Z" fill="#5A3EE3"/>
<path d="M1299.05 460.453V474.25H1296.67V460.453H1299.05ZM1307.34 460.453L1301.75 467.096L1298.57 470.469L1298.15 468.109L1300.42 465.305L1304.44 460.453H1307.34ZM1304.78 474.25L1300.24 467.711L1301.88 466.091L1307.61 474.25H1304.78ZM1311 465.949V474.25H1308.72V463.997H1310.9L1311 465.949ZM1314.14 463.931L1314.12 466.053C1313.98 466.028 1313.83 466.009 1313.66 465.996C1313.5 465.984 1313.35 465.977 1313.19 465.977C1312.8 465.977 1312.45 466.034 1312.16 466.148C1311.86 466.255 1311.61 466.413 1311.41 466.622C1311.21 466.824 1311.06 467.07 1310.95 467.361C1310.85 467.651 1310.78 467.977 1310.76 468.337L1310.24 468.375C1310.24 467.73 1310.3 467.133 1310.43 466.584C1310.56 466.034 1310.75 465.551 1311 465.134C1311.26 464.717 1311.58 464.392 1311.97 464.158C1312.36 463.924 1312.81 463.807 1313.32 463.807C1313.46 463.807 1313.61 463.82 1313.77 463.845C1313.93 463.87 1314.05 463.899 1314.14 463.931Z" fill="#5A3EE3"/>
<path d="M1293.02 480.316V485.736H1292.3V480.316H1293.02ZM1296.29 480.316L1294.04 482.844L1292.78 484.158L1292.66 483.391L1293.61 482.341L1295.43 480.316H1296.29ZM1295.6 485.736L1293.6 483.093L1294.02 482.524L1296.46 485.736H1295.6ZM1297.68 482.341V485.736H1296.99V481.708H1297.66L1297.68 482.341ZM1298.93 481.686L1298.93 482.326C1298.87 482.314 1298.82 482.307 1298.77 482.304C1298.72 482.299 1298.66 482.297 1298.6 482.297C1298.44 482.297 1298.3 482.321 1298.17 482.371C1298.05 482.421 1297.95 482.49 1297.87 482.58C1297.78 482.669 1297.71 482.776 1297.66 482.9C1297.62 483.021 1297.59 483.155 1297.57 483.302L1297.38 483.413C1297.38 483.17 1297.4 482.942 1297.45 482.728C1297.5 482.515 1297.57 482.326 1297.68 482.163C1297.78 481.996 1297.91 481.867 1298.06 481.775C1298.22 481.681 1298.41 481.634 1298.63 481.634C1298.68 481.634 1298.74 481.64 1298.8 481.653C1298.86 481.662 1298.91 481.674 1298.93 481.686ZM1300.77 485.319L1301.89 481.708H1302.63L1301.01 486.358C1300.97 486.457 1300.92 486.564 1300.86 486.678C1300.8 486.795 1300.73 486.905 1300.63 487.01C1300.54 487.114 1300.42 487.198 1300.29 487.263C1300.16 487.33 1300 487.363 1299.82 487.363C1299.76 487.363 1299.69 487.356 1299.61 487.341C1299.52 487.326 1299.46 487.314 1299.43 487.304L1299.43 486.745C1299.45 486.748 1299.48 486.75 1299.52 486.753C1299.56 486.758 1299.59 486.76 1299.61 486.76C1299.77 486.76 1299.9 486.739 1300.01 486.697C1300.12 486.657 1300.21 486.589 1300.29 486.492C1300.36 486.398 1300.43 486.268 1300.48 486.101L1300.77 485.319ZM1299.95 481.708L1300.99 484.835L1301.17 485.561L1300.68 485.815L1299.19 481.708H1299.95ZM1303.94 482.483V487.285H1303.24V481.708H1303.88L1303.94 482.483ZM1306.65 483.689V483.767C1306.65 484.06 1306.62 484.332 1306.55 484.582C1306.48 484.831 1306.38 485.046 1306.24 485.23C1306.11 485.414 1305.95 485.556 1305.75 485.658C1305.56 485.76 1305.34 485.811 1305.09 485.811C1304.83 485.811 1304.61 485.769 1304.41 485.684C1304.21 485.6 1304.05 485.477 1303.91 485.316C1303.77 485.154 1303.67 484.961 1303.58 484.735C1303.5 484.509 1303.45 484.255 1303.42 483.972V483.555C1303.45 483.257 1303.51 482.99 1303.59 482.754C1303.67 482.519 1303.78 482.318 1303.91 482.151C1304.05 481.983 1304.21 481.855 1304.41 481.768C1304.6 481.679 1304.82 481.634 1305.08 481.634C1305.33 481.634 1305.55 481.684 1305.75 481.783C1305.95 481.88 1306.11 482.019 1306.25 482.2C1306.38 482.381 1306.48 482.598 1306.55 482.851C1306.62 483.102 1306.65 483.381 1306.65 483.689ZM1305.96 483.767V483.689C1305.96 483.488 1305.94 483.299 1305.9 483.123C1305.85 482.944 1305.79 482.788 1305.7 482.654C1305.61 482.517 1305.5 482.411 1305.36 482.334C1305.23 482.254 1305.06 482.215 1304.88 482.215C1304.7 482.215 1304.55 482.244 1304.42 482.304C1304.29 482.364 1304.19 482.444 1304.1 482.546C1304.01 482.645 1303.93 482.759 1303.88 482.888C1303.82 483.015 1303.78 483.147 1303.75 483.283V484.247C1303.8 484.421 1303.87 484.585 1303.96 484.739C1304.05 484.89 1304.17 485.013 1304.32 485.107C1304.47 485.199 1304.66 485.245 1304.88 485.245C1305.07 485.245 1305.23 485.207 1305.36 485.13C1305.5 485.05 1305.61 484.942 1305.7 484.806C1305.79 484.669 1305.85 484.513 1305.9 484.337C1305.94 484.158 1305.96 483.968 1305.96 483.767ZM1309.22 481.708V482.237H1307.04V481.708H1309.22ZM1307.78 480.729H1308.46V484.739C1308.46 484.875 1308.49 484.978 1308.53 485.048C1308.57 485.117 1308.62 485.163 1308.69 485.185C1308.76 485.208 1308.83 485.219 1308.91 485.219C1308.96 485.219 1309.02 485.214 1309.09 485.204C1309.15 485.192 1309.2 485.182 1309.23 485.174L1309.23 485.736C1309.18 485.754 1309.11 485.77 1309.02 485.785C1308.93 485.802 1308.83 485.811 1308.7 485.811C1308.53 485.811 1308.38 485.777 1308.24 485.71C1308.1 485.643 1307.98 485.532 1307.9 485.375C1307.82 485.216 1307.78 485.003 1307.78 484.735V480.729ZM1309.77 483.767V483.681C1309.77 483.391 1309.81 483.122 1309.89 482.874C1309.98 482.623 1310.1 482.406 1310.26 482.222C1310.42 482.036 1310.61 481.892 1310.84 481.79C1311.06 481.686 1311.31 481.634 1311.6 481.634C1311.88 481.634 1312.13 481.686 1312.36 481.79C1312.59 481.892 1312.78 482.036 1312.94 482.222C1313.1 482.406 1313.22 482.623 1313.31 482.874C1313.39 483.122 1313.43 483.391 1313.43 483.681V483.767C1313.43 484.057 1313.39 484.327 1313.31 484.575C1313.22 484.823 1313.1 485.04 1312.94 485.226C1312.78 485.41 1312.59 485.554 1312.36 485.658C1312.14 485.76 1311.89 485.811 1311.6 485.811C1311.32 485.811 1311.07 485.76 1310.84 485.658C1310.61 485.554 1310.42 485.41 1310.26 485.226C1310.1 485.04 1309.98 484.823 1309.89 484.575C1309.81 484.327 1309.77 484.057 1309.77 483.767ZM1310.46 483.681V483.767C1310.46 483.968 1310.48 484.158 1310.53 484.337C1310.57 484.513 1310.64 484.669 1310.74 484.806C1310.84 484.942 1310.96 485.05 1311.1 485.13C1311.24 485.207 1311.41 485.245 1311.6 485.245C1311.79 485.245 1311.96 485.207 1312.1 485.13C1312.24 485.05 1312.36 484.942 1312.46 484.806C1312.55 484.669 1312.62 484.513 1312.67 484.337C1312.72 484.158 1312.74 483.968 1312.74 483.767V483.681C1312.74 483.483 1312.72 483.296 1312.67 483.119C1312.62 482.941 1312.55 482.783 1312.45 482.647C1312.36 482.508 1312.24 482.398 1312.09 482.319C1311.95 482.239 1311.79 482.2 1311.6 482.2C1311.41 482.2 1311.24 482.239 1311.1 482.319C1310.95 482.398 1310.84 482.508 1310.74 482.647C1310.64 482.783 1310.57 482.941 1310.53 483.119C1310.48 483.296 1310.46 483.483 1310.46 483.681ZM1314.99 482.568V485.736H1314.3V481.708H1314.95L1314.99 482.568ZM1314.82 483.57L1314.54 483.559C1314.54 483.283 1314.58 483.029 1314.66 482.795C1314.74 482.56 1314.85 482.355 1314.99 482.181C1315.14 482.007 1315.31 481.873 1315.51 481.779C1315.71 481.682 1315.93 481.634 1316.17 481.634C1316.37 481.634 1316.55 481.661 1316.71 481.716C1316.87 481.768 1317 481.852 1317.12 481.969C1317.23 482.086 1317.32 482.237 1317.38 482.423C1317.44 482.607 1317.47 482.831 1317.47 483.097V485.736H1316.77V483.09C1316.77 482.879 1316.74 482.71 1316.68 482.583C1316.62 482.454 1316.53 482.361 1316.41 482.304C1316.29 482.244 1316.14 482.215 1315.97 482.215C1315.8 482.215 1315.64 482.251 1315.5 482.323C1315.36 482.395 1315.24 482.494 1315.14 482.62C1315.04 482.747 1314.96 482.892 1314.9 483.056C1314.85 483.217 1314.82 483.389 1314.82 483.57Z" fill="#5A3EE3"/>
<path d="M1299.12 495.146C1299.12 495.386 1299.06 495.59 1298.95 495.758C1298.84 495.924 1298.69 496.05 1298.5 496.137C1298.31 496.223 1298.1 496.267 1297.86 496.267C1297.63 496.267 1297.41 496.223 1297.22 496.137C1297.03 496.05 1296.88 495.924 1296.77 495.758C1296.66 495.59 1296.61 495.386 1296.61 495.146C1296.61 494.989 1296.64 494.845 1296.7 494.715C1296.76 494.583 1296.84 494.469 1296.95 494.371C1297.07 494.274 1297.2 494.199 1297.35 494.147C1297.5 494.092 1297.67 494.065 1297.86 494.065C1298.1 494.065 1298.31 494.112 1298.5 494.206C1298.69 494.298 1298.84 494.425 1298.95 494.588C1299.06 494.75 1299.12 494.936 1299.12 495.146ZM1298.61 495.135C1298.61 494.989 1298.58 494.86 1298.52 494.748C1298.45 494.634 1298.37 494.545 1298.25 494.482C1298.14 494.419 1298.01 494.388 1297.86 494.388C1297.7 494.388 1297.57 494.419 1297.46 494.482C1297.35 494.545 1297.26 494.634 1297.2 494.748C1297.14 494.86 1297.11 494.989 1297.11 495.135C1297.11 495.286 1297.14 495.416 1297.2 495.525C1297.26 495.631 1297.35 495.713 1297.46 495.771C1297.57 495.827 1297.71 495.855 1297.86 495.855C1298.02 495.855 1298.15 495.827 1298.26 495.771C1298.37 495.713 1298.46 495.631 1298.52 495.525C1298.58 495.416 1298.61 495.286 1298.61 495.135ZM1299.02 493.296C1299.02 493.488 1298.97 493.66 1298.87 493.814C1298.77 493.967 1298.63 494.088 1298.46 494.176C1298.28 494.265 1298.08 494.309 1297.86 494.309C1297.64 494.309 1297.44 494.265 1297.26 494.176C1297.08 494.088 1296.95 493.967 1296.85 493.814C1296.75 493.66 1296.7 493.488 1296.7 493.296C1296.7 493.067 1296.75 492.872 1296.85 492.712C1296.95 492.551 1297.09 492.428 1297.26 492.343C1297.44 492.259 1297.64 492.216 1297.86 492.216C1298.08 492.216 1298.29 492.259 1298.46 492.343C1298.64 492.428 1298.77 492.551 1298.87 492.712C1298.97 492.872 1299.02 493.067 1299.02 493.296ZM1298.52 493.305C1298.52 493.173 1298.49 493.056 1298.44 492.955C1298.38 492.854 1298.31 492.775 1298.21 492.717C1298.11 492.657 1297.99 492.628 1297.86 492.628C1297.73 492.628 1297.61 492.656 1297.51 492.712C1297.42 492.766 1297.34 492.843 1297.28 492.944C1297.23 493.046 1297.2 493.166 1297.2 493.305C1297.2 493.44 1297.23 493.558 1297.28 493.659C1297.34 493.76 1297.42 493.839 1297.52 493.895C1297.61 493.951 1297.73 493.979 1297.86 493.979C1297.99 493.979 1298.11 493.951 1298.21 493.895C1298.31 493.839 1298.38 493.76 1298.44 493.659C1298.49 493.558 1298.52 493.44 1298.52 493.305ZM1300.48 493.995H1300.84C1301.01 493.995 1301.16 493.966 1301.27 493.908C1301.39 493.849 1301.47 493.768 1301.53 493.667C1301.59 493.564 1301.61 493.449 1301.61 493.321C1301.61 493.169 1301.59 493.042 1301.54 492.939C1301.49 492.836 1301.41 492.759 1301.31 492.706C1301.21 492.654 1301.08 492.628 1300.93 492.628C1300.79 492.628 1300.66 492.656 1300.55 492.712C1300.45 492.766 1300.36 492.843 1300.3 492.944C1300.24 493.046 1300.21 493.165 1300.21 493.302H1299.71C1299.71 493.102 1299.76 492.919 1299.86 492.755C1299.96 492.591 1300.11 492.46 1300.29 492.362C1300.47 492.265 1300.68 492.216 1300.93 492.216C1301.17 492.216 1301.37 492.259 1301.55 492.343C1301.73 492.426 1301.87 492.551 1301.97 492.717C1302.07 492.881 1302.12 493.086 1302.12 493.332C1302.12 493.431 1302.09 493.537 1302.05 493.651C1302 493.763 1301.93 493.868 1301.83 493.965C1301.74 494.063 1301.61 494.143 1301.46 494.206C1301.31 494.268 1301.12 494.298 1300.91 494.298H1300.48V493.995ZM1300.48 494.407V494.106H1300.91C1301.16 494.106 1301.37 494.136 1301.53 494.195C1301.69 494.255 1301.82 494.334 1301.92 494.434C1302.01 494.533 1302.08 494.642 1302.12 494.761C1302.16 494.879 1302.18 494.996 1302.18 495.113C1302.18 495.297 1302.15 495.461 1302.08 495.603C1302.02 495.746 1301.93 495.867 1301.82 495.966C1301.71 496.065 1301.58 496.14 1301.42 496.191C1301.27 496.241 1301.11 496.267 1300.93 496.267C1300.76 496.267 1300.6 496.242 1300.44 496.193C1300.3 496.145 1300.16 496.074 1300.05 495.982C1299.93 495.888 1299.84 495.774 1299.78 495.638C1299.71 495.501 1299.68 495.345 1299.68 495.17H1300.18C1300.18 495.307 1300.21 495.427 1300.27 495.53C1300.33 495.633 1300.42 495.713 1300.53 495.771C1300.64 495.827 1300.78 495.855 1300.93 495.855C1301.08 495.855 1301.21 495.829 1301.32 495.776C1301.44 495.722 1301.52 495.641 1301.58 495.533C1301.64 495.425 1301.67 495.288 1301.67 495.124C1301.67 494.96 1301.64 494.825 1301.57 494.721C1301.5 494.614 1301.41 494.536 1301.28 494.485C1301.15 494.433 1301.01 494.407 1300.84 494.407H1300.48ZM1302.93 495.947C1302.93 495.862 1302.96 495.791 1303.01 495.733C1303.06 495.674 1303.14 495.644 1303.24 495.644C1303.34 495.644 1303.42 495.674 1303.47 495.733C1303.53 495.791 1303.55 495.862 1303.55 495.947C1303.55 496.03 1303.53 496.1 1303.47 496.158C1303.42 496.216 1303.34 496.245 1303.24 496.245C1303.14 496.245 1303.06 496.216 1303.01 496.158C1302.96 496.1 1302.93 496.03 1302.93 495.947ZM1306.88 492.27V492.552L1305.25 496.212H1304.72L1306.35 492.682H1304.21V492.27H1306.88ZM1307.95 495.793H1308C1308.29 495.793 1308.52 495.752 1308.7 495.671C1308.88 495.59 1309.02 495.48 1309.12 495.343C1309.22 495.206 1309.28 495.052 1309.32 494.88C1309.36 494.707 1309.37 494.529 1309.37 494.347V493.743C1309.37 493.564 1309.35 493.406 1309.31 493.267C1309.27 493.128 1309.22 493.011 1309.14 492.917C1309.07 492.824 1308.99 492.752 1308.9 492.704C1308.81 492.655 1308.72 492.63 1308.62 492.63C1308.5 492.63 1308.4 492.654 1308.3 492.701C1308.21 492.746 1308.14 492.81 1308.07 492.893C1308.01 492.976 1307.97 493.074 1307.93 493.185C1307.9 493.297 1307.88 493.419 1307.88 493.551C1307.88 493.668 1307.9 493.782 1307.93 493.892C1307.96 494.002 1308 494.101 1308.06 494.19C1308.12 494.278 1308.19 494.349 1308.28 494.401C1308.37 494.452 1308.48 494.477 1308.6 494.477C1308.71 494.477 1308.82 494.455 1308.91 494.412C1309.01 494.367 1309.1 494.306 1309.18 494.231C1309.25 494.153 1309.32 494.065 1309.36 493.968C1309.41 493.87 1309.43 493.768 1309.44 493.662H1309.68C1309.68 493.812 1309.65 493.96 1309.59 494.106C1309.53 494.25 1309.45 494.382 1309.35 494.501C1309.24 494.62 1309.12 494.716 1308.98 494.788C1308.84 494.859 1308.68 494.894 1308.52 494.894C1308.32 494.894 1308.15 494.856 1308.01 494.78C1307.87 494.704 1307.75 494.603 1307.66 494.477C1307.57 494.351 1307.5 494.21 1307.46 494.055C1307.41 493.898 1307.39 493.739 1307.39 493.578C1307.39 493.39 1307.42 493.214 1307.47 493.05C1307.52 492.886 1307.6 492.741 1307.7 492.617C1307.81 492.491 1307.93 492.392 1308.09 492.322C1308.24 492.251 1308.42 492.216 1308.62 492.216C1308.84 492.216 1309.03 492.261 1309.19 492.352C1309.35 492.442 1309.48 492.563 1309.58 492.714C1309.68 492.866 1309.75 493.037 1309.8 493.226C1309.85 493.416 1309.87 493.611 1309.87 493.811V493.992C1309.87 494.196 1309.86 494.404 1309.83 494.615C1309.81 494.824 1309.76 495.025 1309.68 495.216C1309.61 495.407 1309.5 495.579 1309.37 495.73C1309.23 495.88 1309.05 495.999 1308.82 496.088C1308.6 496.174 1308.33 496.218 1308 496.218H1307.95V495.793ZM1313.05 495.146C1313.05 495.386 1313 495.59 1312.89 495.758C1312.78 495.924 1312.63 496.05 1312.44 496.137C1312.25 496.223 1312.04 496.267 1311.8 496.267C1311.56 496.267 1311.35 496.223 1311.16 496.137C1310.97 496.05 1310.82 495.924 1310.71 495.758C1310.6 495.59 1310.55 495.386 1310.55 495.146C1310.55 494.989 1310.58 494.845 1310.64 494.715C1310.7 494.583 1310.78 494.469 1310.89 494.371C1311 494.274 1311.14 494.199 1311.29 494.147C1311.44 494.092 1311.61 494.065 1311.79 494.065C1312.04 494.065 1312.25 494.112 1312.44 494.206C1312.63 494.298 1312.78 494.425 1312.89 494.588C1313 494.75 1313.05 494.936 1313.05 495.146ZM1312.55 495.135C1312.55 494.989 1312.52 494.86 1312.46 494.748C1312.39 494.634 1312.3 494.545 1312.19 494.482C1312.08 494.419 1311.94 494.388 1311.79 494.388C1311.64 494.388 1311.51 494.419 1311.4 494.482C1311.29 494.545 1311.2 494.634 1311.14 494.748C1311.08 494.86 1311.05 494.989 1311.05 495.135C1311.05 495.286 1311.08 495.416 1311.14 495.525C1311.2 495.631 1311.28 495.713 1311.4 495.771C1311.51 495.827 1311.64 495.855 1311.8 495.855C1311.96 495.855 1312.09 495.827 1312.2 495.771C1312.31 495.713 1312.4 495.631 1312.46 495.525C1312.52 495.416 1312.55 495.286 1312.55 495.135ZM1312.96 493.296C1312.96 493.488 1312.91 493.66 1312.81 493.814C1312.71 493.967 1312.57 494.088 1312.4 494.176C1312.22 494.265 1312.02 494.309 1311.8 494.309C1311.57 494.309 1311.37 494.265 1311.2 494.176C1311.02 494.088 1310.88 493.967 1310.78 493.814C1310.69 493.66 1310.64 493.488 1310.64 493.296C1310.64 493.067 1310.69 492.872 1310.78 492.712C1310.89 492.551 1311.02 492.428 1311.2 492.343C1311.37 492.259 1311.57 492.216 1311.8 492.216C1312.02 492.216 1312.22 492.259 1312.4 492.343C1312.57 492.428 1312.71 492.551 1312.81 492.712C1312.91 492.872 1312.96 493.067 1312.96 493.296ZM1312.46 493.305C1312.46 493.173 1312.43 493.056 1312.38 492.955C1312.32 492.854 1312.24 492.775 1312.14 492.717C1312.04 492.657 1311.93 492.628 1311.8 492.628C1311.67 492.628 1311.55 492.656 1311.45 492.712C1311.35 492.766 1311.28 492.843 1311.22 492.944C1311.17 493.046 1311.14 493.166 1311.14 493.305C1311.14 493.44 1311.17 493.558 1311.22 493.659C1311.28 493.76 1311.35 493.839 1311.45 493.895C1311.55 493.951 1311.67 493.979 1311.8 493.979C1311.93 493.979 1312.05 493.951 1312.14 493.895C1312.24 493.839 1312.32 493.76 1312.38 493.659C1312.43 493.558 1312.46 493.44 1312.46 493.305Z" fill="#5A3EE3"/>
<rect x="1274.33" y="511.313" width="60.9937" height="60.9937" rx="4.15866" fill="#DFFF2F"/>
<path d="M1280.25 520.33L1279.16 520.069L1279.55 516.573H1283.43V517.677H1280.68L1280.51 519.207C1280.6 519.153 1280.74 519.097 1280.92 519.037C1281.11 518.973 1281.32 518.942 1281.55 518.942C1281.88 518.942 1282.18 518.994 1282.44 519.098C1282.7 519.202 1282.92 519.354 1283.1 519.553C1283.28 519.752 1283.42 519.995 1283.52 520.283C1283.61 520.57 1283.66 520.895 1283.66 521.259C1283.66 521.565 1283.61 521.857 1283.52 522.135C1283.42 522.41 1283.28 522.656 1283.08 522.874C1282.89 523.089 1282.65 523.258 1282.36 523.381C1282.07 523.505 1281.72 523.566 1281.33 523.566C1281.03 523.566 1280.74 523.522 1280.46 523.434C1280.19 523.345 1279.94 523.214 1279.72 523.04C1279.5 522.867 1279.33 522.656 1279.19 522.41C1279.06 522.161 1279 521.876 1278.99 521.557H1280.35C1280.36 521.753 1280.41 521.922 1280.5 522.064C1280.58 522.203 1280.69 522.311 1280.83 522.386C1280.97 522.462 1281.13 522.5 1281.32 522.5C1281.5 522.5 1281.64 522.467 1281.77 522.401C1281.89 522.334 1281.99 522.243 1282.07 522.126C1282.14 522.006 1282.2 521.867 1282.23 521.709C1282.27 521.548 1282.29 521.374 1282.29 521.188C1282.29 521.001 1282.27 520.832 1282.22 520.681C1282.18 520.529 1282.11 520.398 1282.02 520.287C1281.93 520.177 1281.81 520.092 1281.67 520.032C1281.53 519.972 1281.37 519.942 1281.18 519.942C1280.93 519.942 1280.73 519.981 1280.59 520.06C1280.46 520.139 1280.34 520.229 1280.25 520.33ZM1289.37 520.894V521.965H1284.4L1284.33 521.136L1287.21 516.573H1288.3L1287.12 518.539L1285.69 520.894H1289.37ZM1288.59 516.573V523.471H1287.22V516.573H1288.59Z" fill="#5A3EE3"/>
<path d="M1296.83 530.457L1299.76 535.489L1302.69 530.457H1305.43L1301.26 537.289L1305.53 544.254H1302.77L1299.76 539.128L1296.76 544.254H1293.98L1298.26 537.289L1294.08 530.457H1296.83ZM1311.33 544.444C1310.57 544.444 1309.89 544.321 1309.28 544.074C1308.67 543.822 1308.15 543.471 1307.72 543.022C1307.3 542.574 1306.97 542.046 1306.75 541.44C1306.52 540.833 1306.4 540.18 1306.4 539.478V539.099C1306.4 538.297 1306.52 537.57 1306.75 536.92C1306.99 536.269 1307.31 535.713 1307.73 535.252C1308.15 534.784 1308.64 534.428 1309.21 534.181C1309.78 533.935 1310.39 533.812 1311.06 533.812C1311.79 533.812 1312.43 533.935 1312.98 534.181C1313.53 534.428 1313.98 534.775 1314.34 535.224C1314.71 535.666 1314.98 536.193 1315.16 536.806C1315.34 537.419 1315.43 538.095 1315.43 538.834V539.81H1307.51V538.171H1313.18V537.991C1313.17 537.58 1313.08 537.195 1312.93 536.834C1312.79 536.474 1312.56 536.184 1312.26 535.963C1311.96 535.742 1311.55 535.631 1311.05 535.631C1310.67 535.631 1310.33 535.713 1310.03 535.877C1309.74 536.035 1309.5 536.266 1309.3 536.569C1309.11 536.872 1308.96 537.239 1308.85 537.668C1308.75 538.092 1308.7 538.569 1308.7 539.099V539.478C1308.7 539.927 1308.76 540.344 1308.88 540.729C1309 541.108 1309.19 541.44 1309.43 541.724C1309.67 542.008 1309.96 542.233 1310.3 542.397C1310.64 542.555 1311.03 542.634 1311.46 542.634C1312.01 542.634 1312.5 542.523 1312.93 542.302C1313.36 542.081 1313.74 541.768 1314.05 541.364L1315.25 542.53C1315.03 542.852 1314.75 543.161 1314.39 543.458C1314.04 543.749 1313.61 543.986 1313.09 544.169C1312.59 544.352 1312 544.444 1311.33 544.444Z" fill="#5A3EE3"/>
<path d="M1295.17 550.32L1296.48 552.398L1297.78 550.32H1298.62L1296.91 553.004L1298.66 555.741H1297.81L1296.48 553.622L1295.14 555.741H1294.3L1296.05 553.004L1294.34 550.32H1295.17ZM1300.96 555.815C1300.68 555.815 1300.42 555.768 1300.2 555.674C1299.97 555.577 1299.78 555.442 1299.61 555.268C1299.45 555.094 1299.33 554.888 1299.24 554.65C1299.15 554.412 1299.11 554.151 1299.11 553.868V553.712C1299.11 553.384 1299.16 553.093 1299.25 552.837C1299.35 552.579 1299.48 552.36 1299.65 552.182C1299.82 552.003 1300 551.868 1300.21 551.776C1300.43 551.684 1300.64 551.638 1300.87 551.638C1301.16 551.638 1301.41 551.688 1301.61 551.787C1301.83 551.886 1302 552.025 1302.13 552.204C1302.27 552.38 1302.37 552.589 1302.43 552.829C1302.49 553.068 1302.53 553.328 1302.53 553.611V553.92H1299.52V553.358H1301.84V553.306C1301.83 553.127 1301.79 552.954 1301.73 552.785C1301.66 552.616 1301.56 552.477 1301.43 552.368C1301.29 552.259 1301.11 552.204 1300.87 552.204C1300.71 552.204 1300.57 552.238 1300.44 552.305C1300.31 552.369 1300.19 552.466 1300.1 552.595C1300 552.724 1299.93 552.882 1299.88 553.068C1299.83 553.254 1299.8 553.469 1299.8 553.712V553.868C1299.8 554.059 1299.83 554.239 1299.88 554.408C1299.93 554.574 1300.01 554.721 1300.11 554.847C1300.22 554.974 1300.34 555.073 1300.49 555.145C1300.64 555.217 1300.81 555.253 1301 555.253C1301.24 555.253 1301.45 555.203 1301.61 555.104C1301.78 555.005 1301.93 554.872 1302.06 554.706L1302.47 555.037C1302.39 555.169 1302.28 555.294 1302.14 555.413C1302.01 555.532 1301.84 555.629 1301.65 555.703C1301.45 555.778 1301.22 555.815 1300.96 555.815ZM1304.02 552.573V555.741H1303.33V551.713H1303.98L1304.02 552.573ZM1303.86 553.574L1303.57 553.563C1303.57 553.287 1303.61 553.033 1303.69 552.8C1303.77 552.564 1303.88 552.359 1304.03 552.185C1304.17 552.012 1304.34 551.878 1304.54 551.783C1304.74 551.687 1304.96 551.638 1305.21 551.638C1305.41 551.638 1305.58 551.665 1305.74 551.72C1305.9 551.772 1306.04 551.857 1306.15 551.973C1306.26 552.09 1306.35 552.241 1306.41 552.427C1306.47 552.611 1306.5 552.836 1306.5 553.101V555.741H1305.81V553.094C1305.81 552.883 1305.78 552.714 1305.71 552.588C1305.65 552.458 1305.56 552.365 1305.44 552.308C1305.32 552.249 1305.18 552.219 1305 552.219C1304.83 552.219 1304.67 552.255 1304.53 552.327C1304.39 552.399 1304.27 552.498 1304.17 552.625C1304.07 552.751 1303.99 552.896 1303.94 553.06C1303.88 553.222 1303.86 553.393 1303.86 553.574ZM1307.36 553.771V553.686C1307.36 553.395 1307.4 553.126 1307.49 552.878C1307.57 552.627 1307.69 552.41 1307.85 552.226C1308.01 552.04 1308.2 551.896 1308.43 551.795C1308.66 551.69 1308.91 551.638 1309.19 551.638C1309.47 551.638 1309.73 551.69 1309.95 551.795C1310.18 551.896 1310.38 552.04 1310.53 552.226C1310.7 552.41 1310.82 552.627 1310.9 552.878C1310.99 553.126 1311.03 553.395 1311.03 553.686V553.771C1311.03 554.062 1310.99 554.331 1310.9 554.579C1310.82 554.827 1310.7 555.045 1310.53 555.231C1310.38 555.414 1310.18 555.558 1309.96 555.662C1309.73 555.764 1309.48 555.815 1309.2 555.815C1308.91 555.815 1308.66 555.764 1308.43 555.662C1308.21 555.558 1308.02 555.414 1307.85 555.231C1307.69 555.045 1307.57 554.827 1307.49 554.579C1307.4 554.331 1307.36 554.062 1307.36 553.771ZM1308.05 553.686V553.771C1308.05 553.972 1308.07 554.162 1308.12 554.341C1308.17 554.517 1308.24 554.673 1308.33 554.81C1308.43 554.946 1308.55 555.054 1308.7 555.134C1308.84 555.211 1309.01 555.249 1309.2 555.249C1309.39 555.249 1309.55 555.211 1309.69 555.134C1309.84 555.054 1309.96 554.946 1310.05 554.81C1310.14 554.673 1310.22 554.517 1310.26 554.341C1310.31 554.162 1310.34 553.972 1310.34 553.771V553.686C1310.34 553.487 1310.31 553.3 1310.26 553.124C1310.22 552.945 1310.14 552.787 1310.05 552.651C1309.95 552.512 1309.83 552.403 1309.69 552.323C1309.55 552.244 1309.38 552.204 1309.19 552.204C1309 552.204 1308.84 552.244 1308.69 552.323C1308.55 552.403 1308.43 552.512 1308.33 552.651C1308.24 552.787 1308.17 552.945 1308.12 553.124C1308.07 553.3 1308.05 553.487 1308.05 553.686ZM1312.58 552.573V555.741H1311.89V551.713H1312.54L1312.58 552.573ZM1312.42 553.574L1312.13 553.563C1312.13 553.287 1312.17 553.033 1312.25 552.8C1312.33 552.564 1312.45 552.359 1312.59 552.185C1312.73 552.012 1312.9 551.878 1313.1 551.783C1313.3 551.687 1313.53 551.638 1313.77 551.638C1313.97 551.638 1314.15 551.665 1314.31 551.72C1314.46 551.772 1314.6 551.857 1314.71 551.973C1314.83 552.09 1314.91 552.241 1314.97 552.427C1315.03 552.611 1315.06 552.836 1315.06 553.101V555.741H1314.37V553.094C1314.37 552.883 1314.34 552.714 1314.28 552.588C1314.21 552.458 1314.12 552.365 1314 552.308C1313.88 552.249 1313.74 552.219 1313.56 552.219C1313.39 552.219 1313.24 552.255 1313.1 552.327C1312.96 552.399 1312.84 552.498 1312.73 552.625C1312.64 552.751 1312.56 552.896 1312.5 553.06C1312.45 553.222 1312.42 553.393 1312.42 553.574Z" fill="#5A3EE3"/>
<path d="M1298.28 562.253V566.217H1297.78V562.878L1296.77 563.247V562.794L1298.2 562.253H1298.28ZM1300.48 563.999H1300.84C1301.01 563.999 1301.16 563.97 1301.27 563.913C1301.39 563.853 1301.47 563.773 1301.53 563.672C1301.59 563.569 1301.61 563.453 1301.61 563.325C1301.61 563.173 1301.59 563.046 1301.54 562.943C1301.49 562.84 1301.41 562.763 1301.31 562.71C1301.21 562.658 1301.08 562.632 1300.93 562.632C1300.79 562.632 1300.66 562.66 1300.55 562.716C1300.45 562.77 1300.36 562.848 1300.3 562.949C1300.24 563.05 1300.21 563.169 1300.21 563.306H1299.71C1299.71 563.106 1299.76 562.923 1299.86 562.759C1299.96 562.595 1300.11 562.464 1300.29 562.367C1300.47 562.269 1300.68 562.22 1300.93 562.22C1301.17 562.22 1301.37 562.263 1301.55 562.348C1301.73 562.431 1301.87 562.555 1301.97 562.721C1302.07 562.886 1302.12 563.09 1302.12 563.336C1302.12 563.435 1302.09 563.542 1302.05 563.655C1302 563.767 1301.93 563.872 1301.83 563.969C1301.74 564.067 1301.61 564.147 1301.46 564.21C1301.31 564.272 1301.12 564.302 1300.91 564.302H1300.48V563.999ZM1300.48 564.411V564.11H1300.91C1301.16 564.11 1301.37 564.14 1301.53 564.2C1301.69 564.259 1301.82 564.339 1301.92 564.438C1302.01 564.537 1302.08 564.646 1302.12 564.765C1302.16 564.883 1302.18 565 1302.18 565.117C1302.18 565.302 1302.15 565.465 1302.08 565.607C1302.02 565.75 1301.93 565.871 1301.82 565.97C1301.71 566.07 1301.58 566.144 1301.42 566.195C1301.27 566.246 1301.11 566.271 1300.93 566.271C1300.76 566.271 1300.6 566.246 1300.44 566.198C1300.3 566.149 1300.16 566.079 1300.05 565.987C1299.93 565.893 1299.84 565.778 1299.78 565.643C1299.71 565.505 1299.68 565.349 1299.68 565.174H1300.18C1300.18 565.311 1300.21 565.431 1300.27 565.534C1300.33 565.637 1300.42 565.718 1300.53 565.775C1300.64 565.831 1300.78 565.859 1300.93 565.859C1301.08 565.859 1301.21 565.833 1301.32 565.781C1301.44 565.727 1301.52 565.645 1301.58 565.537C1301.64 565.429 1301.67 565.293 1301.67 565.128C1301.67 564.964 1301.64 564.83 1301.57 564.725C1301.5 564.618 1301.41 564.54 1301.28 564.489C1301.15 564.437 1301.01 564.411 1300.84 564.411H1300.48ZM1304.51 562.253V566.217H1304.01V562.878L1303 563.247V562.794L1304.44 562.253H1304.51ZM1306.05 565.951C1306.05 565.866 1306.08 565.795 1306.13 565.737C1306.18 565.678 1306.26 565.648 1306.36 565.648C1306.46 565.648 1306.54 565.678 1306.59 565.737C1306.64 565.795 1306.67 565.866 1306.67 565.951C1306.67 566.034 1306.64 566.105 1306.59 566.163C1306.54 566.22 1306.46 566.249 1306.36 566.249C1306.26 566.249 1306.18 566.22 1306.13 566.163C1306.08 566.105 1306.05 566.034 1306.05 565.951ZM1310.03 565.805V566.217H1307.45V565.857L1308.74 564.419C1308.9 564.242 1309.02 564.092 1309.11 563.969C1309.2 563.845 1309.26 563.734 1309.3 563.636C1309.33 563.537 1309.35 563.436 1309.35 563.333C1309.35 563.203 1309.32 563.086 1309.27 562.981C1309.22 562.875 1309.14 562.79 1309.04 562.727C1308.93 562.664 1308.81 562.632 1308.66 562.632C1308.49 562.632 1308.34 562.666 1308.22 562.735C1308.11 562.802 1308.02 562.896 1307.96 563.016C1307.91 563.137 1307.88 563.276 1307.88 563.433H1307.38C1307.38 563.211 1307.42 563.008 1307.52 562.824C1307.62 562.64 1307.76 562.494 1307.96 562.386C1308.15 562.275 1308.38 562.22 1308.66 562.22C1308.91 562.22 1309.12 562.265 1309.3 562.353C1309.48 562.44 1309.61 562.562 1309.71 562.721C1309.8 562.878 1309.85 563.062 1309.85 563.274C1309.85 563.389 1309.83 563.506 1309.79 563.626C1309.75 563.743 1309.7 563.86 1309.63 563.978C1309.56 564.095 1309.49 564.21 1309.4 564.324C1309.31 564.438 1309.21 564.55 1309.11 564.66L1308.06 565.805H1310.03ZM1311.07 565.797H1311.12C1311.41 565.797 1311.64 565.756 1311.82 565.675C1312 565.594 1312.14 565.485 1312.24 565.348C1312.34 565.21 1312.4 565.056 1312.44 564.885C1312.48 564.711 1312.49 564.534 1312.49 564.351V563.747C1312.49 563.569 1312.47 563.41 1312.43 563.271C1312.39 563.132 1312.34 563.016 1312.26 562.922C1312.19 562.828 1312.11 562.757 1312.02 562.708C1311.93 562.659 1311.84 562.635 1311.73 562.635C1311.62 562.635 1311.52 562.658 1311.42 562.705C1311.33 562.75 1311.26 562.814 1311.19 562.897C1311.13 562.98 1311.09 563.078 1311.05 563.19C1311.02 563.302 1311 563.423 1311 563.555C1311 563.673 1311.02 563.786 1311.05 563.896C1311.08 564.006 1311.12 564.106 1311.18 564.194C1311.24 564.283 1311.31 564.353 1311.4 564.405C1311.49 564.456 1311.6 564.481 1311.72 564.481C1311.83 564.481 1311.94 564.46 1312.03 564.416C1312.13 564.371 1312.22 564.311 1312.3 564.235C1312.37 564.157 1312.43 564.07 1312.48 563.972C1312.53 563.875 1312.55 563.773 1312.56 563.666H1312.8C1312.8 563.816 1312.77 563.964 1312.71 564.11C1312.65 564.255 1312.57 564.386 1312.47 564.506C1312.36 564.625 1312.24 564.72 1312.1 564.793C1311.96 564.863 1311.8 564.898 1311.64 564.898C1311.44 564.898 1311.27 564.86 1311.13 564.784C1310.99 564.709 1310.87 564.608 1310.78 564.481C1310.69 564.355 1310.62 564.214 1310.58 564.059C1310.53 563.902 1310.51 563.743 1310.51 563.582C1310.51 563.395 1310.54 563.219 1310.59 563.054C1310.64 562.89 1310.72 562.746 1310.82 562.621C1310.93 562.495 1311.05 562.396 1311.2 562.326C1311.36 562.256 1311.53 562.22 1311.73 562.22C1311.96 562.22 1312.15 562.266 1312.31 562.356C1312.47 562.446 1312.6 562.567 1312.7 562.719C1312.8 562.87 1312.87 563.041 1312.92 563.23C1312.97 563.42 1312.99 563.615 1312.99 563.815V563.997C1312.99 564.201 1312.98 564.408 1312.95 564.619C1312.93 564.829 1312.88 565.029 1312.8 565.22C1312.73 565.412 1312.62 565.583 1312.48 565.735C1312.35 565.885 1312.16 566.004 1311.94 566.092C1311.72 566.179 1311.44 566.222 1311.12 566.222H1311.07V565.797Z" fill="#5A3EE3"/>
<rect x="608.949" y="511.313" width="60.9937" height="60.9937" rx="4.15866" fill="#DFFF2F"/>
<path d="M618.415 520.894V521.965H613.444L613.378 521.136L616.254 516.573H617.339L616.164 518.539L614.733 520.894H618.415ZM617.633 516.573V523.471H616.268V516.573H617.633ZM623.986 520.894V521.965H619.016L618.95 521.136L621.826 516.573H622.911L621.736 518.539L620.305 520.894H623.986ZM623.205 516.573V523.471H621.84V516.573H623.205Z" fill="#5A3EE3"/>
<path d="M629.335 530.457H634.215C635.264 530.457 636.158 530.615 636.897 530.931C637.636 531.247 638.202 531.714 638.593 532.333C638.991 532.946 639.19 533.704 639.19 534.608C639.19 535.296 639.064 535.903 638.811 536.427C638.559 536.951 638.202 537.394 637.74 537.754C637.279 538.107 636.73 538.382 636.092 538.578L635.371 538.929H630.984L630.965 537.043H634.253C634.822 537.043 635.296 536.942 635.675 536.74C636.054 536.538 636.338 536.263 636.527 535.915C636.723 535.562 636.821 535.164 636.821 534.721C636.821 534.241 636.726 533.824 636.537 533.47C636.354 533.11 636.069 532.836 635.684 532.646C635.299 532.45 634.809 532.352 634.215 532.352H631.714V544.254H629.335V530.457ZM637.21 544.254L633.969 538.057L636.461 538.047L639.749 544.131V544.254H637.21ZM647.501 541.838V534.001H649.794V544.254H647.633L647.501 541.838ZM647.823 539.706L648.591 539.687C648.591 540.375 648.515 541.01 648.363 541.592C648.212 542.166 647.978 542.669 647.662 543.098C647.346 543.521 646.942 543.853 646.449 544.093C645.956 544.327 645.366 544.444 644.677 544.444C644.178 544.444 643.72 544.371 643.303 544.226C642.886 544.081 642.526 543.856 642.223 543.553C641.926 543.25 641.695 542.855 641.531 542.369C641.367 541.882 641.284 541.301 641.284 540.625V534.001H643.568V540.644C643.568 541.017 643.612 541.329 643.701 541.582C643.789 541.828 643.909 542.027 644.061 542.179C644.213 542.331 644.389 542.438 644.592 542.501C644.794 542.564 645.009 542.596 645.236 542.596C645.887 542.596 646.398 542.47 646.771 542.217C647.15 541.958 647.419 541.61 647.577 541.175C647.741 540.739 647.823 540.249 647.823 539.706Z" fill="#5A3EE3"/>
<path d="M621.774 550.32H623.569C623.976 550.32 624.319 550.382 624.6 550.507C624.883 550.631 625.097 550.814 625.244 551.057C625.393 551.298 625.467 551.595 625.467 551.947C625.467 552.195 625.416 552.422 625.315 552.628C625.215 552.832 625.071 553.006 624.883 553.15C624.697 553.291 624.473 553.397 624.213 553.466L624.012 553.544H622.325L622.318 552.96H623.591C623.849 552.96 624.064 552.915 624.235 552.826C624.406 552.734 624.535 552.611 624.622 552.457C624.709 552.303 624.752 552.133 624.752 551.947C624.752 551.739 624.711 551.556 624.63 551.4C624.548 551.244 624.419 551.123 624.242 551.039C624.069 550.952 623.844 550.909 623.569 550.909H622.493V555.741H621.774V550.32ZM624.942 555.741L623.624 553.284L624.373 553.28L625.709 555.696V555.741H624.942ZM628.833 554.81V551.713H629.525V555.741H628.866L628.833 554.81ZM628.963 553.961L629.249 553.954C629.249 554.222 629.221 554.47 629.164 554.698C629.109 554.924 629.02 555.12 628.896 555.287C628.772 555.453 628.609 555.583 628.408 555.677C628.207 555.769 627.963 555.815 627.675 555.815C627.479 555.815 627.299 555.787 627.135 555.73C626.974 555.672 626.835 555.584 626.718 555.465C626.601 555.346 626.511 555.191 626.446 555C626.384 554.809 626.353 554.579 626.353 554.311V551.713H627.042V554.319C627.042 554.5 627.062 554.65 627.101 554.769C627.144 554.886 627.199 554.979 627.269 555.048C627.341 555.115 627.42 555.162 627.507 555.19C627.597 555.217 627.688 555.231 627.783 555.231C628.076 555.231 628.308 555.175 628.479 555.063C628.65 554.949 628.773 554.796 628.847 554.605C628.924 554.412 628.963 554.197 628.963 553.961ZM632.261 551.713V552.241H630.083V551.713H632.261ZM630.82 550.734H631.509V554.743C631.509 554.88 631.53 554.983 631.572 555.052C631.615 555.121 631.669 555.167 631.736 555.19C631.803 555.212 631.875 555.223 631.952 555.223C632.009 555.223 632.069 555.218 632.131 555.208C632.195 555.196 632.244 555.186 632.276 555.179L632.28 555.741C632.225 555.758 632.153 555.774 632.064 555.789C631.977 555.806 631.872 555.815 631.747 555.815C631.579 555.815 631.424 555.782 631.282 555.715C631.141 555.648 631.028 555.536 630.943 555.38C630.861 555.221 630.82 555.007 630.82 554.739V550.734ZM633.758 550.023V555.741H633.069V550.023H633.758ZM633.594 553.574L633.307 553.563C633.31 553.287 633.351 553.033 633.43 552.8C633.51 552.564 633.621 552.359 633.765 552.185C633.909 552.012 634.08 551.878 634.279 551.783C634.48 551.687 634.702 551.638 634.945 551.638C635.144 551.638 635.323 551.666 635.481 551.72C635.64 551.772 635.775 551.857 635.887 551.973C636.001 552.09 636.088 552.241 636.148 552.427C636.207 552.611 636.237 552.836 636.237 553.101V555.741H635.545V553.094C635.545 552.883 635.514 552.714 635.452 552.588C635.39 552.458 635.299 552.365 635.18 552.308C635.061 552.249 634.914 552.219 634.741 552.219C634.569 552.219 634.413 552.255 634.271 552.327C634.132 552.399 634.012 552.498 633.91 552.625C633.811 552.751 633.733 552.897 633.676 553.06C633.621 553.222 633.594 553.393 633.594 553.574ZM638.94 555.815C638.659 555.815 638.405 555.768 638.177 555.674C637.951 555.577 637.756 555.442 637.592 555.268C637.431 555.094 637.307 554.888 637.22 554.65C637.133 554.412 637.09 554.151 637.09 553.868V553.712C637.09 553.384 637.138 553.093 637.235 552.837C637.332 552.579 637.463 552.36 637.629 552.182C637.796 552.003 637.984 551.868 638.195 551.776C638.406 551.684 638.625 551.638 638.85 551.638C639.138 551.638 639.387 551.688 639.595 551.787C639.806 551.886 639.978 552.025 640.112 552.204C640.246 552.38 640.346 552.589 640.41 552.83C640.475 553.068 640.507 553.328 640.507 553.611V553.92H637.499V553.358H639.818V553.306C639.808 553.127 639.771 552.954 639.707 552.785C639.645 552.616 639.545 552.477 639.409 552.368C639.272 552.259 639.086 552.204 638.85 552.204C638.694 552.204 638.55 552.238 638.419 552.305C638.287 552.369 638.174 552.466 638.08 552.595C637.986 552.724 637.912 552.882 637.86 553.068C637.808 553.254 637.782 553.469 637.782 553.712V553.868C637.782 554.059 637.808 554.239 637.86 554.408C637.915 554.574 637.993 554.721 638.095 554.847C638.199 554.974 638.324 555.073 638.471 555.145C638.62 555.217 638.788 555.253 638.977 555.253C639.22 555.253 639.426 555.203 639.595 555.104C639.764 555.005 639.911 554.872 640.038 554.706L640.455 555.037C640.368 555.169 640.258 555.294 640.124 555.413C639.99 555.532 639.825 555.629 639.629 555.703C639.435 555.778 639.205 555.815 638.94 555.815ZM642 552.573V555.741H641.311V551.713H641.963L642 552.573ZM641.836 553.574L641.549 553.563C641.552 553.287 641.593 553.033 641.672 552.8C641.752 552.564 641.863 552.359 642.007 552.185C642.151 552.012 642.323 551.878 642.521 551.783C642.722 551.687 642.944 551.638 643.187 551.638C643.386 551.638 643.565 551.666 643.724 551.72C643.882 551.772 644.018 551.857 644.129 551.973C644.243 552.09 644.33 552.241 644.39 552.427C644.449 552.611 644.479 552.836 644.479 553.101V555.741H643.787V553.094C643.787 552.883 643.756 552.714 643.694 552.588C643.632 552.458 643.541 552.365 643.422 552.308C643.303 552.249 643.156 552.219 642.983 552.219C642.811 552.219 642.655 552.255 642.514 552.327C642.375 552.399 642.254 552.498 642.153 552.625C642.053 552.751 641.975 552.897 641.918 553.06C641.863 553.222 641.836 553.393 641.836 553.574ZM646.274 551.713V555.741H645.581V551.713H646.274ZM645.529 550.644C645.529 550.533 645.563 550.438 645.63 550.361C645.699 550.284 645.801 550.246 645.935 550.246C646.066 550.246 646.167 550.284 646.236 550.361C646.308 550.438 646.344 550.533 646.344 550.644C646.344 550.751 646.308 550.843 646.236 550.92C646.167 550.994 646.066 551.031 645.935 551.031C645.801 551.031 645.699 550.994 645.63 550.92C645.563 550.843 645.529 550.751 645.529 550.644ZM649.844 554.81V551.713H650.536V555.741H649.877L649.844 554.81ZM649.974 553.961L650.261 553.954C650.261 554.222 650.232 554.47 650.175 554.698C650.12 554.924 650.031 555.12 649.907 555.287C649.783 555.453 649.62 555.583 649.419 555.677C649.218 555.769 648.974 555.815 648.686 555.815C648.49 555.815 648.31 555.787 648.146 555.73C647.985 555.672 647.846 555.584 647.729 555.465C647.613 555.346 647.522 555.191 647.457 555C647.395 554.809 647.364 554.579 647.364 554.311V551.713H648.053V554.319C648.053 554.5 648.073 554.65 648.113 554.769C648.155 554.886 648.211 554.979 648.28 555.048C648.352 555.115 648.432 555.162 648.518 555.19C648.608 555.217 648.7 555.231 648.794 555.231C649.087 555.231 649.319 555.175 649.49 555.063C649.661 554.949 649.784 554.796 649.859 554.605C649.936 554.412 649.974 554.197 649.974 553.961ZM652.271 552.513V555.741H651.579V551.713H652.234L652.271 552.513ZM652.13 553.574L651.809 553.563C651.812 553.287 651.848 553.033 651.917 552.8C651.987 552.564 652.09 552.359 652.226 552.185C652.363 552.012 652.533 551.878 652.736 551.783C652.94 551.687 653.176 551.638 653.444 551.638C653.632 551.638 653.806 551.666 653.965 551.72C654.124 551.772 654.261 551.855 654.378 551.97C654.495 552.084 654.585 552.23 654.65 552.409C654.714 552.588 654.747 552.803 654.747 553.057V555.741H654.058V553.09C654.058 552.879 654.022 552.71 653.95 552.584C653.88 552.457 653.781 552.365 653.652 552.308C653.523 552.249 653.372 552.219 653.198 552.219C652.994 552.219 652.824 552.255 652.688 552.327C652.551 552.399 652.442 552.498 652.36 552.625C652.278 552.751 652.219 552.897 652.182 553.06C652.147 553.222 652.13 553.393 652.13 553.574ZM654.739 553.194L654.278 553.336C654.28 553.115 654.316 552.903 654.386 552.699C654.458 552.496 654.56 552.315 654.695 552.156C654.831 551.997 654.999 551.872 655.197 551.78C655.396 551.685 655.623 551.638 655.878 551.638C656.094 551.638 656.285 551.667 656.452 551.724C656.62 551.781 656.762 551.869 656.876 551.988C656.993 552.105 657.081 552.255 657.14 552.439C657.2 552.622 657.23 552.841 657.23 553.094V555.741H656.537V553.086C656.537 552.861 656.501 552.686 656.429 552.561C656.36 552.435 656.261 552.347 656.132 552.297C656.005 552.245 655.854 552.219 655.677 552.219C655.526 552.219 655.392 552.245 655.275 552.297C655.159 552.349 655.061 552.421 654.981 552.513C654.902 552.602 654.841 552.705 654.799 552.822C654.759 552.939 654.739 553.063 654.739 553.194Z" fill="#5A3EE3"/>
<path d="M632.891 562.253V566.217H632.39V562.878L631.38 563.247V562.794L632.813 562.253H632.891ZM636.839 563.932V564.533C636.839 564.856 636.81 565.128 636.752 565.35C636.694 565.572 636.611 565.751 636.503 565.886C636.395 566.022 636.264 566.12 636.11 566.181C635.959 566.241 635.787 566.271 635.596 566.271C635.444 566.271 635.304 566.252 635.176 566.214C635.048 566.176 634.933 566.116 634.83 566.033C634.729 565.948 634.642 565.838 634.57 565.702C634.498 565.567 634.443 565.403 634.405 565.21C634.367 565.016 634.348 564.791 634.348 564.533V563.932C634.348 563.609 634.377 563.338 634.434 563.119C634.494 562.901 634.578 562.726 634.686 562.594C634.795 562.461 634.924 562.365 635.076 562.307C635.23 562.249 635.401 562.22 635.591 562.22C635.744 562.22 635.885 562.239 636.013 562.277C636.143 562.313 636.258 562.372 636.359 562.453C636.461 562.533 636.546 562.639 636.617 562.773C636.689 562.905 636.744 563.066 636.782 563.257C636.82 563.449 636.839 563.673 636.839 563.932ZM636.335 564.614V563.848C636.335 563.671 636.324 563.516 636.303 563.382C636.283 563.247 636.253 563.131 636.213 563.035C636.174 562.94 636.123 562.862 636.062 562.803C636.002 562.743 635.933 562.7 635.853 562.673C635.776 562.644 635.688 562.629 635.591 562.629C635.471 562.629 635.366 562.652 635.274 562.697C635.182 562.74 635.104 562.81 635.041 562.905C634.98 563.001 634.933 563.127 634.9 563.282C634.868 563.437 634.851 563.626 634.851 563.848V564.614C634.851 564.791 634.861 564.947 634.881 565.082C634.903 565.218 634.934 565.335 634.976 565.434C635.017 565.532 635.068 565.612 635.128 565.675C635.187 565.738 635.256 565.785 635.333 565.816C635.413 565.845 635.5 565.859 635.596 565.859C635.719 565.859 635.826 565.836 635.918 565.789C636.01 565.742 636.087 565.669 636.148 565.57C636.211 565.469 636.258 565.339 636.289 565.182C636.32 565.024 636.335 564.834 636.335 564.614ZM639.129 562.253V566.217H638.628V562.878L637.618 563.247V562.794L639.051 562.253H639.129ZM640.664 565.951C640.664 565.867 640.69 565.795 640.743 565.737C640.797 565.678 640.875 565.648 640.976 565.648C641.077 565.648 641.153 565.678 641.206 565.737C641.26 565.795 641.287 565.867 641.287 565.951C641.287 566.034 641.26 566.105 641.206 566.163C641.153 566.22 641.077 566.249 640.976 566.249C640.875 566.249 640.797 566.22 640.743 566.163C640.69 566.105 640.664 566.034 640.664 565.951ZM644.539 563.932V564.533C644.539 564.856 644.51 565.128 644.452 565.35C644.394 565.572 644.311 565.751 644.203 565.886C644.095 566.022 643.964 566.12 643.81 566.181C643.659 566.241 643.487 566.271 643.296 566.271C643.144 566.271 643.004 566.252 642.876 566.214C642.748 566.176 642.633 566.116 642.53 566.033C642.429 565.948 642.342 565.838 642.27 565.702C642.198 565.567 642.143 565.403 642.105 565.21C642.067 565.016 642.048 564.791 642.048 564.533V563.932C642.048 563.609 642.077 563.338 642.134 563.119C642.194 562.901 642.278 562.726 642.386 562.594C642.495 562.461 642.625 562.365 642.776 562.307C642.93 562.249 643.101 562.22 643.291 562.22C643.444 562.22 643.585 562.239 643.713 562.277C643.843 562.313 643.958 562.372 644.059 562.453C644.161 562.533 644.246 562.639 644.317 562.773C644.389 562.905 644.444 563.066 644.482 563.257C644.52 563.449 644.539 563.673 644.539 563.932ZM644.035 564.614V563.848C644.035 563.671 644.024 563.516 644.003 563.382C643.983 563.247 643.953 563.131 643.913 563.035C643.874 562.94 643.823 562.862 643.762 562.803C643.702 562.743 643.633 562.7 643.553 562.673C643.476 562.644 643.388 562.629 643.291 562.629C643.171 562.629 643.066 562.652 642.974 562.697C642.882 562.74 642.804 562.81 642.741 562.905C642.68 563.001 642.633 563.127 642.6 563.282C642.568 563.437 642.551 563.626 642.551 563.848V564.614C642.551 564.791 642.561 564.947 642.581 565.082C642.603 565.218 642.634 565.335 642.676 565.434C642.717 565.532 642.768 565.612 642.828 565.675C642.887 565.738 642.956 565.785 643.033 565.816C643.113 565.845 643.2 565.859 643.296 565.859C643.419 565.859 643.526 565.836 643.618 565.789C643.71 565.742 643.787 565.669 643.848 565.57C643.911 565.469 643.958 565.339 643.989 565.182C644.02 565.024 644.035 564.834 644.035 564.614ZM647.731 562.275V562.556L646.098 566.217H645.57L647.2 562.686H645.067V562.275H647.731Z" fill="#5A3EE3"/>
<rect x="941.642" y="577.851" width="60.9937" height="60.9937" rx="4.15866" fill="#DFFF2F"/>
<path d="M950.922 588.119C950.922 588.552 950.821 588.917 950.619 589.214C950.417 589.508 950.139 589.73 949.785 589.882C949.434 590.03 949.036 590.105 948.591 590.105C948.146 590.105 947.746 590.03 947.392 589.882C947.039 589.73 946.759 589.508 946.554 589.214C946.348 588.917 946.246 588.552 946.246 588.119C946.246 587.829 946.304 587.567 946.421 587.333C946.538 587.096 946.701 586.894 946.909 586.726C947.121 586.556 947.369 586.426 947.653 586.338C947.937 586.246 948.247 586.201 948.582 586.201C949.03 586.201 949.431 586.28 949.785 586.437C950.139 586.595 950.417 586.818 950.619 587.106C950.821 587.393 950.922 587.731 950.922 588.119ZM949.548 588.029C949.548 587.818 949.507 587.636 949.425 587.485C949.346 587.33 949.234 587.211 949.089 587.129C948.943 587.047 948.774 587.006 948.582 587.006C948.389 587.006 948.22 587.047 948.075 587.129C947.929 587.211 947.816 587.33 947.733 587.485C947.654 587.636 947.615 587.818 947.615 588.029C947.615 588.238 947.654 588.418 947.733 588.57C947.816 588.721 947.929 588.838 948.075 588.92C948.223 588.999 948.395 589.039 948.591 589.039C948.787 589.039 948.956 588.999 949.098 588.92C949.243 588.838 949.354 588.721 949.43 588.57C949.509 588.418 949.548 588.238 949.548 588.029ZM950.775 584.94C950.775 585.291 950.682 585.602 950.496 585.874C950.309 586.142 950.05 586.352 949.719 586.504C949.39 586.655 949.014 586.731 948.591 586.731C948.165 586.731 947.786 586.655 947.454 586.504C947.122 586.352 946.863 586.142 946.677 585.874C946.49 585.602 946.397 585.291 946.397 584.94C946.397 584.523 946.49 584.173 946.677 583.888C946.866 583.601 947.125 583.383 947.454 583.235C947.786 583.086 948.161 583.012 948.582 583.012C949.008 583.012 949.385 583.086 949.714 583.235C950.046 583.383 950.305 583.601 950.491 583.888C950.68 584.173 950.775 584.523 950.775 584.94ZM949.411 585.002C949.411 584.815 949.378 584.654 949.311 584.519C949.245 584.38 949.15 584.272 949.027 584.196C948.907 584.121 948.758 584.083 948.582 584.083C948.411 584.083 948.264 584.119 948.141 584.192C948.021 584.264 947.928 584.37 947.861 584.509C947.798 584.645 947.767 584.809 947.767 585.002C947.767 585.188 947.798 585.352 947.861 585.495C947.928 585.634 948.022 585.743 948.146 585.822C948.269 585.9 948.417 585.94 948.591 585.94C948.765 585.94 948.912 585.9 949.032 585.822C949.155 585.743 949.248 585.634 949.311 585.495C949.378 585.352 949.411 585.188 949.411 585.002ZM955.172 583.097V590.01H953.808V584.67L952.168 585.191V584.116L955.025 583.097H955.172Z" fill="#5A3EE3"/>
<path d="M970.831 596.996V610.793H968.471V596.996H970.831ZM975.161 596.996V598.891H964.179V596.996H975.161ZM979.198 600.54V610.793H976.905V600.54H979.198ZM976.753 597.848C976.753 597.501 976.867 597.214 977.095 596.986C977.328 596.752 977.65 596.636 978.061 596.636C978.465 596.636 978.784 596.752 979.018 596.986C979.252 597.214 979.369 597.501 979.369 597.848C979.369 598.19 979.252 598.474 979.018 598.701C978.784 598.929 978.465 599.042 978.061 599.042C977.65 599.042 977.328 598.929 977.095 598.701C976.867 598.474 976.753 598.19 976.753 597.848Z" fill="#5A3EE3"/>
<path d="M960.095 616.859V622.279H959.388V616.859H960.095ZM961.838 616.859V617.447H957.65V616.859H961.838ZM963.226 616.561V622.279H962.537V616.561H963.226ZM963.062 620.113L962.776 620.101C962.778 619.826 962.819 619.572 962.899 619.338C962.978 619.102 963.09 618.898 963.234 618.724C963.378 618.55 963.549 618.416 963.747 618.322C963.948 618.225 964.171 618.177 964.414 618.177C964.612 618.177 964.791 618.204 964.95 618.259C965.109 618.311 965.244 618.395 965.356 618.512C965.47 618.628 965.557 618.78 965.616 618.966C965.676 619.15 965.706 619.374 965.706 619.64V622.279H965.013V619.632C965.013 619.421 964.982 619.253 964.92 619.126C964.858 618.997 964.767 618.904 964.648 618.847C964.529 618.787 964.383 618.757 964.209 618.757C964.038 618.757 963.881 618.793 963.74 618.865C963.601 618.937 963.481 619.037 963.379 619.163C963.28 619.29 963.201 619.435 963.144 619.599C963.09 619.76 963.062 619.931 963.062 620.113ZM969.112 621.591V619.517C969.112 619.358 969.08 619.22 969.015 619.104C968.953 618.985 968.859 618.893 968.732 618.828C968.606 618.764 968.449 618.731 968.263 618.731C968.089 618.731 967.937 618.761 967.805 618.821C967.676 618.88 967.574 618.959 967.5 619.055C967.428 619.152 967.392 619.256 967.392 619.368H966.703C966.703 619.224 966.74 619.081 966.815 618.94C966.889 618.798 966.996 618.671 967.135 618.556C967.277 618.44 967.445 618.348 967.641 618.281C967.84 618.211 968.061 618.177 968.304 618.177C968.597 618.177 968.855 618.226 969.078 618.326C969.304 618.425 969.48 618.575 969.607 618.776C969.736 618.975 969.801 619.224 969.801 619.524V621.401C969.801 621.535 969.812 621.677 969.834 621.829C969.859 621.98 969.895 622.11 969.942 622.22V622.279H969.224C969.189 622.2 969.162 622.094 969.142 621.963C969.122 621.829 969.112 621.705 969.112 621.591ZM969.231 619.837L969.238 620.321H968.542C968.346 620.321 968.171 620.337 968.017 620.369C967.864 620.399 967.734 620.445 967.63 620.507C967.526 620.569 967.447 620.647 967.392 620.742C967.337 620.834 967.31 620.942 967.31 621.066C967.31 621.192 967.339 621.308 967.396 621.412C967.453 621.516 967.538 621.599 967.653 621.661C967.769 621.721 967.912 621.751 968.081 621.751C968.292 621.751 968.478 621.706 968.639 621.617C968.8 621.527 968.928 621.418 969.023 621.289C969.119 621.16 969.171 621.035 969.179 620.913L969.473 621.244C969.456 621.349 969.408 621.464 969.332 621.591C969.255 621.717 969.152 621.839 969.023 621.955C968.896 622.07 968.745 622.165 968.568 622.242C968.395 622.316 968.199 622.354 967.98 622.354C967.707 622.354 967.468 622.3 967.262 622.194C967.058 622.087 966.899 621.944 966.785 621.765C966.673 621.584 966.618 621.382 966.618 621.159C966.618 620.943 966.66 620.753 966.744 620.589C966.829 620.423 966.95 620.285 967.109 620.176C967.268 620.064 967.459 619.98 967.682 619.923C967.906 619.866 968.155 619.837 968.431 619.837H969.231ZM971.632 616.561V622.279H970.94V616.561H971.632ZM973.486 616.561V622.279H972.794V616.561H973.486ZM975.34 618.251V622.279H974.648V618.251H975.34ZM974.595 617.183C974.595 617.071 974.629 616.977 974.696 616.9C974.766 616.823 974.867 616.784 975.001 616.784C975.133 616.784 975.233 616.823 975.303 616.9C975.375 616.977 975.411 617.071 975.411 617.183C975.411 617.289 975.375 617.381 975.303 617.458C975.233 617.533 975.133 617.57 975.001 617.57C974.867 617.57 974.766 617.533 974.696 617.458C974.629 617.381 974.595 617.289 974.595 617.183ZM978.91 621.349V618.251H979.603V622.279H978.944L978.91 621.349ZM979.04 620.5L979.327 620.492C979.327 620.76 979.299 621.009 979.242 621.237C979.187 621.463 979.098 621.659 978.973 621.825C978.849 621.991 978.687 622.122 978.486 622.216C978.285 622.308 978.04 622.354 977.752 622.354C977.556 622.354 977.376 622.325 977.213 622.268C977.051 622.211 976.912 622.123 976.796 622.004C976.679 621.885 976.588 621.729 976.524 621.538C976.462 621.347 976.431 621.118 976.431 620.85V618.251H977.12V620.857C977.12 621.038 977.139 621.188 977.179 621.308C977.221 621.424 977.277 621.517 977.347 621.587C977.419 621.654 977.498 621.701 977.585 621.728C977.674 621.756 977.766 621.769 977.86 621.769C978.153 621.769 978.385 621.713 978.557 621.602C978.728 621.488 978.851 621.335 978.925 621.144C979.002 620.95 979.04 620.736 979.04 620.5ZM981.337 619.052V622.279H980.645V618.251H981.3L981.337 619.052ZM981.196 620.113L980.876 620.101C980.878 619.826 980.914 619.572 980.984 619.338C981.053 619.102 981.156 618.898 981.293 618.724C981.429 618.55 981.599 618.416 981.803 618.322C982.006 618.225 982.242 618.177 982.51 618.177C982.699 618.177 982.872 618.204 983.031 618.259C983.19 618.311 983.328 618.394 983.444 618.508C983.561 618.622 983.652 618.769 983.716 618.947C983.781 619.126 983.813 619.342 983.813 619.595V622.279H983.124V619.629C983.124 619.418 983.088 619.249 983.016 619.122C982.947 618.996 982.848 618.904 982.719 618.847C982.59 618.787 982.438 618.757 982.264 618.757C982.061 618.757 981.891 618.793 981.754 618.865C981.618 618.937 981.509 619.037 981.427 619.163C981.345 619.29 981.285 619.435 981.248 619.599C981.213 619.76 981.196 619.931 981.196 620.113ZM983.806 619.733L983.344 619.874C983.346 619.653 983.382 619.441 983.452 619.238C983.524 619.034 983.627 618.853 983.761 618.694C983.897 618.535 984.065 618.41 984.264 618.318C984.462 618.224 984.689 618.177 984.945 618.177C985.161 618.177 985.352 618.205 985.518 618.262C985.687 618.319 985.828 618.408 985.942 618.527C986.059 618.643 986.147 618.793 986.207 618.977C986.266 619.161 986.296 619.379 986.296 619.632V622.279H985.604V619.625C985.604 619.399 985.568 619.224 985.496 619.1C985.426 618.973 985.327 618.885 985.198 618.836C985.071 618.784 984.92 618.757 984.744 618.757C984.592 618.757 984.458 618.784 984.342 618.836C984.225 618.888 984.127 618.96 984.048 619.052C983.968 619.141 983.907 619.244 983.865 619.361C983.825 619.477 983.806 619.601 983.806 619.733Z" fill="#5A3EE3"/>
<path d="M966.52 632.344V632.755H963.94V632.395L965.232 630.957C965.39 630.781 965.513 630.631 965.6 630.508C965.688 630.383 965.75 630.272 965.784 630.175C965.82 630.076 965.838 629.975 965.838 629.872C965.838 629.742 965.811 629.624 965.757 629.52C965.705 629.413 965.627 629.328 965.524 629.265C965.421 629.202 965.297 629.171 965.15 629.171C964.975 629.171 964.829 629.205 964.712 629.273C964.596 629.34 964.51 629.434 964.452 629.555C964.394 629.676 964.365 629.815 964.365 629.972H963.864C963.864 629.75 963.913 629.547 964.011 629.363C964.108 629.179 964.252 629.032 964.444 628.924C964.635 628.814 964.871 628.759 965.15 628.759C965.399 628.759 965.612 628.803 965.789 628.892C965.966 628.978 966.102 629.101 966.195 629.26C966.291 629.417 966.339 629.601 966.339 629.812C966.339 629.928 966.319 630.045 966.279 630.164C966.241 630.281 966.188 630.399 966.12 630.516C966.053 630.633 965.974 630.749 965.884 630.863C965.796 630.976 965.701 631.088 965.6 631.198L964.544 632.344H966.52ZM969.531 630.47V631.071C969.531 631.394 969.502 631.667 969.444 631.889C969.387 632.111 969.304 632.29 969.195 632.425C969.087 632.56 968.956 632.659 968.803 632.72C968.651 632.78 968.48 632.809 968.288 632.809C968.137 632.809 967.997 632.79 967.869 632.752C967.741 632.715 967.625 632.654 967.522 632.571C967.421 632.486 967.334 632.376 967.262 632.241C967.19 632.105 967.135 631.941 967.097 631.748C967.059 631.555 967.04 631.329 967.04 631.071V630.47C967.04 630.147 967.069 629.876 967.127 629.658C967.186 629.439 967.27 629.264 967.379 629.133C967.487 628.999 967.617 628.903 967.768 628.846C967.922 628.788 968.093 628.759 968.283 628.759C968.436 628.759 968.577 628.778 968.705 628.816C968.835 628.852 968.951 628.911 969.052 628.992C969.153 629.071 969.239 629.178 969.309 629.311C969.381 629.443 969.436 629.605 969.474 629.796C969.512 629.987 969.531 630.212 969.531 630.47ZM969.027 631.152V630.386C969.027 630.209 969.017 630.054 968.995 629.92C968.975 629.785 968.945 629.67 968.906 629.574C968.866 629.478 968.815 629.401 968.754 629.341C968.694 629.282 968.625 629.238 968.546 629.211C968.468 629.182 968.38 629.168 968.283 629.168C968.164 629.168 968.058 629.19 967.966 629.236C967.874 629.279 967.796 629.348 967.733 629.444C967.672 629.54 967.625 629.665 967.593 629.82C967.56 629.976 967.544 630.164 967.544 630.386V631.152C967.544 631.329 967.554 631.485 967.574 631.621C967.595 631.756 967.627 631.873 967.668 631.973C967.71 632.07 967.76 632.151 967.82 632.214C967.879 632.277 967.948 632.324 968.026 632.354C968.105 632.383 968.193 632.398 968.288 632.398C968.411 632.398 968.518 632.374 968.611 632.327C968.703 632.28 968.779 632.207 968.841 632.108C968.904 632.007 968.951 631.878 968.981 631.721C969.012 631.562 969.027 631.373 969.027 631.152ZM972.84 631.429V631.84H969.991V631.545L971.757 628.813H972.165L971.727 629.604L970.56 631.429H972.84ZM972.29 628.813V632.755H971.789V628.813H972.29ZM973.357 632.49C973.357 632.405 973.383 632.334 973.435 632.276C973.489 632.216 973.567 632.187 973.668 632.187C973.769 632.187 973.846 632.216 973.898 632.276C973.952 632.334 973.979 632.405 973.979 632.49C973.979 632.573 973.952 632.643 973.898 632.701C973.846 632.759 973.769 632.788 973.668 632.788C973.567 632.788 973.489 632.759 973.435 632.701C973.383 632.643 973.357 632.573 973.357 632.49ZM975.487 630.538H975.845C976.02 630.538 976.164 630.509 976.278 630.451C976.394 630.392 976.479 630.311 976.535 630.21C976.593 630.107 976.622 629.992 976.622 629.864C976.622 629.712 976.597 629.585 976.546 629.482C976.496 629.379 976.42 629.301 976.319 629.249C976.218 629.197 976.089 629.171 975.934 629.171C975.793 629.171 975.669 629.199 975.561 629.254C975.454 629.309 975.37 629.386 975.309 629.487C975.249 629.588 975.219 629.708 975.219 629.845H974.719C974.719 629.644 974.769 629.462 974.87 629.298C974.971 629.134 975.113 629.003 975.295 628.905C975.479 628.808 975.692 628.759 975.934 628.759C976.172 628.759 976.381 628.801 976.56 628.886C976.738 628.969 976.877 629.094 976.977 629.26C977.076 629.424 977.125 629.629 977.125 629.874C977.125 629.974 977.102 630.08 977.055 630.194C977.01 630.306 976.939 630.411 976.841 630.508C976.746 630.605 976.621 630.686 976.468 630.749C976.314 630.81 976.13 630.841 975.915 630.841H975.487V630.538ZM975.487 630.949V630.649H975.915C976.166 630.649 976.374 630.679 976.538 630.738C976.702 630.798 976.831 630.877 976.925 630.976C977.021 631.076 977.088 631.185 977.125 631.304C977.165 631.421 977.185 631.539 977.185 631.656C977.185 631.84 977.153 632.003 977.09 632.146C977.029 632.289 976.941 632.41 976.828 632.509C976.716 632.608 976.584 632.683 976.432 632.734C976.281 632.784 976.116 632.809 975.937 632.809C975.765 632.809 975.604 632.785 975.452 632.736C975.302 632.688 975.17 632.617 975.054 632.525C974.939 632.431 974.848 632.317 974.784 632.181C974.719 632.044 974.686 631.888 974.686 631.713H975.187C975.187 631.85 975.217 631.97 975.276 632.073C975.338 632.176 975.424 632.256 975.536 632.314C975.65 632.37 975.783 632.398 975.937 632.398C976.09 632.398 976.222 632.372 976.332 632.319C976.444 632.265 976.53 632.184 976.589 632.076C976.651 631.967 976.681 631.831 976.681 631.667C976.681 631.503 976.647 631.368 976.579 631.263C976.51 631.157 976.413 631.078 976.286 631.028C976.162 630.975 976.015 630.949 975.845 630.949H975.487ZM980.361 631.688C980.361 631.929 980.305 632.132 980.193 632.3C980.083 632.466 979.933 632.593 979.744 632.679C979.556 632.766 979.344 632.809 979.107 632.809C978.871 632.809 978.658 632.766 978.468 632.679C978.279 632.593 978.129 632.466 978.019 632.3C977.909 632.132 977.854 631.929 977.854 631.688C977.854 631.531 977.884 631.388 977.943 631.258C978.004 631.126 978.09 631.012 978.2 630.914C978.312 630.817 978.444 630.742 978.596 630.689C978.749 630.635 978.918 630.608 979.102 630.608C979.344 630.608 979.559 630.655 979.749 630.749C979.939 630.841 980.087 630.968 980.196 631.131C980.306 631.293 980.361 631.479 980.361 631.688ZM979.857 631.678C979.857 631.531 979.826 631.402 979.763 631.29C979.699 631.177 979.611 631.088 979.497 631.025C979.383 630.962 979.252 630.93 979.102 630.93C978.948 630.93 978.816 630.962 978.704 631.025C978.594 631.088 978.508 631.177 978.447 631.29C978.385 631.402 978.355 631.531 978.355 631.678C978.355 631.829 978.384 631.959 978.444 632.068C978.505 632.174 978.592 632.256 978.704 632.314C978.818 632.37 978.952 632.398 979.107 632.398C979.263 632.398 979.396 632.37 979.508 632.314C979.62 632.256 979.706 632.174 979.765 632.068C979.827 631.959 979.857 631.829 979.857 631.678ZM980.269 629.839C980.269 630.031 980.218 630.203 980.117 630.356C980.016 630.51 979.878 630.631 979.703 630.719C979.528 630.808 979.329 630.852 979.107 630.852C978.882 630.852 978.68 630.808 978.504 630.719C978.328 630.631 978.191 630.51 978.092 630.356C977.993 630.203 977.943 630.031 977.943 629.839C977.943 629.61 977.993 629.415 978.092 629.254C978.193 629.094 978.331 628.971 978.506 628.886C978.681 628.801 978.881 628.759 979.105 628.759C979.33 628.759 979.531 628.801 979.706 628.886C979.881 628.971 980.018 629.094 980.117 629.254C980.218 629.415 980.269 629.61 980.269 629.839ZM979.768 629.847C979.768 629.716 979.74 629.599 979.684 629.498C979.628 629.397 979.55 629.318 979.451 629.26C979.352 629.2 979.236 629.171 979.105 629.171C978.973 629.171 978.857 629.199 978.758 629.254C978.661 629.309 978.584 629.386 978.528 629.487C978.474 629.588 978.447 629.708 978.447 629.847C978.447 629.983 978.474 630.101 978.528 630.202C978.584 630.303 978.662 630.382 978.761 630.438C978.86 630.494 978.976 630.522 979.107 630.522C979.239 630.522 979.354 630.494 979.451 630.438C979.55 630.382 979.628 630.303 979.684 630.202C979.74 630.101 979.768 629.983 979.768 629.847Z" fill="#5A3EE3"/>
</svg>
