<svg width="89" height="75" viewBox="0 0 89 75" fill="none" xmlns="http://www.w3.org/2000/svg">
<path d="M88.5003 25.383C88.5003 27.3014 86.9455 28.8563 85.027 28.8563C83.1086 28.8563 81.5537 27.3014 81.5537 25.383C81.5537 23.4645 83.1086 21.9097 85.027 21.9097C86.9455 21.9097 88.5003 23.4645 88.5003 25.383Z" fill="#72A6FD"/>
<path d="M29.0875 3.61685C29.0875 5.53531 27.532 7.09015 25.6142 7.09015C23.6958 7.09015 22.1409 5.53531 22.1409 3.61685C22.1409 1.6984 23.6958 0.143555 25.6142 0.143555C27.532 0.143555 29.0875 1.6984 29.0875 3.61685ZM30.1295 27.7217C29.1703 27.7217 28.3929 26.9442 28.3929 25.985V8.91702L20.7516 11.6984V12.22H21.099C22.0575 12.22 22.8356 12.9975 22.8356 13.9567V25.985C22.8356 26.9442 22.0575 27.7217 21.099 27.7217H20.7516V28.2427H30.4769V27.7217H30.1295ZM44.3897 9.24129L39.1798 12.2492V8.91702L31.5385 11.6984V12.22H31.8858C32.8451 12.22 33.6225 12.9975 33.6225 13.9567V25.985C33.6225 26.9442 32.8451 27.7217 31.8858 27.7217H31.5385V28.2427H41.2638V27.7217H40.9164C39.9572 27.7217 39.1798 26.9442 39.1798 25.985V12.7702H40.9191C40.949 14.6622 42.4903 16.1879 44.3897 16.1879C46.3082 16.1879 47.863 14.6324 47.863 12.7146C47.863 10.7961 46.3082 9.24129 44.3897 9.24129ZM80.1647 27.7237H79.8173C78.8581 27.7237 78.0807 26.9463 78.0807 25.9871V14.4512C78.0807 11.5736 75.7478 9.24129 72.8708 9.24129H72.5234L66.9241 12.4738C66.1453 10.5777 64.2804 9.24129 62.1035 9.24129H61.7562L56.5463 12.2492V8.91702L48.905 11.6984V12.22H49.2523C50.2116 12.22 50.989 12.9975 50.989 13.9567V25.985C50.989 26.9436 50.2116 27.7217 49.2523 27.7217H48.905V28.2427H58.6302V27.7217H58.2829C57.3237 27.7217 56.5463 26.9436 56.5463 25.985V12.7702H59.1512C60.5901 12.7702 61.7562 13.9363 61.7562 15.3752V25.9871C61.7562 26.9463 60.9788 27.7237 60.0196 27.7237H59.6722V28.2447H69.3975V27.7237H69.0501C68.0909 27.7237 67.3135 26.9463 67.3135 25.9871V14.4512C67.3135 13.8631 67.2144 13.298 67.0347 12.7702H69.9184C71.3573 12.7702 72.5234 13.9363 72.5234 15.3752V25.9871C72.5234 26.9463 71.746 27.7237 70.7868 27.7237H70.4394V28.2447H80.1647V27.7237ZM19.7564 1.86392H0.5V2.38492H0.84733C2.28617 2.38492 3.4523 3.55105 3.4523 4.98989V25.1004C3.4523 26.5386 2.28617 27.7054 0.84733 27.7054H0.5V28.2264H11.9619V27.7054H11.6145C10.1757 27.7054 9.00958 26.5386 9.00958 25.1004V16.4647H15.9562V13.4147L11.0929 15.1846L9.00958 15.943V3.25324H13.6782C17.0355 3.25324 19.7564 5.97422 19.7564 9.33151V9.67884H20.4511V1.86392H19.7564Z" fill="#EBEEF4"/>
<line x1="0.5" y1="36.3562" x2="88.5" y2="36.3562" stroke="#7474FC"/>
<path d="M8.94717 54.7146C9.34299 54.7146 9.60387 54.7236 9.72981 54.7416V57.3054H9.05512C7.66975 57.3054 6.59923 57.6473 5.84358 58.331C5.08792 59.0147 4.71009 60.0042 4.71009 61.2996V68.8562H2.01131V54.9305H4.60214V57.4134C5.48374 55.6142 6.93208 54.7146 8.94717 54.7146ZM23.522 62.0013V62.784H13.0238C13.1497 64.1513 13.5546 65.1859 14.2382 65.8875C14.9219 66.5712 15.8485 66.9131 17.018 66.9131C18.7812 66.9131 19.9327 66.1394 20.4724 64.5921H23.1982C22.8204 66.0135 22.0827 67.138 20.9852 67.9656C19.9057 68.7752 18.5653 69.1801 16.964 69.1801C14.9669 69.1801 13.3566 68.5144 12.1332 67.183C10.9098 65.8516 10.298 64.0884 10.298 61.8934C10.298 59.6984 10.9098 57.9352 12.1332 56.6038C13.3566 55.2724 14.9489 54.6067 16.91 54.6067C18.9611 54.6067 20.5804 55.2994 21.7678 56.6847C22.9373 58.0701 23.522 59.8423 23.522 62.0013ZM16.91 56.8736C15.8485 56.8736 14.9759 57.1975 14.2922 57.8452C13.6265 58.4929 13.2127 59.4285 13.0508 60.6519H20.7423C20.6164 59.5184 20.2115 58.6098 19.5278 57.9262C18.8621 57.2245 17.9895 56.8736 16.91 56.8736ZM33.1482 54.6067C35.0913 54.6067 36.6386 55.2634 37.7901 56.5768C38.9416 57.8902 39.5173 59.6624 39.5173 61.8934C39.5173 64.1064 38.9416 65.8696 37.7901 67.183C36.6207 68.5144 35.0734 69.1801 33.1482 69.1801C31.1691 69.1801 29.6578 68.4244 28.6143 66.9131V74.1458H25.9155V54.9305H28.5063V57.0356C29.5499 55.4163 31.0972 54.6067 33.1482 54.6067ZM29.6668 65.5367C30.3865 66.4183 31.376 66.8591 32.6355 66.8591C33.8949 66.8591 34.8934 66.4093 35.6311 65.5097C36.3508 64.6281 36.7106 63.3867 36.7106 61.7854C36.7106 60.2381 36.3508 59.0417 35.6311 58.196C34.9114 57.3504 33.9129 56.9276 32.6355 56.9276C31.394 56.9276 30.4045 57.3594 29.6668 58.223C28.9291 59.1226 28.5603 60.3461 28.5603 61.8934C28.5603 63.4407 28.9291 64.6551 29.6668 65.5367ZM53.1407 67.183C51.8633 68.5144 50.199 69.1801 48.1479 69.1801C46.0969 69.1801 44.4326 68.5144 43.1552 67.183C41.8778 65.8516 41.2391 64.0884 41.2391 61.8934C41.2391 59.6804 41.8778 57.9082 43.1552 56.5768C44.4146 55.2634 46.0789 54.6067 48.1479 54.6067C50.217 54.6067 51.8812 55.2634 53.1407 56.5768C54.4001 57.8902 55.0298 59.6624 55.0298 61.8934C55.0298 64.1064 54.4001 65.8696 53.1407 67.183ZM45.1523 65.5367C45.89 66.4183 46.8885 66.8591 48.1479 66.8591C49.4074 66.8591 50.3969 66.4183 51.1166 65.5367C51.8543 64.6551 52.2231 63.4407 52.2231 61.8934C52.2231 60.3461 51.8543 59.1316 51.1166 58.25C50.3969 57.3684 49.4074 56.9276 48.1479 56.9276C46.8885 56.9276 45.89 57.3684 45.1523 58.25C44.4146 59.1316 44.0458 60.3461 44.0458 61.8934C44.0458 63.4407 44.4146 64.6551 45.1523 65.5367ZM64.3459 54.7146C64.7417 54.7146 65.0026 54.7236 65.1285 54.7416V57.3054H64.4538C63.0684 57.3054 61.9979 57.6473 61.2423 58.331C60.4866 59.0147 60.1088 60.0042 60.1088 61.2996V68.8562H57.41V54.9305H60.0008V57.4134C60.8824 55.6142 62.3308 54.7146 64.3459 54.7146ZM73.8262 54.9305V57.1435H71.0194V65.5097C71.0194 65.9235 71.1364 66.2294 71.3703 66.4273C71.6222 66.6072 72.036 66.6972 72.6117 66.6972H73.8262V68.8562C73.2324 68.9102 72.6837 68.9372 72.1799 68.9372C70.8665 68.9372 69.8949 68.6853 69.2652 68.1815C68.6355 67.6777 68.3207 66.8681 68.3207 65.7526V57.1435H66.0807V54.9305H68.3207V50.9363H71.0194V54.9305H73.8262ZM81.066 69.207C77.1978 69.207 75.1647 67.6148 74.9668 64.4302H77.6656C77.7735 65.4018 78.0884 66.0855 78.6102 66.4813C79.1319 66.8771 79.9595 67.075 81.093 67.075C83.1441 67.075 84.1696 66.4273 84.1696 65.1319C84.1696 64.5741 83.9537 64.1423 83.5219 63.8365C83.0901 63.5306 82.3165 63.2787 81.201 63.0808L79.7706 62.8109C76.82 62.2712 75.3446 60.8858 75.3446 58.6548C75.3446 57.4134 75.8214 56.4328 76.775 55.7132C77.7286 54.9755 79.042 54.6067 80.7152 54.6067C84.5475 54.6067 86.5086 56.163 86.5985 59.2755H83.9807C83.9267 58.34 83.6389 57.6833 83.1171 57.3054C82.5954 56.9096 81.7947 56.7117 80.7152 56.7117C79.8516 56.7117 79.1859 56.8736 78.7181 57.1975C78.2503 57.5213 78.0164 57.9801 78.0164 58.5739C78.0164 59.1136 78.2233 59.5364 78.6371 59.8423C79.051 60.1302 79.7077 60.3641 80.6073 60.544L82.0646 60.7869C83.7738 61.1107 85.0063 61.5965 85.7619 62.2442C86.5176 62.8919 86.8954 63.7915 86.8954 64.943C86.8954 66.2924 86.3826 67.3449 85.3571 68.1005C84.3316 68.8382 82.9012 69.207 81.066 69.207Z" fill="#EBEEF4"/>
</svg>
