<svg width="604" height="385" viewBox="0 0 604 385" fill="none" xmlns="http://www.w3.org/2000/svg">
<rect width="604" height="385" rx="8" fill="#F5F5F5"/>
<path fill-rule="evenodd" clip-rule="evenodd" d="M225.085 134.691C267.392 159.116 335.984 159.116 378.291 134.691C420.598 110.265 420.598 70.6629 378.291 46.2371C335.984 21.8113 267.392 21.8113 225.085 46.2371C182.778 70.6629 182.778 110.265 225.085 134.691ZM223.344 135.696C266.612 160.677 336.764 160.677 380.032 135.696C423.3 110.715 423.3 70.2128 380.032 45.2319C336.764 20.251 266.612 20.251 223.344 45.2319C180.076 70.2128 180.076 110.715 223.344 135.696Z" fill="#414F69"/>
<path fill-rule="evenodd" clip-rule="evenodd" d="M191 269.96L191 90.9219L193 90.9219L193 269.96L191 269.96Z" fill="#414F69"/>
<path fill-rule="evenodd" clip-rule="evenodd" d="M410 270.157L410 91.1182L412 91.1182L412 270.157L410 270.157Z" fill="#414F69"/>
<path fill-rule="evenodd" clip-rule="evenodd" d="M252.912 150.335C279.85 165.888 323.526 165.888 350.464 150.335C377.402 134.783 377.402 109.567 350.464 94.014C323.526 78.4613 279.85 78.4613 252.912 94.014C225.974 109.567 225.974 134.783 252.912 150.335ZM251.804 150.975C279.354 166.882 324.022 166.882 351.572 150.975C379.123 135.069 379.123 109.28 351.572 93.374C324.022 77.4678 279.354 77.4678 251.804 93.374C224.253 109.28 224.253 135.069 251.804 150.975Z" fill="#414F69"/>
<path fill-rule="evenodd" clip-rule="evenodd" d="M231.209 236.467L231.209 122.467L232.483 122.467L232.483 236.467L231.209 236.467Z" fill="#414F69"/>
<path fill-rule="evenodd" clip-rule="evenodd" d="M370.654 236.592L370.654 122.592L371.928 122.592L371.928 236.592L370.654 236.592Z" fill="#414F69"/>
<path fill-rule="evenodd" clip-rule="evenodd" d="M225.085 314.264C267.392 338.69 335.984 338.69 378.291 314.264C420.598 289.838 420.598 250.236 378.291 225.81C335.984 201.385 267.392 201.385 225.085 225.81C182.778 250.236 182.778 289.838 225.085 314.264ZM223.344 315.269C266.612 340.25 336.764 340.25 380.032 315.269C423.3 290.288 423.3 249.786 380.032 224.805C336.764 199.824 266.612 199.824 223.344 224.805C180.076 249.786 180.076 290.288 223.344 315.269Z" fill="#414F69"/>
<path fill-rule="evenodd" clip-rule="evenodd" d="M252.912 265.335C279.85 280.888 323.526 280.888 350.464 265.335C377.402 249.783 377.402 224.567 350.464 209.014C323.526 193.461 279.85 193.461 252.912 209.014C225.974 224.567 225.974 249.783 252.912 265.335ZM251.804 265.975C279.354 281.882 324.022 281.882 351.572 265.975C379.123 250.069 379.123 224.28 351.572 208.374C324.022 192.468 279.354 192.468 251.804 208.374C224.253 224.28 224.253 250.069 251.804 265.975Z" fill="#414F69"/>
<path d="M444.809 150.618C444.894 151.687 444.95 152.762 444.979 153.841L444.328 153.858C444.342 154.391 444.349 154.926 444.349 155.462C444.349 155.998 444.342 156.533 444.328 157.066L444.979 157.083C444.95 158.162 444.894 159.236 444.809 160.306L444.16 160.255C444.076 161.321 443.964 162.382 443.825 163.437L444.47 163.523C444.329 164.591 444.16 165.655 443.964 166.713L443.324 166.594C443.13 167.643 442.908 168.686 442.66 169.723L443.293 169.874C443.043 170.921 442.766 171.962 442.462 172.996L441.838 172.813C441.538 173.834 441.212 174.849 440.861 175.858L441.476 176.072C441.123 177.088 440.744 178.097 440.34 179.1L439.736 178.857C439.339 179.843 438.917 180.823 438.471 181.796L439.063 182.067C438.616 183.042 438.146 184.01 437.651 184.971L437.072 184.673C436.586 185.62 436.076 186.561 435.543 187.494L436.109 187.817C435.578 188.747 435.025 189.67 434.45 190.586L433.899 190.24C433.334 191.139 432.748 192.032 432.141 192.918L432.678 193.286C432.071 194.172 431.442 195.051 430.794 195.922L430.272 195.534C429.639 196.384 428.986 197.228 428.314 198.064L428.822 198.472C428.151 199.307 427.461 200.135 426.752 200.955L426.26 200.529C425.563 201.336 424.848 202.135 424.115 202.926L424.593 203.368C423.867 204.152 423.124 204.928 422.364 205.697L421.901 205.239C421.152 205.997 420.385 206.748 419.603 207.491L420.051 207.963C419.275 208.699 418.483 209.428 417.676 210.149L417.242 209.664C416.449 210.373 415.64 211.074 414.816 211.768L415.235 212.265C414.414 212.957 413.578 213.641 412.727 214.317L412.322 213.807C411.491 214.468 410.645 215.121 409.786 215.767L410.178 216.287C409.318 216.933 408.446 217.571 407.56 218.201L407.183 217.67C406.317 218.286 405.438 218.895 404.547 219.495L404.911 220.035C404.021 220.635 403.119 221.227 402.204 221.811L401.854 221.262C400.956 221.836 400.046 222.402 399.125 222.96L399.462 223.517C398.546 224.072 397.618 224.62 396.68 225.159L396.355 224.595C395.429 225.128 394.492 225.652 393.545 226.169L393.857 226.741C392.917 227.253 391.967 227.758 391.007 228.255L390.708 227.677C389.758 228.17 388.797 228.654 387.828 229.13L388.115 229.715C387.155 230.186 386.185 230.65 385.207 231.106L384.932 230.516C383.961 230.969 382.98 231.414 381.991 231.851L382.254 232.446C381.276 232.878 380.29 233.303 379.295 233.719L379.043 233.119C378.054 233.533 377.056 233.939 376.05 234.338L376.29 234.943C375.297 235.336 374.295 235.722 373.286 236.101L373.057 235.491C372.052 235.868 371.04 236.236 370.02 236.597L370.237 237.211C369.229 237.567 368.214 237.916 367.192 238.257L366.986 237.64C365.968 237.98 364.943 238.312 363.911 238.636L364.106 239.257C363.086 239.577 362.059 239.89 361.025 240.195L360.841 239.571C359.812 239.874 358.776 240.17 357.734 240.459L357.907 241.086C356.876 241.371 355.839 241.649 354.795 241.918L354.632 241.288C353.594 241.557 352.549 241.817 351.498 242.07L351.651 242.703C350.61 242.954 349.563 243.197 348.511 243.432L348.369 242.797C347.322 243.031 346.27 243.257 345.213 243.476L345.345 244.113C344.295 244.33 343.24 244.539 342.18 244.741L342.058 244.101C341.006 244.301 339.948 244.494 338.885 244.678L338.996 245.319C337.939 245.503 336.877 245.679 335.81 245.847L335.709 245.204C334.651 245.371 333.589 245.53 332.522 245.681L332.613 246.326C331.549 246.477 330.481 246.62 329.408 246.755L329.327 246.11C328.265 246.244 327.2 246.37 326.13 246.489L326.202 247.136C325.132 247.254 324.059 247.365 322.981 247.468L322.919 246.82C321.855 246.922 320.787 247.016 319.716 247.102L319.768 247.751C318.694 247.838 317.616 247.916 316.534 247.987L316.492 247.338C315.426 247.408 314.357 247.47 313.285 247.525L313.318 248.175C312.243 248.23 311.164 248.277 310.082 248.316L310.059 247.665C308.99 247.704 307.918 247.735 306.843 247.758L306.858 248.409C305.782 248.433 304.704 248.448 303.624 248.456L303.619 247.805C303.08 247.809 302.54 247.811 302 247.811C301.46 247.811 300.92 247.809 300.381 247.805L300.377 248.456C299.296 248.448 298.218 248.433 297.143 248.409L297.157 247.758C296.082 247.735 295.01 247.704 293.941 247.665L293.918 248.316C292.836 248.277 291.757 248.23 290.682 248.175L290.715 247.525C289.643 247.47 288.574 247.408 287.509 247.338L287.466 247.987C286.384 247.916 285.306 247.838 284.232 247.751L284.284 247.102C283.213 247.016 282.145 246.922 281.081 246.82L281.019 247.468C279.941 247.365 278.868 247.254 277.798 247.136L277.87 246.489C276.8 246.37 275.735 246.244 274.673 246.11L274.592 246.755C273.519 246.62 272.451 246.477 271.387 246.326L271.478 245.681C270.411 245.53 269.349 245.371 268.291 245.204L268.19 245.847C267.123 245.679 266.061 245.503 265.004 245.319L265.115 244.678C264.052 244.494 262.995 244.301 261.942 244.101L261.82 244.741C260.76 244.539 259.705 244.33 258.656 244.113L258.787 243.476C257.73 243.257 256.678 243.031 255.631 242.797L255.489 243.432C254.437 243.197 253.39 242.954 252.349 242.703L252.502 242.07C251.451 241.817 250.406 241.557 249.368 241.288L249.205 241.918C248.161 241.648 247.124 241.371 246.093 241.086L246.266 240.458C245.224 240.17 244.188 239.874 243.159 239.571L242.975 240.195C241.941 239.89 240.914 239.577 239.894 239.257L240.089 238.636C239.057 238.312 238.032 237.98 237.014 237.64L236.808 238.257C235.786 237.916 234.771 237.567 233.763 237.211L233.98 236.597C232.96 236.236 231.948 235.868 230.943 235.491L230.714 236.101C229.705 235.722 228.703 235.336 227.71 234.943L227.95 234.338C226.944 233.939 225.946 233.533 224.957 233.119L224.705 233.719C223.71 233.302 222.724 232.878 221.746 232.446L222.009 231.851C221.02 231.414 220.039 230.969 219.068 230.516L218.793 231.106C217.815 230.65 216.845 230.186 215.885 229.715L216.172 229.13C215.203 228.654 214.242 228.169 213.292 227.677L212.993 228.255C212.033 227.758 211.083 227.253 210.143 226.741L210.455 226.169C209.508 225.652 208.571 225.128 207.645 224.595L207.32 225.159C206.382 224.62 205.454 224.072 204.538 223.517L204.875 222.96C203.954 222.402 203.044 221.836 202.146 221.262L201.796 221.811C200.881 221.227 199.979 220.635 199.089 220.035L199.453 219.495C198.562 218.895 197.683 218.286 196.817 217.67L196.44 218.201C195.554 217.571 194.682 216.933 193.822 216.287L194.214 215.767C193.355 215.121 192.509 214.468 191.678 213.807L191.273 214.316C190.422 213.641 189.586 212.957 188.765 212.265L189.184 211.767C188.36 211.074 187.551 210.373 186.758 209.664L186.324 210.149C185.517 209.428 184.725 208.699 183.949 207.963L184.397 207.491C183.615 206.748 182.848 205.997 182.099 205.239L181.636 205.697C180.876 204.928 180.133 204.152 179.407 203.368L179.885 202.926C179.152 202.135 178.437 201.336 177.74 200.529L177.248 200.955C176.539 200.135 175.849 199.307 175.178 198.472L175.686 198.064C175.014 197.228 174.361 196.384 173.728 195.534L173.206 195.922C172.558 195.051 171.93 194.172 171.322 193.286L171.859 192.918C171.252 192.032 170.666 191.139 170.102 190.24L169.55 190.586C168.975 189.67 168.422 188.747 167.892 187.817L168.457 187.494C167.924 186.561 167.414 185.62 166.928 184.673L166.349 184.971C165.855 184.01 165.384 183.042 164.937 182.067L165.529 181.796C165.083 180.823 164.661 179.843 164.264 178.857L163.66 179.1C163.256 178.097 162.877 177.088 162.524 176.072L163.139 175.858C162.788 174.849 162.462 173.834 162.163 172.813L161.538 172.996C161.234 171.962 160.957 170.921 160.707 169.874L161.34 169.723C161.092 168.686 160.87 167.643 160.676 166.594L160.036 166.713C159.84 165.655 159.671 164.591 159.53 163.523L160.175 163.437C160.036 162.382 159.924 161.321 159.84 160.255L159.191 160.306C159.106 159.236 159.05 158.162 159.021 157.083L159.672 157.066C159.658 156.532 159.651 155.998 159.651 155.462C159.651 154.926 159.658 154.391 159.672 153.858L159.021 153.841C159.05 152.762 159.106 151.687 159.191 150.618L159.84 150.669C159.924 149.603 160.036 148.542 160.175 147.486L159.53 147.401C159.671 146.332 159.84 145.269 160.036 144.211L160.676 144.329C160.87 143.281 161.092 142.238 161.34 141.201L160.707 141.05C160.957 140.003 161.234 138.962 161.538 137.927L162.162 138.111C162.462 137.09 162.788 136.075 163.139 135.066L162.524 134.852C162.877 133.836 163.256 132.826 163.66 131.824L164.264 132.067C164.661 131.081 165.083 130.101 165.529 129.128L164.937 128.857C165.384 127.882 165.855 126.914 166.349 125.953L166.928 126.25C167.414 125.303 167.924 124.363 168.457 123.43L167.891 123.107C168.422 122.177 168.975 121.254 169.55 120.338L170.101 120.684C170.666 119.784 171.252 118.892 171.859 118.006L171.322 117.638C171.93 116.752 172.558 115.873 173.206 115.002L173.728 115.39C174.361 114.539 175.014 113.696 175.686 112.86L175.178 112.452C175.849 111.617 176.539 110.789 177.248 109.969L177.74 110.395C178.437 109.588 179.152 108.789 179.885 107.998L179.407 107.556C180.133 106.772 180.876 105.996 181.636 105.227L182.099 105.685C182.848 104.927 183.615 104.176 184.397 103.433L183.949 102.961C184.725 102.224 185.517 101.496 186.324 100.775L186.758 101.26C187.551 100.551 188.36 99.8499 189.184 99.1563L188.765 98.6584C189.586 97.9669 190.422 97.2831 191.273 96.6073L191.678 97.1169C192.509 96.456 193.355 95.8026 194.214 95.1571L193.822 94.6367C194.682 93.991 195.554 93.353 196.44 92.723L196.817 93.2534C197.683 92.6375 198.562 92.0292 199.453 91.4286L199.089 90.8888C199.979 90.2892 200.881 89.6973 201.796 89.1133L202.146 89.6618C203.044 89.0881 203.954 88.522 204.875 87.9637L204.538 87.407C205.454 86.8517 206.382 86.3041 207.32 85.7644L207.645 86.3287C208.571 85.7962 209.508 85.2714 210.455 84.7545L210.143 84.1831C211.083 83.6704 212.033 83.1655 212.993 82.6684L213.292 83.2464C214.242 82.7543 215.203 82.2699 216.172 81.7934L215.885 81.2092C216.845 80.7376 217.815 80.2737 218.793 79.8176L219.068 80.4076C220.039 79.955 221.02 79.5101 222.009 79.073L221.746 78.4776C222.724 78.0456 223.71 77.6213 224.705 77.2048L224.957 77.8053C225.946 77.3911 226.944 76.9847 227.95 76.5862L227.71 75.9811C228.703 75.5874 229.705 75.2014 230.714 74.8232L230.943 75.4327C231.948 75.0562 232.96 74.6875 233.98 74.3265L233.763 73.7129C234.771 73.3564 235.786 73.0075 236.808 72.6665L237.014 73.2839C238.032 72.9442 239.057 72.6122 240.089 72.2881L239.894 71.667C240.914 71.3467 241.941 71.0339 242.975 70.729L243.159 71.3533C244.188 71.0495 245.224 70.7535 246.266 70.4653L246.093 69.838C247.124 69.5528 248.161 69.2753 249.205 69.0056L249.368 69.6358C250.406 69.3673 251.451 69.1065 252.502 68.8535L252.349 68.2207C253.39 67.97 254.437 67.727 255.489 67.4917L255.631 68.127C256.678 67.893 257.73 67.6667 258.787 67.4483L258.656 66.8108C259.705 66.5939 260.76 66.3847 261.82 66.1833L261.942 66.8227C262.994 66.6227 264.052 66.4303 265.115 66.2457L265.004 65.6044C266.061 65.4207 267.123 65.2448 268.19 65.0766L268.291 65.7196C269.349 65.5528 270.411 65.3937 271.478 65.2424L271.387 64.5979C272.451 64.447 273.519 64.3038 274.592 64.1684L274.673 64.8142C275.735 64.6802 276.8 64.5539 277.87 64.4353L277.798 63.7883C278.868 63.6698 279.941 63.5589 281.019 63.4559L281.081 64.1038C282.145 64.0021 283.213 63.908 284.284 63.8216L284.232 63.1728C285.306 63.0862 286.384 63.0074 287.466 62.9364L287.508 63.5859C288.574 63.516 289.643 63.4536 290.715 63.3991L290.682 62.749C291.757 62.6942 292.836 62.6472 293.918 62.608L293.941 63.2585C295.01 63.2198 296.082 63.1887 297.157 63.1654L297.142 62.5146C298.218 62.4913 299.296 62.4756 300.376 62.4678L300.381 63.1187C300.92 63.1148 301.46 63.1129 302 63.1129C302.54 63.1129 303.08 63.1148 303.619 63.1187L303.623 62.4678C304.704 62.4756 305.782 62.4913 306.857 62.5146L306.843 63.1654C307.918 63.1887 308.99 63.2198 310.059 63.2585L310.082 62.608C311.164 62.6472 312.243 62.6942 313.318 62.749L313.285 63.3991C314.357 63.4537 315.426 63.516 316.492 63.5859L316.534 62.9364C317.616 63.0074 318.694 63.0862 319.768 63.1728L319.716 63.8216C320.787 63.908 321.855 64.0021 322.919 64.1038L322.981 63.4559C324.059 63.5589 325.132 63.6698 326.202 63.7883L326.13 64.4353C327.2 64.5539 328.265 64.6802 329.327 64.8142L329.408 64.1684C330.481 64.3038 331.549 64.447 332.613 64.5979L332.522 65.2424C333.589 65.3937 334.651 65.5528 335.709 65.7196L335.81 65.0766C336.877 65.2448 337.939 65.4208 338.996 65.6044L338.885 66.2457C339.948 66.4303 341.005 66.6227 342.058 66.8228L342.18 66.1833C343.24 66.3847 344.295 66.594 345.344 66.8108L345.213 67.4483C346.27 67.6667 347.322 67.893 348.369 68.127L348.511 67.4918C349.563 67.727 350.61 67.97 351.651 68.2207L351.498 68.8535C352.549 69.1065 353.594 69.3673 354.632 69.6358L354.795 69.0056C355.839 69.2754 356.876 69.5528 357.907 69.838L357.734 70.4654C358.776 70.7535 359.812 71.0496 360.841 71.3533L361.025 70.729C362.059 71.034 363.086 71.3467 364.106 71.6671L363.911 72.2881C364.943 72.6122 365.968 72.9442 366.986 73.2839L367.192 72.6665C368.214 73.0076 369.229 73.3564 370.237 73.7129L370.02 74.3266C371.04 74.6875 372.052 75.0563 373.057 75.4328L373.286 74.8232C374.295 75.2014 375.297 75.5874 376.29 75.9811L376.05 76.5862C377.056 76.9848 378.054 77.3912 379.043 77.8053L379.295 77.2049C380.29 77.6214 381.276 78.0457 382.254 78.4776L381.991 79.073C382.98 79.5101 383.961 79.955 384.932 80.4077L385.207 79.8177C386.185 80.2737 387.155 80.7377 388.115 81.2093L387.828 81.7935C388.797 82.27 389.758 82.7543 390.708 83.2464L391.007 82.6684C391.967 83.1655 392.917 83.6705 393.857 84.1832L393.545 84.7545C394.492 85.2715 395.429 85.7962 396.355 86.3287L396.68 85.7644C397.618 86.3041 398.546 86.8517 399.462 87.407L399.125 87.9637C400.046 88.522 400.956 89.0881 401.854 89.6618L402.204 89.1133C403.119 89.6973 404.021 90.2892 404.911 90.8889L404.547 91.4287C405.438 92.0292 406.317 92.6376 407.183 93.2535L407.56 92.723C408.446 93.353 409.318 93.991 410.178 94.6368L409.786 95.1571C410.645 95.8027 411.491 96.456 412.322 97.1169L412.727 96.6073C413.578 97.2832 414.414 97.9669 415.235 98.6584L414.816 99.1564C415.64 99.85 416.449 100.551 417.242 101.26L417.676 100.775C418.483 101.496 419.275 102.224 420.051 102.961L419.603 103.433C420.385 104.176 421.152 104.927 421.901 105.685L422.364 105.227C423.124 105.996 423.867 106.772 424.593 107.556L424.115 107.998C424.848 108.789 425.563 109.588 426.26 110.395L426.752 109.969C427.461 110.789 428.151 111.617 428.822 112.452L428.314 112.86C428.986 113.696 429.639 114.539 430.272 115.39L430.794 115.002C431.442 115.873 432.07 116.752 432.678 117.638L432.141 118.006C432.748 118.892 433.334 119.784 433.898 120.684L434.45 120.338C435.025 121.254 435.578 122.177 436.108 123.107L435.543 123.43C436.076 124.363 436.586 125.303 437.072 126.25L437.651 125.953C438.145 126.914 438.616 127.882 439.063 128.857L438.471 129.128C438.917 130.101 439.339 131.081 439.736 132.067L440.34 131.824C440.744 132.826 441.123 133.836 441.476 134.852L440.861 135.066C441.212 136.075 441.538 137.09 441.837 138.111L442.462 137.927C442.766 138.962 443.043 140.003 443.293 141.05L442.66 141.201C442.908 142.238 443.13 143.281 443.324 144.329L443.964 144.211C444.16 145.269 444.329 146.332 444.47 147.401L443.825 147.486C443.964 148.542 444.076 149.603 444.16 150.669L444.809 150.618Z" stroke="url(#paint0_linear_558_17669)" stroke-width="1.30182" stroke-dasharray="3.25 3.25"/>
<path d="M444.809 273.618C444.894 274.687 444.95 275.762 444.979 276.841L444.328 276.858C444.342 277.391 444.349 277.926 444.349 278.462C444.349 278.998 444.342 279.533 444.328 280.066L444.979 280.083C444.95 281.162 444.894 282.236 444.809 283.306L444.16 283.255C444.076 284.321 443.964 285.382 443.825 286.437L444.47 286.523C444.329 287.591 444.16 288.655 443.964 289.713L443.324 289.594C443.13 290.643 442.908 291.686 442.66 292.723L443.293 292.874C443.043 293.921 442.766 294.962 442.462 295.996L441.838 295.813C441.538 296.834 441.212 297.849 440.861 298.858L441.476 299.072C441.123 300.088 440.744 301.097 440.34 302.1L439.736 301.857C439.339 302.843 438.917 303.823 438.471 304.796L439.063 305.067C438.616 306.042 438.146 307.01 437.651 307.971L437.072 307.673C436.586 308.62 436.076 309.561 435.543 310.494L436.109 310.817C435.578 311.747 435.025 312.67 434.45 313.586L433.899 313.24C433.334 314.139 432.748 315.032 432.141 315.918L432.678 316.286C432.071 317.172 431.442 318.051 430.794 318.922L430.272 318.534C429.639 319.384 428.986 320.228 428.314 321.064L428.822 321.472C428.151 322.307 427.461 323.135 426.752 323.955L426.26 323.529C425.563 324.336 424.848 325.135 424.115 325.926L424.593 326.368C423.867 327.152 423.124 327.928 422.364 328.697L421.901 328.239C421.152 328.997 420.385 329.748 419.603 330.491L420.051 330.963C419.275 331.699 418.483 332.428 417.676 333.149L417.242 332.664C416.449 333.373 415.64 334.074 414.816 334.768L415.235 335.265C414.414 335.957 413.578 336.641 412.727 337.317L412.322 336.807C411.491 337.468 410.645 338.121 409.786 338.767L410.178 339.287C409.318 339.933 408.446 340.571 407.56 341.201L407.183 340.67C406.317 341.286 405.438 341.895 404.547 342.495L404.911 343.035C404.021 343.635 403.119 344.227 402.204 344.811L401.854 344.262C400.956 344.836 400.046 345.402 399.125 345.96L399.462 346.517C398.546 347.072 397.618 347.62 396.68 348.159L396.355 347.595C395.429 348.128 394.492 348.652 393.545 349.169L393.857 349.741C392.917 350.253 391.967 350.758 391.007 351.255L390.708 350.677C389.758 351.17 388.797 351.654 387.828 352.13L388.115 352.715C387.155 353.186 386.185 353.65 385.207 354.106L384.932 353.516C383.961 353.969 382.98 354.414 381.991 354.851L382.254 355.446C381.276 355.878 380.29 356.303 379.295 356.719L379.043 356.119C378.054 356.533 377.056 356.939 376.05 357.338L376.29 357.943C375.297 358.336 374.295 358.722 373.286 359.101L373.057 358.491C372.052 358.868 371.04 359.236 370.02 359.597L370.237 360.211C369.229 360.567 368.214 360.916 367.192 361.257L366.986 360.64C365.968 360.98 364.943 361.312 363.911 361.636L364.106 362.257C363.086 362.577 362.059 362.89 361.025 363.195L360.841 362.571C359.812 362.874 358.776 363.17 357.734 363.459L357.907 364.086C356.876 364.371 355.839 364.649 354.795 364.918L354.632 364.288C353.594 364.557 352.549 364.817 351.498 365.07L351.651 365.703C350.61 365.954 349.563 366.197 348.511 366.432L348.369 365.797C347.322 366.031 346.27 366.257 345.213 366.476L345.345 367.113C344.295 367.33 343.24 367.539 342.18 367.741L342.058 367.101C341.006 367.301 339.948 367.494 338.885 367.678L338.996 368.319C337.939 368.503 336.877 368.679 335.81 368.847L335.709 368.204C334.651 368.371 333.589 368.53 332.522 368.681L332.613 369.326C331.549 369.477 330.481 369.62 329.408 369.755L329.327 369.11C328.265 369.244 327.2 369.37 326.13 369.489L326.202 370.136C325.132 370.254 324.059 370.365 322.981 370.468L322.919 369.82C321.855 369.922 320.787 370.016 319.716 370.102L319.768 370.751C318.694 370.838 317.616 370.916 316.534 370.987L316.492 370.338C315.426 370.408 314.357 370.47 313.285 370.525L313.318 371.175C312.243 371.23 311.164 371.277 310.082 371.316L310.059 370.665C308.99 370.704 307.918 370.735 306.843 370.758L306.858 371.409C305.782 371.433 304.704 371.448 303.624 371.456L303.619 370.805C303.08 370.809 302.54 370.811 302 370.811C301.46 370.811 300.92 370.809 300.381 370.805L300.377 371.456C299.296 371.448 298.218 371.433 297.143 371.409L297.157 370.758C296.082 370.735 295.01 370.704 293.941 370.665L293.918 371.316C292.836 371.277 291.757 371.23 290.682 371.175L290.715 370.525C289.643 370.47 288.574 370.408 287.509 370.338L287.466 370.987C286.384 370.916 285.306 370.838 284.232 370.751L284.284 370.102C283.213 370.016 282.145 369.922 281.081 369.82L281.019 370.468C279.941 370.365 278.868 370.254 277.798 370.136L277.87 369.489C276.8 369.37 275.735 369.244 274.673 369.11L274.592 369.755C273.519 369.62 272.451 369.477 271.387 369.326L271.478 368.681C270.411 368.53 269.349 368.371 268.291 368.204L268.19 368.847C267.123 368.679 266.061 368.503 265.004 368.319L265.115 367.678C264.052 367.494 262.995 367.301 261.942 367.101L261.82 367.741C260.76 367.539 259.705 367.33 258.656 367.113L258.787 366.476C257.73 366.257 256.678 366.031 255.631 365.797L255.489 366.432C254.437 366.197 253.39 365.954 252.349 365.703L252.502 365.07C251.451 364.817 250.406 364.557 249.368 364.288L249.205 364.918C248.161 364.648 247.124 364.371 246.093 364.086L246.266 363.458C245.224 363.17 244.188 362.874 243.159 362.571L242.975 363.195C241.941 362.89 240.914 362.577 239.894 362.257L240.089 361.636C239.057 361.312 238.032 360.98 237.014 360.64L236.808 361.257C235.786 360.916 234.771 360.567 233.763 360.211L233.98 359.597C232.96 359.236 231.948 358.868 230.943 358.491L230.714 359.101C229.705 358.722 228.703 358.336 227.71 357.943L227.95 357.338C226.944 356.939 225.946 356.533 224.957 356.119L224.705 356.719C223.71 356.302 222.724 355.878 221.746 355.446L222.009 354.851C221.02 354.414 220.039 353.969 219.068 353.516L218.793 354.106C217.815 353.65 216.845 353.186 215.885 352.715L216.172 352.13C215.203 351.654 214.242 351.169 213.292 350.677L212.993 351.255C212.033 350.758 211.083 350.253 210.143 349.741L210.455 349.169C209.508 348.652 208.571 348.128 207.645 347.595L207.32 348.159C206.382 347.62 205.454 347.072 204.538 346.517L204.875 345.96C203.954 345.402 203.044 344.836 202.146 344.262L201.796 344.811C200.881 344.227 199.979 343.635 199.089 343.035L199.453 342.495C198.562 341.895 197.683 341.286 196.817 340.67L196.44 341.201C195.554 340.571 194.682 339.933 193.822 339.287L194.214 338.767C193.355 338.121 192.509 337.468 191.678 336.807L191.273 337.316C190.422 336.641 189.586 335.957 188.765 335.265L189.184 334.767C188.36 334.074 187.551 333.373 186.758 332.664L186.324 333.149C185.517 332.428 184.725 331.699 183.949 330.963L184.397 330.491C183.615 329.748 182.848 328.997 182.099 328.239L181.636 328.697C180.876 327.928 180.133 327.152 179.407 326.368L179.885 325.926C179.152 325.135 178.437 324.336 177.74 323.529L177.248 323.955C176.539 323.135 175.849 322.307 175.178 321.472L175.686 321.064C175.014 320.228 174.361 319.384 173.728 318.534L173.206 318.922C172.558 318.051 171.93 317.172 171.322 316.286L171.859 315.918C171.252 315.032 170.666 314.139 170.102 313.24L169.55 313.586C168.975 312.67 168.422 311.747 167.892 310.817L168.457 310.494C167.924 309.561 167.414 308.62 166.928 307.673L166.349 307.971C165.855 307.01 165.384 306.042 164.937 305.067L165.529 304.796C165.083 303.823 164.661 302.843 164.264 301.857L163.66 302.1C163.256 301.097 162.877 300.088 162.524 299.072L163.139 298.858C162.788 297.849 162.462 296.834 162.163 295.813L161.538 295.996C161.234 294.962 160.957 293.921 160.707 292.874L161.34 292.723C161.092 291.686 160.87 290.643 160.676 289.594L160.036 289.713C159.84 288.655 159.671 287.591 159.53 286.523L160.175 286.437C160.036 285.382 159.924 284.321 159.84 283.255L159.191 283.306C159.106 282.236 159.05 281.162 159.021 280.083L159.672 280.066C159.658 279.532 159.651 278.998 159.651 278.462C159.651 277.926 159.658 277.391 159.672 276.858L159.021 276.841C159.05 275.762 159.106 274.687 159.191 273.618L159.84 273.669C159.924 272.603 160.036 271.542 160.175 270.486L159.53 270.401C159.671 269.332 159.84 268.269 160.036 267.211L160.676 267.329C160.87 266.281 161.092 265.238 161.34 264.201L160.707 264.05C160.957 263.003 161.234 261.962 161.538 260.927L162.162 261.111C162.462 260.09 162.788 259.075 163.139 258.066L162.524 257.852C162.877 256.836 163.256 255.826 163.66 254.824L164.264 255.067C164.661 254.081 165.083 253.101 165.529 252.128L164.937 251.857C165.384 250.882 165.855 249.914 166.349 248.953L166.928 249.25C167.414 248.303 167.924 247.363 168.457 246.43L167.891 246.107C168.422 245.177 168.975 244.254 169.55 243.338L170.101 243.684C170.666 242.784 171.252 241.892 171.859 241.006L171.322 240.638C171.93 239.752 172.558 238.873 173.206 238.002L173.728 238.39C174.361 237.539 175.014 236.696 175.686 235.86L175.178 235.452C175.849 234.617 176.539 233.789 177.248 232.969L177.74 233.395C178.437 232.588 179.152 231.789 179.885 230.998L179.407 230.556C180.133 229.772 180.876 228.996 181.636 228.227L182.099 228.685C182.848 227.927 183.615 227.176 184.397 226.433L183.949 225.961C184.725 225.224 185.517 224.496 186.324 223.775L186.758 224.26C187.551 223.551 188.36 222.85 189.184 222.156L188.765 221.658C189.586 220.967 190.422 220.283 191.273 219.607L191.678 220.117C192.509 219.456 193.355 218.803 194.214 218.157L193.822 217.637C194.682 216.991 195.554 216.353 196.44 215.723L196.817 216.253C197.683 215.638 198.562 215.029 199.453 214.429L199.089 213.889C199.979 213.289 200.881 212.697 201.796 212.113L202.146 212.662C203.044 212.088 203.954 211.522 204.875 210.964L204.538 210.407C205.454 209.852 206.382 209.304 207.32 208.764L207.645 209.329C208.571 208.796 209.508 208.271 210.455 207.755L210.143 207.183C211.083 206.67 212.033 206.165 212.993 205.668L213.292 206.246C214.242 205.754 215.203 205.27 216.172 204.793L215.885 204.209C216.845 203.738 217.815 203.274 218.793 202.818L219.068 203.408C220.039 202.955 221.02 202.51 222.009 202.073L221.746 201.478C222.724 201.046 223.71 200.621 224.705 200.205L224.957 200.805C225.946 200.391 226.944 199.985 227.95 199.586L227.71 198.981C228.703 198.587 229.705 198.201 230.714 197.823L230.943 198.433C231.948 198.056 232.96 197.687 233.98 197.327L233.763 196.713C234.771 196.356 235.786 196.008 236.808 195.666L237.014 196.284C238.032 195.944 239.057 195.612 240.089 195.288L239.894 194.667C240.914 194.347 241.941 194.034 242.975 193.729L243.159 194.353C244.188 194.05 245.224 193.754 246.266 193.465L246.093 192.838C247.124 192.553 248.161 192.275 249.205 192.006L249.368 192.636C250.406 192.367 251.451 192.106 252.502 191.854L252.349 191.221C253.39 190.97 254.437 190.727 255.489 190.492L255.631 191.127C256.678 190.893 257.73 190.667 258.787 190.448L258.656 189.811C259.705 189.594 260.76 189.385 261.82 189.183L261.942 189.823C262.994 189.623 264.052 189.43 265.115 189.246L265.004 188.604C266.061 188.421 267.123 188.245 268.19 188.077L268.291 188.72C269.349 188.553 270.411 188.394 271.478 188.242L271.387 187.598C272.451 187.447 273.519 187.304 274.592 187.168L274.673 187.814C275.735 187.68 276.8 187.554 277.87 187.435L277.798 186.788C278.868 186.67 279.941 186.559 281.019 186.456L281.081 187.104C282.145 187.002 283.213 186.908 284.284 186.822L284.232 186.173C285.306 186.086 286.384 186.007 287.466 185.936L287.508 186.586C288.574 186.516 289.643 186.454 290.715 186.399L290.682 185.749C291.757 185.694 292.836 185.647 293.918 185.608L293.941 186.258C295.01 186.22 296.082 186.189 297.157 186.165L297.142 185.515C298.218 185.491 299.296 185.476 300.376 185.468L300.381 186.119C300.92 186.115 301.46 186.113 302 186.113C302.54 186.113 303.08 186.115 303.619 186.119L303.623 185.468C304.704 185.476 305.782 185.491 306.857 185.515L306.843 186.165C307.918 186.189 308.99 186.22 310.059 186.258L310.082 185.608C311.164 185.647 312.243 185.694 313.318 185.749L313.285 186.399C314.357 186.454 315.426 186.516 316.492 186.586L316.534 185.936C317.616 186.007 318.694 186.086 319.768 186.173L319.716 186.822C320.787 186.908 321.855 187.002 322.919 187.104L322.981 186.456C324.059 186.559 325.132 186.67 326.202 186.788L326.13 187.435C327.2 187.554 328.265 187.68 329.327 187.814L329.408 187.168C330.481 187.304 331.549 187.447 332.613 187.598L332.522 188.242C333.589 188.394 334.651 188.553 335.709 188.72L335.81 188.077C336.877 188.245 337.939 188.421 338.996 188.604L338.885 189.246C339.948 189.43 341.005 189.623 342.058 189.823L342.18 189.183C343.24 189.385 344.295 189.594 345.344 189.811L345.213 190.448C346.27 190.667 347.322 190.893 348.369 191.127L348.511 190.492C349.563 190.727 350.61 190.97 351.651 191.221L351.498 191.854C352.549 192.107 353.594 192.367 354.632 192.636L354.795 192.006C355.839 192.275 356.876 192.553 357.907 192.838L357.734 193.465C358.776 193.754 359.812 194.05 360.841 194.353L361.025 193.729C362.059 194.034 363.086 194.347 364.106 194.667L363.911 195.288C364.943 195.612 365.968 195.944 366.986 196.284L367.192 195.666C368.214 196.008 369.229 196.356 370.237 196.713L370.02 197.327C371.04 197.687 372.052 198.056 373.057 198.433L373.286 197.823C374.295 198.201 375.297 198.587 376.29 198.981L376.05 199.586C377.056 199.985 378.054 200.391 379.043 200.805L379.295 200.205C380.29 200.621 381.276 201.046 382.254 201.478L381.991 202.073C382.98 202.51 383.961 202.955 384.932 203.408L385.207 202.818C386.185 203.274 387.155 203.738 388.115 204.209L387.828 204.793C388.797 205.27 389.758 205.754 390.708 206.246L391.007 205.668C391.967 206.166 392.917 206.67 393.857 207.183L393.545 207.755C394.492 208.271 395.429 208.796 396.355 209.329L396.68 208.764C397.618 209.304 398.546 209.852 399.462 210.407L399.125 210.964C400.046 211.522 400.956 212.088 401.854 212.662L402.204 212.113C403.119 212.697 404.021 213.289 404.911 213.889L404.547 214.429C405.438 215.029 406.317 215.638 407.183 216.253L407.56 215.723C408.446 216.353 409.318 216.991 410.178 217.637L409.786 218.157C410.645 218.803 411.491 219.456 412.322 220.117L412.727 219.607C413.578 220.283 414.414 220.967 415.235 221.658L414.816 222.156C415.64 222.85 416.449 223.551 417.242 224.26L417.676 223.775C418.483 224.496 419.275 225.224 420.051 225.961L419.603 226.433C420.385 227.176 421.152 227.927 421.901 228.685L422.364 228.227C423.124 228.996 423.867 229.772 424.593 230.556L424.115 230.998C424.848 231.789 425.563 232.588 426.26 233.395L426.752 232.969C427.461 233.789 428.151 234.617 428.822 235.452L428.314 235.86C428.986 236.696 429.639 237.539 430.272 238.39L430.794 238.002C431.442 238.873 432.07 239.752 432.678 240.638L432.141 241.006C432.748 241.892 433.334 242.784 433.898 243.684L434.45 243.338C435.025 244.254 435.578 245.177 436.108 246.107L435.543 246.43C436.076 247.363 436.586 248.303 437.072 249.25L437.651 248.953C438.145 249.914 438.616 250.882 439.063 251.857L438.471 252.128C438.917 253.101 439.339 254.081 439.736 255.067L440.34 254.824C440.744 255.826 441.123 256.836 441.476 257.852L440.861 258.066C441.212 259.075 441.538 260.09 441.837 261.111L442.462 260.927C442.766 261.962 443.043 263.003 443.293 264.05L442.66 264.201C442.908 265.238 443.13 266.281 443.324 267.329L443.964 267.211C444.16 268.269 444.329 269.332 444.47 270.401L443.825 270.486C443.964 271.542 444.076 272.603 444.16 273.669L444.809 273.618Z" stroke="url(#paint1_linear_558_17669)" stroke-width="1.30182" stroke-dasharray="3.25 3.25"/>
<path d="M444.808 212.127C444.893 213.194 444.95 214.267 444.979 215.344L444.328 215.361C444.342 215.893 444.349 216.427 444.349 216.962C444.349 217.497 444.342 218.03 444.328 218.563L444.979 218.58C444.95 219.657 444.893 220.73 444.808 221.797L444.159 221.745C444.074 222.809 443.962 223.868 443.821 224.921L444.467 225.007C444.325 226.074 444.154 227.135 443.957 228.191L443.317 228.072C443.121 229.117 442.899 230.158 442.649 231.193L443.282 231.345C443.03 232.389 442.751 233.428 442.445 234.46L441.821 234.275C441.52 235.293 441.192 236.306 440.839 237.312L441.453 237.527C441.098 238.54 440.716 239.547 440.31 240.546L439.707 240.301C439.308 241.284 438.884 242.261 438.435 243.231L439.026 243.504C438.577 244.475 438.104 245.44 437.607 246.398L437.029 246.098C436.54 247.041 436.028 247.978 435.493 248.907L436.057 249.232C435.524 250.159 434.968 251.078 434.391 251.991L433.841 251.642C433.274 252.538 432.686 253.426 432.076 254.308L432.612 254.678C432.002 255.56 431.372 256.435 430.721 257.302L430.201 256.911C429.565 257.758 428.91 258.598 428.236 259.43L428.742 259.84C428.069 260.67 427.377 261.493 426.666 262.309L426.176 261.881C425.477 262.684 424.759 263.479 424.024 264.266L424.5 264.71C423.773 265.489 423.028 266.261 422.267 267.024L421.806 266.565C421.055 267.318 420.287 268.064 419.503 268.803L419.949 269.276C419.172 270.009 418.378 270.733 417.569 271.45L417.137 270.963C416.343 271.667 415.533 272.364 414.708 273.052L415.125 273.552C414.302 274.239 413.465 274.919 412.613 275.591L412.21 275.08C411.377 275.736 410.532 276.384 409.672 277.025L410.061 277.547C409.201 278.188 408.328 278.821 407.442 279.447L407.067 278.915C406.2 279.527 405.32 280.131 404.428 280.728L404.79 281.269C403.9 281.864 402.998 282.451 402.083 283.031L401.735 282.481C400.836 283.051 399.925 283.613 399.004 284.167L399.339 284.725C398.423 285.276 397.495 285.819 396.557 286.355L396.234 285.789C395.308 286.318 394.371 286.839 393.423 287.352L393.733 287.925C392.794 288.433 391.844 288.934 390.885 289.427L390.588 288.848C389.637 289.336 388.677 289.817 387.707 290.29L387.992 290.875C387.033 291.343 386.064 291.803 385.087 292.255L384.813 291.664C383.842 292.114 382.862 292.555 381.873 292.989L382.134 293.585C381.158 294.013 380.172 294.434 379.178 294.847L378.929 294.246C377.94 294.656 376.942 295.06 375.937 295.455L376.175 296.061C375.183 296.451 374.182 296.834 373.174 297.209L372.947 296.599C371.943 296.972 370.932 297.338 369.912 297.696L370.128 298.31C369.121 298.663 368.108 299.009 367.087 299.347L366.882 298.729C365.865 299.066 364.841 299.395 363.809 299.717L364.003 300.338C362.985 300.656 361.959 300.966 360.927 301.268L360.744 300.643C359.716 300.945 358.681 301.238 357.64 301.524L357.813 302.152C356.783 302.434 355.747 302.709 354.706 302.976L354.544 302.346C353.506 302.612 352.463 302.871 351.414 303.122L351.565 303.755C350.526 304.003 349.481 304.244 348.43 304.477L348.289 303.842C347.244 304.074 346.193 304.298 345.137 304.514L345.268 305.152C344.22 305.367 343.167 305.574 342.109 305.774L341.988 305.134C340.937 305.333 339.881 305.523 338.82 305.706L338.93 306.348C337.875 306.53 336.815 306.704 335.75 306.871L335.649 306.228C334.593 306.393 333.532 306.551 332.467 306.701L332.558 307.345C331.496 307.495 330.43 307.637 329.359 307.771L329.278 307.125C328.218 307.258 327.154 307.383 326.087 307.5L326.158 308.147C325.09 308.265 324.018 308.375 322.943 308.477L322.881 307.829C321.819 307.93 320.753 308.023 319.684 308.109L319.736 308.757C318.663 308.843 317.587 308.921 316.508 308.992L316.465 308.342C315.402 308.412 314.335 308.473 313.265 308.527L313.297 309.177C312.224 309.232 311.147 309.278 310.067 309.317L310.044 308.667C308.977 308.705 307.907 308.736 306.835 308.759L306.849 309.41C305.776 309.433 304.699 309.448 303.621 309.456L303.616 308.805C303.078 308.809 302.539 308.811 302 308.811C301.461 308.811 300.922 308.809 300.384 308.805L300.379 309.456C299.301 309.448 298.224 309.433 297.151 309.41L297.165 308.759C296.093 308.736 295.023 308.705 293.956 308.667L293.933 309.317C292.853 309.278 291.776 309.232 290.703 309.177L290.735 308.527C289.665 308.473 288.598 308.412 287.535 308.342L287.492 308.992C286.413 308.921 285.337 308.843 284.264 308.757L284.316 308.109C283.247 308.023 282.181 307.93 281.119 307.829L281.057 308.477C279.981 308.375 278.91 308.265 277.842 308.147L277.913 307.5C276.845 307.383 275.782 307.258 274.722 307.125L274.641 307.771C273.57 307.637 272.504 307.495 271.442 307.345L271.533 306.701C270.468 306.551 269.407 306.393 268.351 306.228L268.25 306.871C267.185 306.704 266.125 306.53 265.07 306.348L265.18 305.706C264.119 305.523 263.063 305.333 262.011 305.134L261.891 305.774C260.833 305.574 259.78 305.367 258.732 305.152L258.862 304.514C257.807 304.298 256.756 304.073 255.711 303.842L255.57 304.477C254.519 304.244 253.474 304.003 252.435 303.755L252.586 303.122C251.537 302.871 250.494 302.612 249.456 302.346L249.294 302.976C248.253 302.709 247.217 302.434 246.187 302.151L246.36 301.524C245.319 301.238 244.284 300.944 243.255 300.643L243.073 301.268C242.041 300.966 241.015 300.656 239.997 300.338L240.191 299.717C239.159 299.395 238.135 299.066 237.118 298.729L236.913 299.347C235.892 299.009 234.878 298.663 233.872 298.31L234.088 297.696C233.068 297.338 232.057 296.972 231.053 296.598L230.826 297.209C229.818 296.834 228.817 296.451 227.825 296.061L228.063 295.455C227.058 295.06 226.06 294.656 225.071 294.246L224.822 294.847C223.828 294.434 222.842 294.013 221.866 293.585L222.127 292.989C221.138 292.555 220.158 292.113 219.187 291.664L218.913 292.255C217.936 291.803 216.967 291.343 216.008 290.875L216.293 290.29C215.323 289.817 214.363 289.336 213.412 288.848L213.115 289.427C212.156 288.934 211.206 288.433 210.267 287.925L210.577 287.352C209.629 286.839 208.692 286.318 207.766 285.789L207.443 286.355C206.505 285.819 205.577 285.276 204.661 284.725L204.996 284.167C204.074 283.613 203.164 283.051 202.265 282.481L201.917 283.031C201.002 282.451 200.1 281.864 199.21 281.269L199.572 280.728C198.68 280.131 197.8 279.527 196.933 278.915L196.558 279.447C195.672 278.821 194.799 278.188 193.939 277.547L194.328 277.025C193.468 276.384 192.622 275.736 191.79 275.079L191.387 275.591C190.535 274.919 189.698 274.239 188.875 273.552L189.292 273.052C188.467 272.363 187.657 271.667 186.863 270.963L186.431 271.45C185.622 270.733 184.828 270.009 184.051 269.276L184.497 268.802C183.713 268.064 182.945 267.318 182.194 266.565L181.733 267.024C180.972 266.26 180.227 265.489 179.5 264.71L179.976 264.266C179.241 263.478 178.523 262.683 177.824 261.881L177.333 262.309C176.623 261.493 175.931 260.67 175.258 259.839L175.764 259.43C175.09 258.597 174.435 257.758 173.799 256.911L173.279 257.302C172.628 256.434 171.998 255.56 171.388 254.678L171.924 254.308C171.314 253.426 170.726 252.538 170.159 251.642L169.609 251.99C169.032 251.078 168.476 250.158 167.943 249.232L168.507 248.907C167.972 247.978 167.46 247.041 166.971 246.098L166.393 246.397C165.896 245.44 165.423 244.475 164.974 243.504L165.565 243.231C165.116 242.261 164.692 241.284 164.293 240.301L163.69 240.546C163.284 239.546 162.902 238.54 162.547 237.527L163.161 237.312C162.808 236.306 162.48 235.293 162.179 234.275L161.555 234.46C161.249 233.428 160.97 232.389 160.718 231.345L161.351 231.192C161.101 230.158 160.879 229.117 160.683 228.071L160.043 228.191C159.846 227.135 159.675 226.074 159.533 225.007L160.179 224.921C160.038 223.868 159.926 222.809 159.841 221.745L159.192 221.797C159.107 220.729 159.05 219.657 159.021 218.58L159.672 218.563C159.658 218.03 159.651 217.497 159.651 216.962C159.651 216.427 159.658 215.893 159.672 215.361L159.021 215.344C159.05 214.267 159.107 213.194 159.192 212.127L159.841 212.178C159.926 211.115 160.038 210.056 160.179 209.002L159.533 208.916C159.675 207.85 159.846 206.788 160.043 205.733L160.683 205.852C160.879 204.806 161.101 203.766 161.351 202.731L160.718 202.579C160.97 201.534 161.249 200.496 161.555 199.464L162.179 199.649C162.48 198.631 162.808 197.618 163.161 196.612L162.547 196.396C162.902 195.384 163.284 194.377 163.69 193.377L164.293 193.622C164.692 192.64 165.116 191.663 165.565 190.693L164.974 190.42C165.423 189.449 165.896 188.484 166.393 187.526L166.971 187.826C167.46 186.883 167.972 185.946 168.507 185.017L167.943 184.692C168.476 183.765 169.032 182.846 169.609 181.933L170.159 182.281C170.726 181.386 171.314 180.497 171.924 179.616L171.388 179.246C171.998 178.364 172.628 177.489 173.279 176.622L173.799 177.013C174.435 176.166 175.09 175.326 175.764 174.494L175.258 174.084C175.931 173.254 176.623 172.431 177.334 171.615L177.824 172.043C178.523 171.24 179.241 170.445 179.976 169.658L179.5 169.214C180.227 168.435 180.972 167.663 181.733 166.899L182.194 167.359C182.945 166.606 183.713 165.86 184.497 165.121L184.051 164.647C184.828 163.915 185.622 163.191 186.431 162.474L186.863 162.961C187.658 162.257 188.467 161.56 189.292 160.871L188.875 160.372C189.698 159.684 190.535 159.005 191.387 158.333L191.79 158.844C192.623 158.188 193.468 157.54 194.328 156.899L193.939 156.377C194.799 155.736 195.672 155.102 196.558 154.477L196.933 155.009C197.8 154.397 198.68 153.793 199.572 153.196L199.21 152.655C200.1 152.06 201.002 151.473 201.917 150.893L202.265 151.443C203.164 150.873 204.075 150.311 204.997 149.757L204.661 149.199C205.577 148.648 206.505 148.104 207.443 147.569L207.766 148.134C208.692 147.606 209.629 147.085 210.577 146.572L210.267 145.999C211.206 145.491 212.156 144.99 213.115 144.497L213.412 145.076C214.363 144.587 215.323 144.107 216.293 143.634L216.008 143.049C216.967 142.581 217.936 142.121 218.913 141.669L219.187 142.259C220.158 141.81 221.138 141.369 222.127 140.935L221.866 140.339C222.842 139.911 223.828 139.49 224.822 139.077L225.071 139.678C226.06 139.267 227.058 138.864 228.063 138.469L227.825 137.863C228.817 137.473 229.818 137.09 230.826 136.715L231.053 137.325C232.057 136.952 233.068 136.586 234.088 136.228L233.872 135.614C234.879 135.261 235.892 134.915 236.913 134.577L237.118 135.195C238.135 134.858 239.159 134.528 240.191 134.207L239.997 133.586C241.015 133.268 242.041 132.958 243.073 132.656L243.256 133.28C244.284 132.979 245.319 132.686 246.36 132.4L246.187 131.772C247.217 131.49 248.253 131.215 249.294 130.947L249.456 131.578C250.494 131.312 251.537 131.053 252.587 130.802L252.435 130.169C253.474 129.921 254.519 129.68 255.57 129.447L255.711 130.082C256.756 129.85 257.807 129.626 258.863 129.409L258.732 128.772C259.78 128.557 260.833 128.35 261.891 128.15L262.012 128.79C263.063 128.591 264.119 128.401 265.18 128.218L265.07 127.576C266.125 127.394 267.185 127.22 268.25 127.053L268.351 127.696C269.407 127.531 270.468 127.373 271.533 127.223L271.442 126.579C272.504 126.429 273.57 126.287 274.641 126.153L274.722 126.799C275.782 126.666 276.846 126.541 277.913 126.423L277.842 125.776C278.91 125.659 279.982 125.549 281.057 125.447L281.119 126.095C282.181 125.994 283.247 125.901 284.316 125.815L284.264 125.166C285.337 125.081 286.413 125.002 287.492 124.932L287.535 125.582C288.598 125.512 289.665 125.451 290.735 125.396L290.703 124.746C291.776 124.692 292.853 124.646 293.933 124.607L293.956 125.257C295.023 125.219 296.093 125.188 297.165 125.165L297.151 124.514C298.224 124.491 299.301 124.476 300.379 124.468L300.384 125.119C300.922 125.115 301.461 125.113 302 125.113C302.539 125.113 303.078 125.115 303.616 125.119L303.621 124.468C304.699 124.476 305.776 124.491 306.849 124.514L306.835 125.165C307.907 125.188 308.977 125.219 310.044 125.257L310.067 124.607C311.147 124.646 312.224 124.692 313.297 124.746L313.265 125.396C314.335 125.451 315.402 125.512 316.465 125.582L316.508 124.932C317.587 125.002 318.663 125.081 319.736 125.166L319.684 125.815C320.753 125.901 321.819 125.994 322.881 126.095L322.943 125.447C324.019 125.549 325.09 125.659 326.158 125.776L326.087 126.423C327.155 126.541 328.218 126.666 329.278 126.799L329.359 126.153C330.43 126.287 331.496 126.429 332.558 126.579L332.467 127.223C333.532 127.373 334.593 127.531 335.649 127.696L335.75 127.053C336.815 127.22 337.875 127.394 338.93 127.576L338.82 128.218C339.881 128.401 340.937 128.591 341.989 128.79L342.109 128.15C343.167 128.35 344.22 128.557 345.268 128.772L345.138 129.409C346.193 129.626 347.244 129.85 348.289 130.082L348.43 129.447C349.481 129.68 350.526 129.921 351.565 130.169L351.414 130.802C352.463 131.053 353.506 131.312 354.544 131.578L354.706 130.947C355.747 131.215 356.783 131.49 357.813 131.772L357.64 132.4C358.682 132.686 359.716 132.979 360.745 133.281L360.927 132.656C361.959 132.958 362.985 133.268 364.003 133.586L363.81 134.207C364.841 134.528 365.865 134.858 366.882 135.195L367.087 134.577C368.108 134.915 369.122 135.261 370.128 135.614L369.912 136.228C370.932 136.586 371.943 136.952 372.947 137.325L373.174 136.715C374.182 137.09 375.183 137.473 376.175 137.863L375.937 138.469C376.942 138.864 377.94 139.267 378.929 139.678L379.178 139.077C380.172 139.49 381.158 139.911 382.134 140.339L381.873 140.935C382.862 141.369 383.842 141.81 384.813 142.26L385.087 141.669C386.064 142.121 387.033 142.581 387.992 143.049L387.707 143.634C388.677 144.107 389.637 144.587 390.588 145.076L390.885 144.497C391.844 144.99 392.794 145.491 393.733 145.999L393.423 146.572C394.371 147.085 395.308 147.606 396.234 148.135L396.557 147.569C397.495 148.105 398.423 148.648 399.339 149.199L399.004 149.757C399.926 150.311 400.836 150.873 401.735 151.443L402.083 150.893C402.998 151.473 403.9 152.06 404.79 152.655L404.428 153.196C405.32 153.793 406.2 154.397 407.067 155.009L407.442 154.477C408.328 155.103 409.201 155.736 410.061 156.377L409.672 156.899C410.532 157.54 411.378 158.188 412.21 158.844L412.613 158.333C413.465 159.005 414.302 159.685 415.125 160.372L414.708 160.871C415.533 161.56 416.343 162.257 417.137 162.961L417.569 162.474C418.378 163.191 419.172 163.915 419.949 164.648L419.503 165.121C420.287 165.86 421.055 166.606 421.806 167.359L422.267 166.9C423.028 167.663 423.773 168.435 424.5 169.214L424.024 169.658C424.759 170.445 425.477 171.24 426.176 172.043L426.666 171.615C427.377 172.431 428.069 173.254 428.742 174.084L428.236 174.494C428.91 175.326 429.565 176.166 430.201 177.013L430.721 176.622C431.372 177.489 432.002 178.364 432.612 179.246L432.077 179.616C432.686 180.497 433.274 181.386 433.841 182.282L434.391 181.933C434.968 182.846 435.524 183.765 436.057 184.692L435.493 185.017C436.028 185.946 436.54 186.883 437.029 187.826L437.607 187.526C438.104 188.484 438.577 189.449 439.026 190.42L438.435 190.693C438.884 191.663 439.308 192.64 439.707 193.623L440.31 193.378C440.716 194.377 441.098 195.384 441.453 196.397L440.839 196.612C441.192 197.618 441.52 198.631 441.821 199.649L442.445 199.464C442.751 200.496 443.03 201.535 443.282 202.579L442.649 202.731C442.899 203.766 443.121 204.807 443.317 205.852L443.957 205.733C444.155 206.789 444.325 207.85 444.467 208.917L443.821 209.002C443.962 210.056 444.074 211.115 444.159 212.178L444.808 212.127Z" stroke="url(#paint2_linear_558_17669)" stroke-width="1.30182" stroke-dasharray="3.25 3.25"/>
<path d="M444.809 88.6178C444.894 89.6874 444.95 90.7617 444.979 91.8406L444.328 91.8577C444.342 92.3913 444.349 92.9261 444.349 93.462C444.349 93.9978 444.342 94.5325 444.328 95.0661L444.979 95.0832C444.95 96.1621 444.894 97.2364 444.809 98.306L444.16 98.2548C444.076 99.3206 443.964 100.382 443.825 101.437L444.47 101.523C444.329 102.591 444.16 103.655 443.964 104.713L443.324 104.594C443.13 105.643 442.908 106.686 442.66 107.723L443.293 107.874C443.043 108.921 442.766 109.962 442.462 110.996L441.838 110.813C441.538 111.834 441.212 112.849 440.861 113.858L441.476 114.072C441.123 115.088 440.744 116.097 440.34 117.1L439.736 116.857C439.339 117.843 438.917 118.823 438.471 119.796L439.063 120.067C438.616 121.042 438.146 122.01 437.651 122.971L437.072 122.673C436.586 123.62 436.076 124.561 435.543 125.494L436.109 125.817C435.578 126.747 435.025 127.67 434.45 128.586L433.899 128.24C433.334 129.139 432.748 130.032 432.141 130.918L432.678 131.286C432.071 132.172 431.442 133.051 430.794 133.922L430.272 133.534C429.639 134.384 428.986 135.228 428.314 136.064L428.822 136.472C428.151 137.307 427.461 138.135 426.752 138.955L426.26 138.529C425.563 139.336 424.848 140.135 424.115 140.926L424.593 141.368C423.867 142.152 423.124 142.928 422.364 143.697L421.901 143.239C421.152 143.997 420.385 144.748 419.603 145.491L420.051 145.963C419.275 146.699 418.483 147.428 417.676 148.149L417.242 147.664C416.449 148.373 415.64 149.074 414.816 149.768L415.235 150.265C414.414 150.957 413.578 151.641 412.727 152.317L412.322 151.807C411.491 152.468 410.645 153.121 409.786 153.767L410.178 154.287C409.318 154.933 408.446 155.571 407.56 156.201L407.183 155.67C406.317 156.286 405.438 156.895 404.547 157.495L404.911 158.035C404.021 158.635 403.119 159.227 402.204 159.811L401.854 159.262C400.956 159.836 400.046 160.402 399.125 160.96L399.462 161.517C398.546 162.072 397.618 162.62 396.68 163.159L396.355 162.595C395.429 163.128 394.492 163.652 393.545 164.169L393.857 164.741C392.917 165.253 391.967 165.758 391.007 166.255L390.708 165.677C389.758 166.17 388.797 166.654 387.828 167.13L388.115 167.715C387.155 168.186 386.185 168.65 385.207 169.106L384.932 168.516C383.961 168.969 382.98 169.414 381.991 169.851L382.254 170.446C381.276 170.878 380.29 171.303 379.295 171.719L379.043 171.119C378.054 171.533 377.056 171.939 376.05 172.338L376.29 172.943C375.297 173.336 374.295 173.722 373.286 174.101L373.057 173.491C372.052 173.868 371.04 174.236 370.02 174.597L370.237 175.211C369.229 175.567 368.214 175.916 367.192 176.257L366.986 175.64C365.968 175.98 364.943 176.312 363.911 176.636L364.106 177.257C363.086 177.577 362.059 177.89 361.025 178.195L360.841 177.571C359.812 177.874 358.776 178.17 357.734 178.459L357.907 179.086C356.876 179.371 355.839 179.649 354.795 179.918L354.632 179.288C353.594 179.557 352.549 179.817 351.498 180.07L351.651 180.703C350.61 180.954 349.563 181.197 348.511 181.432L348.369 180.797C347.322 181.031 346.27 181.257 345.213 181.476L345.345 182.113C344.295 182.33 343.24 182.539 342.18 182.741L342.058 182.101C341.006 182.301 339.948 182.494 338.885 182.678L338.996 183.319C337.939 183.503 336.877 183.679 335.81 183.847L335.709 183.204C334.651 183.371 333.589 183.53 332.522 183.681L332.613 184.326C331.549 184.477 330.481 184.62 329.408 184.755L329.327 184.11C328.265 184.244 327.2 184.37 326.13 184.489L326.202 185.136C325.132 185.254 324.059 185.365 322.981 185.468L322.919 184.82C321.855 184.922 320.787 185.016 319.716 185.102L319.768 185.751C318.694 185.838 317.616 185.916 316.534 185.987L316.492 185.338C315.426 185.408 314.357 185.47 313.285 185.525L313.318 186.175C312.243 186.23 311.164 186.277 310.082 186.316L310.059 185.665C308.99 185.704 307.918 185.735 306.843 185.758L306.858 186.409C305.782 186.433 304.704 186.448 303.624 186.456L303.619 185.805C303.08 185.809 302.54 185.811 302 185.811C301.46 185.811 300.92 185.809 300.381 185.805L300.377 186.456C299.296 186.448 298.218 186.433 297.143 186.409L297.157 185.758C296.082 185.735 295.01 185.704 293.941 185.665L293.918 186.316C292.836 186.277 291.757 186.23 290.682 186.175L290.715 185.525C289.643 185.47 288.574 185.408 287.509 185.338L287.466 185.987C286.384 185.916 285.306 185.838 284.232 185.751L284.284 185.102C283.213 185.016 282.145 184.922 281.081 184.82L281.019 185.468C279.941 185.365 278.868 185.254 277.798 185.136L277.87 184.489C276.8 184.37 275.735 184.244 274.673 184.11L274.592 184.755C273.519 184.62 272.451 184.477 271.387 184.326L271.478 183.681C270.411 183.53 269.349 183.371 268.291 183.204L268.19 183.847C267.123 183.679 266.061 183.503 265.004 183.319L265.115 182.678C264.052 182.494 262.995 182.301 261.942 182.101L261.82 182.741C260.76 182.539 259.705 182.33 258.656 182.113L258.787 181.476C257.73 181.257 256.678 181.031 255.631 180.797L255.489 181.432C254.437 181.197 253.39 180.954 252.349 180.703L252.502 180.07C251.451 179.817 250.406 179.557 249.368 179.288L249.205 179.918C248.161 179.648 247.124 179.371 246.093 179.086L246.266 178.458C245.224 178.17 244.188 177.874 243.159 177.571L242.975 178.195C241.941 177.89 240.914 177.577 239.894 177.257L240.089 176.636C239.057 176.312 238.032 175.98 237.014 175.64L236.808 176.257C235.786 175.916 234.771 175.567 233.763 175.211L233.98 174.597C232.96 174.236 231.948 173.868 230.943 173.491L230.714 174.101C229.705 173.722 228.703 173.336 227.71 172.943L227.95 172.338C226.944 171.939 225.946 171.533 224.957 171.119L224.705 171.719C223.71 171.302 222.724 170.878 221.746 170.446L222.009 169.851C221.02 169.414 220.039 168.969 219.068 168.516L218.793 169.106C217.815 168.65 216.845 168.186 215.885 167.715L216.172 167.13C215.203 166.654 214.242 166.169 213.292 165.677L212.993 166.255C212.033 165.758 211.083 165.253 210.143 164.741L210.455 164.169C209.508 163.652 208.571 163.128 207.645 162.595L207.32 163.159C206.382 162.62 205.454 162.072 204.538 161.517L204.875 160.96C203.954 160.402 203.044 159.836 202.146 159.262L201.796 159.811C200.881 159.227 199.979 158.635 199.089 158.035L199.453 157.495C198.562 156.895 197.683 156.286 196.817 155.67L196.44 156.201C195.554 155.571 194.682 154.933 193.822 154.287L194.214 153.767C193.355 153.121 192.509 152.468 191.678 151.807L191.273 152.316C190.422 151.641 189.586 150.957 188.765 150.265L189.184 149.767C188.36 149.074 187.551 148.373 186.758 147.664L186.324 148.149C185.517 147.428 184.725 146.699 183.949 145.963L184.397 145.491C183.615 144.748 182.848 143.997 182.099 143.239L181.636 143.697C180.876 142.928 180.133 142.152 179.407 141.368L179.885 140.926C179.152 140.135 178.437 139.336 177.74 138.529L177.248 138.955C176.539 138.135 175.849 137.307 175.178 136.472L175.686 136.064C175.014 135.228 174.361 134.384 173.728 133.534L173.206 133.922C172.558 133.051 171.93 132.172 171.322 131.286L171.859 130.918C171.252 130.032 170.666 129.139 170.102 128.24L169.55 128.586C168.975 127.67 168.422 126.747 167.892 125.817L168.457 125.494C167.924 124.561 167.414 123.62 166.928 122.673L166.349 122.971C165.855 122.01 165.384 121.042 164.937 120.067L165.529 119.796C165.083 118.823 164.661 117.843 164.264 116.857L163.66 117.1C163.256 116.097 162.877 115.088 162.524 114.072L163.139 113.858C162.788 112.849 162.462 111.834 162.163 110.813L161.538 110.996C161.234 109.962 160.957 108.921 160.707 107.874L161.34 107.723C161.092 106.686 160.87 105.643 160.676 104.594L160.036 104.713C159.84 103.655 159.671 102.591 159.53 101.523L160.175 101.437C160.036 100.382 159.924 99.3206 159.84 98.2548L159.191 98.306C159.106 97.2365 159.05 96.1621 159.021 95.0832L159.672 95.0661C159.658 94.5325 159.651 93.9977 159.651 93.4619C159.651 92.9261 159.658 92.3913 159.672 91.8577L159.021 91.8406C159.05 90.7618 159.106 89.6874 159.191 88.6178L159.84 88.669C159.924 87.6033 160.036 86.5423 160.175 85.4864L159.53 85.4012C159.671 84.3324 159.84 83.2688 160.036 82.2107L160.676 82.3294C160.87 81.2812 161.092 80.2383 161.34 79.2011L160.707 79.0496C160.957 78.003 161.234 76.9622 161.538 75.9275L162.162 76.1107C162.462 75.0897 162.788 74.0745 163.139 73.0655L162.524 72.8516C162.877 71.8359 163.256 70.8264 163.66 69.8235L164.264 70.0668C164.661 69.0809 165.083 68.1013 165.529 67.1283L164.937 66.8571C165.384 65.8822 165.855 64.914 166.349 63.9528L166.928 64.2504C167.414 63.3034 167.924 62.3632 168.457 61.4299L167.891 61.1073C168.422 60.1771 168.975 59.2539 169.55 58.338L170.101 58.6841C170.666 57.7844 171.252 56.8917 171.859 56.0062L171.322 55.6382C171.93 54.7519 172.558 53.873 173.206 53.0016L173.728 53.3902C174.361 52.5394 175.014 51.6958 175.686 50.8596L175.178 50.4519C175.849 49.6168 176.539 48.7891 177.248 47.9691L177.74 48.3947C178.437 47.5883 179.152 46.7893 179.885 45.9979L179.407 45.5556C180.133 44.7719 180.876 43.9956 181.636 43.2272L182.099 43.6848C182.848 42.9266 183.615 42.1759 184.397 41.433L183.949 40.9609C184.725 40.2244 185.517 39.4956 186.324 38.7746L186.758 39.2601C187.551 38.5512 188.36 37.8499 189.184 37.1563L188.765 36.6584C189.586 35.9669 190.422 35.2831 191.273 34.6073L191.678 35.1169C192.509 34.456 193.355 33.8026 194.214 33.1571L193.822 32.6367C194.682 31.991 195.554 31.353 196.44 30.723L196.817 31.2534C197.683 30.6375 198.562 30.0292 199.453 29.4286L199.089 28.8888C199.979 28.2892 200.881 27.6973 201.796 27.1133L202.146 27.6618C203.044 27.0881 203.954 26.522 204.875 25.9637L204.538 25.407C205.454 24.8517 206.382 24.3041 207.32 23.7644L207.645 24.3287C208.571 23.7962 209.508 23.2714 210.455 22.7545L210.143 22.1831C211.083 21.6704 212.033 21.1655 212.993 20.6684L213.292 21.2464C214.242 20.7543 215.203 20.2699 216.172 19.7934L215.885 19.2092C216.845 18.7376 217.815 18.2737 218.793 17.8176L219.068 18.4076C220.039 17.955 221.02 17.5101 222.009 17.073L221.746 16.4776C222.724 16.0456 223.71 15.6213 224.705 15.2048L224.957 15.8053C225.946 15.3911 226.944 14.9847 227.95 14.5862L227.71 13.9811C228.703 13.5874 229.705 13.2014 230.714 12.8232L230.943 13.4327C231.948 13.0562 232.96 12.6875 233.98 12.3265L233.763 11.7129C234.771 11.3564 235.786 11.0075 236.808 10.6665L237.014 11.2839C238.032 10.9442 239.057 10.6122 240.089 10.2881L239.894 9.66705C240.914 9.34667 241.941 9.03394 242.975 8.72897L243.159 9.35327C244.188 9.04953 245.224 8.75352 246.266 8.46533L246.093 7.83796C247.124 7.55282 248.161 7.27533 249.205 7.0056L249.368 7.63579C250.406 7.36729 251.451 7.10649 252.502 6.85352L252.349 6.22069C253.39 5.97002 254.437 5.72699 255.489 5.49173L255.631 6.12696C256.678 5.893 257.73 5.66673 258.787 5.44827L258.656 4.81082C259.705 4.59394 260.76 4.38473 261.82 4.18328L261.942 4.82275C262.994 4.62268 264.052 4.4303 265.115 4.2457L265.004 3.6044C266.061 3.42075 267.123 3.24478 268.19 3.07659L268.291 3.71956C269.349 3.5528 270.411 3.39371 271.478 3.24239L271.387 2.59793C272.451 2.44703 273.519 2.30382 274.592 2.16841L274.673 2.8142C275.735 2.6802 276.8 2.55386 277.87 2.43527L277.798 1.78833C278.868 1.66975 279.941 1.5589 281.019 1.45587L281.081 2.10382C282.145 2.00209 283.213 1.908 284.284 1.82163L284.232 1.17283C285.306 1.08623 286.384 1.00739 287.466 0.936388L287.508 1.5859C288.574 1.51596 289.643 1.45365 290.715 1.39905L290.682 0.748983C291.757 0.694222 292.836 0.647198 293.918 0.607996L293.941 1.25848C295.01 1.21976 296.082 1.18869 297.157 1.16536L297.142 0.514601C298.218 0.491265 299.296 0.475645 300.376 0.467825L300.381 1.11872C300.92 1.11482 301.46 1.11287 302 1.11287C302.54 1.11287 303.08 1.11482 303.619 1.11872L303.623 0.467826C304.704 0.475646 305.782 0.491265 306.857 0.514602L306.843 1.16536C307.918 1.18869 308.99 1.21976 310.059 1.25848L310.082 0.607997C311.164 0.6472 312.243 0.694225 313.318 0.748986L313.285 1.39905C314.357 1.45365 315.426 1.51596 316.492 1.5859L316.534 0.936393C317.616 1.0074 318.694 1.08624 319.768 1.17283L319.716 1.82164C320.787 1.908 321.855 2.0021 322.919 2.10383L322.981 1.45588C324.059 1.55891 325.132 1.66976 326.202 1.78833L326.13 2.43528C327.2 2.55387 328.265 2.68021 329.327 2.81421L329.408 2.16842C330.481 2.30383 331.549 2.44704 332.613 2.59794L332.522 3.2424C333.589 3.39372 334.651 3.55281 335.709 3.71957L335.81 3.0766C336.877 3.24479 337.939 3.42076 338.996 3.60441L338.885 4.24572C339.948 4.43032 341.005 4.6227 342.058 4.82276L342.18 4.18329C343.24 4.38474 344.295 4.59395 345.344 4.81083L345.213 5.44828C346.27 5.66675 347.322 5.89302 348.369 6.12698L348.511 5.49175C349.563 5.72701 350.61 5.97004 351.651 6.22072L351.498 6.85354C352.549 7.10652 353.594 7.36731 354.632 7.63581L354.795 7.00562C355.839 7.27535 356.876 7.55284 357.907 7.83798L357.734 8.46535C358.776 8.75354 359.812 9.04956 360.841 9.35329L361.025 8.729C362.059 9.03397 363.086 9.3467 364.106 9.66707L363.911 10.2881C364.943 10.6122 365.968 10.9442 366.986 11.2839L367.192 10.6665C368.214 11.0076 369.229 11.3564 370.237 11.7129L370.02 12.3266C371.04 12.6875 372.052 13.0563 373.057 13.4328L373.286 12.8232C374.295 13.2014 375.297 13.5874 376.29 13.9811L376.05 14.5862C377.056 14.9848 378.054 15.3912 379.043 15.8053L379.295 15.2049C380.29 15.6214 381.276 16.0457 382.254 16.4776L381.991 17.073C382.98 17.5101 383.961 17.955 384.932 18.4077L385.207 17.8177C386.185 18.2737 387.155 18.7377 388.115 19.2093L387.828 19.7935C388.797 20.27 389.758 20.7543 390.708 21.2464L391.007 20.6684C391.967 21.1655 392.917 21.6705 393.857 22.1832L393.545 22.7545C394.492 23.2715 395.429 23.7962 396.355 24.3287L396.68 23.7644C397.618 24.3041 398.546 24.8517 399.462 25.407L399.125 25.9637C400.046 26.522 400.956 27.0881 401.854 27.6618L402.204 27.1133C403.119 27.6973 404.021 28.2892 404.911 28.8889L404.547 29.4287C405.438 30.0292 406.317 30.6376 407.183 31.2535L407.56 30.723C408.446 31.353 409.318 31.991 410.178 32.6368L409.786 33.1571C410.645 33.8027 411.491 34.456 412.322 35.1169L412.727 34.6073C413.578 35.2832 414.414 35.9669 415.235 36.6584L414.816 37.1564C415.64 37.85 416.449 38.5513 417.242 39.2602L417.676 38.7747C418.483 39.4956 419.275 40.2245 420.051 40.9609L419.603 41.433C420.385 42.176 421.152 42.9267 421.901 43.6849L422.364 43.2272C423.124 43.9957 423.867 44.7719 424.593 45.5557L424.115 45.9979C424.848 46.7893 425.563 47.5883 426.26 48.3947L426.752 47.9692C427.461 48.7891 428.151 49.6168 428.822 50.4519L428.314 50.8596C428.986 51.6958 429.639 52.5394 430.272 53.3902L430.794 53.0016C431.442 53.873 432.07 54.7519 432.678 55.6382L432.141 56.0062C432.748 56.8917 433.334 57.7844 433.898 58.6841L434.45 58.3381C435.025 59.2539 435.578 60.1771 436.108 61.1073L435.543 61.4299C436.076 62.3632 436.586 63.3034 437.072 64.2504L437.651 63.9528C438.145 64.914 438.616 65.8822 439.063 66.8571L438.471 67.1283C438.917 68.1013 439.339 69.0809 439.736 70.0668L440.34 69.8235C440.744 70.8264 441.123 71.8359 441.476 72.8517L440.861 73.0655C441.212 74.0745 441.538 75.0897 441.837 76.1107L442.462 75.9275C442.766 76.9622 443.043 78.003 443.293 79.0496L442.66 79.2011C442.908 80.2383 443.13 81.2812 443.324 82.3294L443.964 82.2107C444.16 83.2688 444.329 84.3324 444.47 85.4012L443.825 85.4863C443.964 86.5423 444.076 87.6032 444.16 88.669L444.809 88.6178Z" stroke="url(#paint3_linear_558_17669)" stroke-width="1.30182" stroke-dasharray="3.25 3.25"/>
<defs>
<linearGradient id="paint0_linear_558_17669" x1="302.187" y1="138.321" x2="302.187" y2="361.399" gradientUnits="userSpaceOnUse">
<stop stop-opacity="0"/>
<stop offset="1"/>
</linearGradient>
<linearGradient id="paint1_linear_558_17669" x1="302.187" y1="261.321" x2="302.187" y2="484.399" gradientUnits="userSpaceOnUse">
<stop stop-opacity="0"/>
<stop offset="1"/>
</linearGradient>
<linearGradient id="paint2_linear_558_17669" x1="302.187" y1="199.913" x2="302.187" y2="421.792" gradientUnits="userSpaceOnUse">
<stop stop-opacity="0"/>
<stop offset="1"/>
</linearGradient>
<linearGradient id="paint3_linear_558_17669" x1="302.187" y1="76.3207" x2="302.187" y2="299.399" gradientUnits="userSpaceOnUse">
<stop stop-opacity="0"/>
<stop offset="1"/>
</linearGradient>
</defs>
</svg>
