<svg width="74" height="25" viewBox="0 0 74 25" fill="none" xmlns="http://www.w3.org/2000/svg">
<path d="M74 21.1477C74 22.761 72.6925 24.0684 71.0793 24.0684C69.466 24.0684 68.1586 22.761 68.1586 21.1477C68.1586 19.5345 69.466 18.227 71.0793 18.227C72.6925 18.227 74 19.5345 74 21.1477Z" fill="#0000FF"/>
<path d="M24.0394 2.92071C24.0394 4.53394 22.7313 5.84142 21.1187 5.84142C19.5054 5.84142 18.1979 4.53394 18.1979 2.92071C18.1979 1.30747 19.5054 0 21.1187 0C22.7313 0 24.0394 1.30747 24.0394 2.92071ZM24.9156 23.1905C24.109 23.1905 23.4552 22.5368 23.4552 21.7302V7.37764L17.0297 9.71649V10.1552H17.3217C18.1278 10.1552 18.7821 10.8089 18.7821 11.6155V21.7302C18.7821 22.5368 18.1278 23.1905 17.3217 23.1905H17.0297V23.6286H25.2076V23.1905H24.9156ZM36.907 7.65031L32.526 10.1797V7.37764L26.1004 9.71649V10.1552H26.3925C27.1991 10.1552 27.8528 10.8089 27.8528 11.6155V21.7302C27.8528 22.5368 27.1991 23.1905 26.3925 23.1905H26.1004V23.6286H34.2784V23.1905H33.9863C33.1797 23.1905 32.526 22.5368 32.526 21.7302V10.6178H33.9886C34.0137 12.2088 35.3098 13.4917 36.907 13.4917C38.5203 13.4917 39.8277 12.1837 39.8277 10.571C39.8277 8.95779 38.5203 7.65031 36.907 7.65031ZM66.9903 23.1922H66.6982C65.8916 23.1922 65.2379 22.5385 65.2379 21.7319V12.0314C65.2379 9.61152 63.2761 7.65031 60.8568 7.65031H60.5647L55.8562 10.3685C55.2014 8.7741 53.6332 7.65031 51.8026 7.65031H51.5106L47.1295 10.1797V7.37764L40.7039 9.71649V10.1552H40.996C41.8026 10.1552 42.4564 10.8089 42.4564 11.6155V21.7302C42.4564 22.5362 41.8026 23.1905 40.996 23.1905H40.7039V23.6286H48.8819V23.1905H48.5898C47.7832 23.1905 47.1295 22.5362 47.1295 21.7302V10.6178H49.32C50.53 10.6178 51.5106 11.5984 51.5106 12.8083V21.7319C51.5106 22.5385 50.8568 23.1922 50.0502 23.1922H49.7581V23.6304H57.9361V23.1922H57.644C56.8374 23.1922 56.1837 22.5385 56.1837 21.7319V12.0314C56.1837 11.5368 56.1004 11.0616 55.9492 10.6178H58.3742C59.5841 10.6178 60.5647 11.5984 60.5647 12.8083V21.7319C60.5647 22.5385 59.911 23.1922 59.1044 23.1922H58.8123V23.6304H66.9903V23.1922ZM16.1928 1.44666H0V1.88477H0.292071C1.502 1.88477 2.4826 2.86537 2.4826 4.0753V20.9863C2.4826 22.1957 1.502 23.1768 0.292071 23.1768H0V23.6149H9.63833V23.1768H9.34626C8.13634 23.1768 7.15573 22.1957 7.15573 20.9863V13.7245H12.9971V11.1597L8.90759 12.648L7.15573 13.2858V2.61495H11.0816C13.9047 2.61495 16.1928 4.90302 16.1928 7.72618V8.01826H16.777V1.44666H16.1928Z" fill="white"/>
</svg>
