<svg width="104" height="35" viewBox="0 0 104 35" fill="none" xmlns="http://www.w3.org/2000/svg">
<path d="M104 29.9351C104 32.2024 102.163 34.0399 99.8953 34.0399C97.6281 34.0399 95.7905 32.2024 95.7905 29.9351C95.7905 27.6679 97.6281 25.8303 99.8953 25.8303C102.163 25.8303 104 27.6679 104 29.9351Z" fill="#0764FF"/>
<path d="M33.7851 4.21171C33.7851 6.47896 31.9467 8.31649 29.6803 8.31649C27.413 8.31649 25.5755 6.47896 25.5755 4.21171C25.5755 1.94446 27.413 0.106934 29.6803 0.106934C31.9467 0.106934 33.7851 1.94446 33.7851 4.21171ZM35.0165 32.699C33.8829 32.699 32.9641 31.7803 32.9641 30.6467V10.4755L23.9336 13.7625V14.3791H24.3441C25.4769 14.3791 26.3965 15.2978 26.3965 16.4315V30.6467C26.3965 31.7803 25.4769 32.699 24.3441 32.699H23.9336V33.3148H35.427V32.699H35.0165ZM51.8693 10.8587L45.7122 14.4135V10.4755L36.6817 13.7625V14.3791H37.0921C38.2258 14.3791 39.1445 15.2978 39.1445 16.4315V30.6467C39.1445 31.7803 38.2258 32.699 37.0921 32.699H36.6817V33.3148H48.175V32.699H47.7646C46.6309 32.699 45.7122 31.7803 45.7122 30.6467V15.0293H47.7678C47.803 17.2652 49.6245 19.0683 51.8693 19.0683C54.1366 19.0683 55.9741 17.23 55.9741 14.9635C55.9741 12.6963 54.1366 10.8587 51.8693 10.8587ZM94.1486 32.7015H93.7381C92.6045 32.7015 91.6857 31.7827 91.6857 30.6491V17.0159C91.6857 13.615 88.9286 10.8587 85.5285 10.8587H85.1181L78.5007 14.6789C77.5803 12.4381 75.3764 10.8587 72.8037 10.8587H72.3932L66.2361 14.4135V10.4755L57.2056 13.7625V14.3791H57.616C58.7497 14.3791 59.6684 15.2978 59.6684 16.4315V30.6467C59.6684 31.7795 58.7497 32.699 57.616 32.699H57.2056V33.3148H68.6989V32.699H68.2885C67.1548 32.699 66.2361 31.7795 66.2361 30.6467V15.0293H69.3147C71.0151 15.0293 72.3932 16.4074 72.3932 18.1078V30.6491C72.3932 31.7827 71.4745 32.7015 70.3409 32.7015H69.9304V33.3172H81.4238V32.7015H81.0133C79.8797 32.7015 78.9609 31.7827 78.9609 30.6491V17.0159C78.9609 16.3208 78.8438 15.653 78.6314 15.0293H82.0395C83.7399 15.0293 85.1181 16.4074 85.1181 18.1078V30.6491C85.1181 31.7827 84.1993 32.7015 83.0657 32.7015H82.6552V33.3172H94.1486V32.7015ZM22.7575 2.14008H0V2.7558H0.410478C2.11092 2.7558 3.48906 4.13395 3.48906 5.83438V29.6012C3.48906 31.3009 2.11092 32.6798 0.410478 32.6798H0V33.2955H13.5458V32.6798H13.1353C11.4349 32.6798 10.0567 31.3009 10.0567 29.6012V19.3954H18.2663V15.7909L12.5188 17.8826L10.0567 18.7789V3.78199H15.5741C19.5418 3.78199 22.7575 6.99767 22.7575 10.9654V11.3758H23.5784V2.14008H22.7575Z" fill="#25332B"/>
</svg>
