<svg width="604" height="385" viewBox="0 0 604 385" fill="none" xmlns="http://www.w3.org/2000/svg">
<g clip-path="url(#clip0_558_17521)">
<rect width="604" height="385" rx="8" fill="#F5F5F5"/>
<path fill-rule="evenodd" clip-rule="evenodd" d="M224.563 312.711C244.204 324.011 271.403 331.031 301.5 331.031C331.597 331.031 358.796 324.011 378.437 312.711C398.105 301.396 410.009 285.916 410.009 269.031L412 269.031C412 286.941 399.391 302.961 379.426 314.447C359.434 325.949 331.88 333.031 301.5 333.031C271.12 333.031 243.566 325.949 223.574 314.447C203.609 302.961 191 286.941 191 269.031L192.991 269.031C192.991 285.916 204.895 301.396 224.563 312.711Z" fill="#414F69"/>
<path fill-rule="evenodd" clip-rule="evenodd" d="M225.085 134.229C267.392 158.655 335.984 158.655 378.291 134.229C420.598 109.803 420.598 70.201 378.291 45.7752C335.984 21.3494 267.392 21.3494 225.085 45.7752C182.778 70.201 182.778 109.803 225.085 134.229ZM223.344 135.234C266.612 160.215 336.764 160.215 380.032 135.234C423.3 110.253 423.3 69.7509 380.032 44.77C336.764 19.7891 266.612 19.7891 223.344 44.77C180.076 69.7509 180.076 110.253 223.344 135.234Z" fill="#414F69"/>
<path fill-rule="evenodd" clip-rule="evenodd" d="M225.293 135.31L378.57 45.3993L379.417 45.8965L226.141 135.807L225.293 135.31Z" fill="#575757"/>
<path fill-rule="evenodd" clip-rule="evenodd" d="M226.014 44.5539L379.291 134.465L378.443 134.962L225.167 45.0511L226.014 44.5539Z" fill="#575757"/>
<path fill-rule="evenodd" clip-rule="evenodd" d="M197 106.826L406.38 73.9166L406.69 74.5957L197.31 107.505L197 106.826Z" fill="#414F69" fill-opacity="0.8"/>
<path fill-rule="evenodd" clip-rule="evenodd" d="M274.796 28.7827L330.899 151.603L329.742 151.785L273.639 28.9647L274.796 28.7827Z" fill="#414F69" fill-opacity="0.4"/>
<path fill-rule="evenodd" clip-rule="evenodd" d="M197.62 73.6641L407 106.574L406.69 107.253L197.31 74.3433L197.62 73.6641Z" fill="#414F69" fill-opacity="0.8"/>
<path fill-rule="evenodd" clip-rule="evenodd" d="M330.509 29.1467L274.406 151.967L273.248 151.785L329.351 28.9647L330.509 29.1467Z" fill="#414F69" fill-opacity="0.4"/>
<path fill-rule="evenodd" clip-rule="evenodd" d="M191 269.499L191 90.46L193 90.46L193 269.499L191 269.499Z" fill="#414F69"/>
<path fill-rule="evenodd" clip-rule="evenodd" d="M196 286.824L196 107.785L197 107.785L197 286.824L196 286.824Z" fill="#414F69" fill-opacity="0.8"/>
<path fill-rule="evenodd" clip-rule="evenodd" d="M225 314.824L225 135.785L226 135.785L226 314.824L225 314.824Z" fill="#575757" fill-opacity="0.4"/>
<path fill-rule="evenodd" clip-rule="evenodd" d="M274 330.824L274 151.785L275 151.785L275 330.824L274 330.824Z" fill="#414F69" fill-opacity="0.2"/>
<path fill-rule="evenodd" clip-rule="evenodd" d="M329.138 331.187L329.138 152.148L330.138 152.148L330.138 331.187L329.138 331.187Z" fill="#414F69" fill-opacity="0.4"/>
<path fill-rule="evenodd" clip-rule="evenodd" d="M379.138 314.47L379.138 135.432L380.138 135.432L380.138 314.47L379.138 314.47Z" fill="#575757" fill-opacity="0.4"/>
<path fill-rule="evenodd" clip-rule="evenodd" d="M407.138 285.986L407.138 106.947L408.138 106.947L408.138 285.986L407.138 285.986Z" fill="#414F69" fill-opacity="0.8"/>
<path fill-rule="evenodd" clip-rule="evenodd" d="M410 269.695L410 90.6562L412 90.6562L412 269.695L410 269.695Z" fill="#414F69"/>
<path d="M443.809 150.156C443.894 151.225 443.95 152.3 443.979 153.379L443.328 153.396C443.342 153.929 443.349 154.464 443.349 155C443.349 155.536 443.342 156.071 443.328 156.604L443.979 156.621C443.95 157.7 443.894 158.775 443.809 159.844L443.16 159.793C443.076 160.859 442.964 161.92 442.825 162.976L443.47 163.061C443.329 164.13 443.16 165.193 442.964 166.251L442.324 166.133C442.13 167.181 441.908 168.224 441.66 169.261L442.293 169.412C442.043 170.459 441.766 171.5 441.462 172.534L440.838 172.351C440.538 173.372 440.212 174.387 439.861 175.396L440.476 175.61C440.123 176.626 439.744 177.636 439.34 178.638L438.736 178.395C438.339 179.381 437.917 180.361 437.471 181.334L438.063 181.605C437.616 182.58 437.146 183.548 436.651 184.509L436.072 184.212C435.586 185.158 435.076 186.099 434.543 187.032L435.109 187.355C434.578 188.285 434.025 189.208 433.45 190.124L432.899 189.778C432.334 190.678 431.748 191.57 431.141 192.456L431.678 192.824C431.071 193.71 430.442 194.589 429.794 195.46L429.272 195.072C428.639 195.923 427.986 196.766 427.314 197.602L427.822 198.01C427.151 198.845 426.461 199.673 425.752 200.493L425.26 200.067C424.563 200.874 423.848 201.673 423.115 202.464L423.593 202.906C422.867 203.69 422.124 204.466 421.364 205.235L420.901 204.777C420.152 205.535 419.385 206.286 418.603 207.029L419.051 207.501C418.275 208.238 417.483 208.966 416.676 209.687L416.242 209.202C415.449 209.911 414.64 210.612 413.816 211.306L414.235 211.804C413.414 212.495 412.578 213.179 411.727 213.855L411.322 213.345C410.491 214.006 409.645 214.659 408.786 215.305L409.178 215.825C408.318 216.471 407.446 217.109 406.56 217.739L406.183 217.208C405.317 217.824 404.438 218.433 403.547 219.033L403.911 219.573C403.021 220.173 402.119 220.765 401.204 221.349L400.854 220.8C399.956 221.374 399.046 221.94 398.125 222.498L398.462 223.055C397.546 223.61 396.618 224.158 395.68 224.698L395.355 224.133C394.429 224.666 393.492 225.19 392.545 225.707L392.857 226.279C391.917 226.791 390.967 227.296 390.007 227.794L389.708 227.216C388.758 227.708 387.797 228.192 386.828 228.668L387.115 229.253C386.155 229.724 385.185 230.188 384.207 230.644L383.932 230.054C382.961 230.507 381.98 230.952 380.991 231.389L381.254 231.984C380.276 232.416 379.29 232.841 378.295 233.257L378.043 232.657C377.054 233.071 376.056 233.477 375.05 233.876L375.29 234.481C374.297 234.875 373.295 235.261 372.286 235.639L372.057 235.029C371.052 235.406 370.04 235.774 369.02 236.135L369.237 236.749C368.229 237.106 367.214 237.454 366.192 237.795L365.986 237.178C364.968 237.518 363.943 237.85 362.911 238.174L363.106 238.795C362.086 239.115 361.059 239.428 360.025 239.733L359.841 239.109C358.812 239.412 357.776 239.708 356.734 239.997L356.907 240.624C355.876 240.909 354.839 241.187 353.795 241.456L353.632 240.826C352.594 241.095 351.549 241.355 350.498 241.608L350.651 242.241C349.61 242.492 348.563 242.735 347.511 242.97L347.369 242.335C346.322 242.569 345.27 242.795 344.213 243.014L344.345 243.651C343.295 243.868 342.24 244.077 341.18 244.279L341.058 243.639C340.006 243.839 338.948 244.032 337.885 244.216L337.996 244.858C336.939 245.041 335.877 245.217 334.81 245.385L334.709 244.742C333.651 244.909 332.589 245.068 331.522 245.22L331.613 245.864C330.549 246.015 329.481 246.158 328.408 246.294L328.327 245.648C327.265 245.782 326.2 245.908 325.13 246.027L325.202 246.674C324.132 246.792 323.059 246.903 321.981 247.006L321.919 246.358C320.855 246.46 319.787 246.554 318.716 246.64L318.768 247.289C317.694 247.376 316.616 247.455 315.534 247.526L315.492 246.876C314.426 246.946 313.357 247.008 312.285 247.063L312.318 247.713C311.243 247.768 310.164 247.815 309.082 247.854L309.059 247.203C307.99 247.242 306.918 247.273 305.843 247.297L305.858 247.947C304.782 247.971 303.704 247.986 302.624 247.994L302.619 247.343C302.08 247.347 301.54 247.349 301 247.349C300.46 247.349 299.92 247.347 299.381 247.343L299.377 247.994C298.296 247.986 297.218 247.971 296.143 247.947L296.157 247.297C295.082 247.273 294.01 247.242 292.941 247.203L292.918 247.854C291.836 247.815 290.757 247.768 289.682 247.713L289.715 247.063C288.643 247.008 287.574 246.946 286.509 246.876L286.466 247.526C285.384 247.455 284.306 247.376 283.232 247.289L283.284 246.64C282.213 246.554 281.145 246.46 280.081 246.358L280.019 247.006C278.941 246.903 277.868 246.792 276.798 246.674L276.87 246.027C275.8 245.908 274.735 245.782 273.673 245.648L273.592 246.294C272.519 246.158 271.451 246.015 270.387 245.864L270.478 245.22C269.411 245.068 268.349 244.909 267.291 244.742L267.19 245.385C266.123 245.217 265.061 245.041 264.004 244.858L264.115 244.216C263.052 244.032 261.995 243.839 260.942 243.639L260.82 244.279C259.76 244.077 258.705 243.868 257.656 243.651L257.787 243.014C256.73 242.795 255.678 242.569 254.631 242.335L254.489 242.97C253.437 242.735 252.39 242.492 251.349 242.241L251.502 241.608C250.451 241.355 249.406 241.095 248.368 240.826L248.205 241.456C247.161 241.187 246.124 240.909 245.093 240.624L245.266 239.997C244.224 239.708 243.188 239.412 242.159 239.109L241.975 239.733C240.941 239.428 239.914 239.115 238.894 238.795L239.089 238.174C238.057 237.85 237.032 237.518 236.014 237.178L235.808 237.795C234.786 237.454 233.771 237.105 232.763 236.749L232.98 236.135C231.96 235.774 230.948 235.406 229.943 235.029L229.714 235.639C228.705 235.26 227.703 234.874 226.71 234.481L226.95 233.876C225.944 233.477 224.946 233.071 223.957 232.657L223.705 233.257C222.71 232.841 221.724 232.416 220.746 231.984L221.009 231.389C220.02 230.952 219.039 230.507 218.068 230.054L217.793 230.644C216.815 230.188 215.845 229.724 214.885 229.253L215.172 228.668C214.203 228.192 213.242 227.708 212.292 227.215L211.993 227.794C211.033 227.296 210.083 226.791 209.143 226.279L209.455 225.707C208.508 225.19 207.571 224.666 206.645 224.133L206.32 224.698C205.382 224.158 204.454 223.61 203.538 223.055L203.875 222.498C202.954 221.94 202.044 221.374 201.146 220.8L200.796 221.349C199.881 220.765 198.979 220.173 198.089 219.573L198.453 219.033C197.562 218.433 196.683 217.824 195.817 217.208L195.44 217.739C194.554 217.109 193.682 216.471 192.822 215.825L193.214 215.305C192.355 214.659 191.509 214.006 190.678 213.345L190.273 213.855C189.422 213.179 188.586 212.495 187.765 211.803L188.184 211.306C187.36 210.612 186.551 209.911 185.758 209.202L185.324 209.687C184.517 208.966 183.725 208.237 182.949 207.501L183.397 207.029C182.615 206.286 181.848 205.535 181.099 204.777L180.636 205.235C179.876 204.466 179.133 203.69 178.407 202.906L178.885 202.464C178.152 201.673 177.437 200.874 176.74 200.067L176.248 200.493C175.539 199.673 174.849 198.845 174.178 198.01L174.686 197.602C174.014 196.766 173.361 195.922 172.728 195.072L172.206 195.46C171.558 194.589 170.93 193.71 170.322 192.824L170.859 192.456C170.252 191.57 169.666 190.678 169.102 189.778L168.55 190.124C167.975 189.208 167.422 188.285 166.892 187.355L167.457 187.032C166.924 186.099 166.414 185.158 165.928 184.212L165.349 184.509C164.855 183.548 164.384 182.58 163.937 181.605L164.529 181.334C164.083 180.361 163.661 179.381 163.264 178.395L162.66 178.638C162.256 177.636 161.877 176.626 161.524 175.61L162.139 175.396C161.788 174.387 161.462 173.372 161.163 172.351L160.538 172.534C160.234 171.5 159.957 170.459 159.707 169.412L160.34 169.261C160.092 168.224 159.87 167.181 159.676 166.133L159.036 166.251C158.84 165.193 158.671 164.13 158.53 163.061L159.175 162.976C159.036 161.92 158.924 160.859 158.84 159.793L158.191 159.844C158.106 158.775 158.05 157.7 158.021 156.621L158.672 156.604C158.658 156.071 158.651 155.536 158.651 155C158.651 154.464 158.658 153.929 158.672 153.396L158.021 153.379C158.05 152.3 158.106 151.225 158.191 150.156L158.84 150.207C158.924 149.141 159.036 148.08 159.175 147.024L158.53 146.939C158.671 145.87 158.84 144.807 159.036 143.749L159.676 143.867C159.87 142.819 160.092 141.776 160.34 140.739L159.707 140.588C159.957 139.541 160.234 138.5 160.538 137.466L161.162 137.649C161.462 136.628 161.788 135.613 162.139 134.604L161.524 134.39C161.877 133.374 162.256 132.364 162.66 131.362L163.264 131.605C163.661 130.619 164.083 129.639 164.529 128.666L163.937 128.395C164.384 127.42 164.855 126.452 165.349 125.491L165.928 125.788C166.414 124.842 166.924 123.901 167.457 122.968L166.891 122.645C167.422 121.715 167.975 120.792 168.55 119.876L169.101 120.222C169.666 119.322 170.252 118.43 170.859 117.544L170.322 117.176C170.93 116.29 171.558 115.411 172.206 114.54L172.728 114.928C173.361 114.078 174.014 113.234 174.686 112.398L174.178 111.99C174.849 111.155 175.539 110.327 176.248 109.507L176.74 109.933C177.437 109.126 178.152 108.327 178.885 107.536L178.407 107.094C179.133 106.31 179.876 105.534 180.636 104.765L181.099 105.223C181.848 104.465 182.615 103.714 183.397 102.971L182.949 102.499C183.725 101.763 184.517 101.034 185.324 100.313L185.758 100.798C186.551 100.089 187.36 99.388 188.184 98.6944L187.765 98.1965C188.586 97.505 189.422 96.8212 190.273 96.1454L190.678 96.655C191.509 95.9941 192.355 95.3407 193.214 94.6951L192.822 94.1748C193.682 93.5291 194.554 92.8911 195.44 92.2611L195.817 92.7915C196.683 92.1756 197.562 91.5673 198.453 90.9667L198.089 90.4269C198.979 89.8273 199.881 89.2353 200.796 88.6514L201.146 89.1999C202.044 88.6261 202.954 88.06 203.875 87.5018L203.538 86.9451C204.454 86.3898 205.382 85.8422 206.32 85.3025L206.645 85.8667C207.571 85.3343 208.508 84.8095 209.455 84.2926L209.143 83.7212C210.083 83.2085 211.033 82.7036 211.993 82.2065L212.292 82.7845C213.242 82.2924 214.203 81.808 215.172 81.3315L214.885 80.7473C215.845 80.2757 216.815 79.8118 217.793 79.3557L218.068 79.9457C219.039 79.4931 220.02 79.0481 221.009 78.6111L220.746 78.0157C221.724 77.5837 222.71 77.1594 223.705 76.7429L223.957 77.3433C224.946 76.9292 225.944 76.5228 226.95 76.1243L226.71 75.5191C227.703 75.1255 228.705 74.7395 229.714 74.3613L229.943 74.9708C230.948 74.5943 231.96 74.2255 232.98 73.8646L232.763 73.251C233.771 72.8945 234.786 72.5456 235.808 72.2046L236.014 72.822C237.032 72.4823 238.057 72.1503 239.089 71.8261L238.894 71.2051C239.914 70.8848 240.941 70.572 241.975 70.2671L242.159 70.8914C243.188 70.5876 244.224 70.2916 245.266 70.0034L245.093 69.376C246.124 69.0909 247.161 68.8134 248.205 68.5437L248.368 69.1739C249.406 68.9054 250.451 68.6446 251.502 68.3916L251.349 67.7588C252.39 67.5081 253.437 67.2651 254.489 67.0298L254.631 67.665C255.678 67.4311 256.73 67.2048 257.787 66.9864L257.656 66.3489C258.705 66.132 259.76 65.9228 260.82 65.7214L260.942 66.3608C261.994 66.1608 263.052 65.9684 264.115 65.7838L264.004 65.1425C265.061 64.9588 266.123 64.7829 267.19 64.6147L267.291 65.2576C268.349 65.0909 269.411 64.9318 270.478 64.7805L270.387 64.136C271.451 63.9851 272.519 63.8419 273.592 63.7065L273.673 64.3523C274.735 64.2183 275.8 64.092 276.87 63.9734L276.798 63.3264C277.868 63.2078 278.941 63.097 280.019 62.994L280.081 63.6419C281.145 63.5402 282.213 63.4461 283.284 63.3597L283.232 62.7109C284.306 62.6243 285.384 62.5455 286.466 62.4745L286.508 63.124C287.574 63.054 288.643 62.9917 289.715 62.9371L289.682 62.2871C290.757 62.2323 291.836 62.1853 292.918 62.1461L292.941 62.7966C294.01 62.7578 295.082 62.7268 296.157 62.7034L296.142 62.0527C297.218 62.0294 298.296 62.0137 299.376 62.0059L299.381 62.6568C299.92 62.6529 300.46 62.651 301 62.651C301.54 62.651 302.08 62.6529 302.619 62.6568L302.623 62.0059C303.704 62.0137 304.782 62.0294 305.857 62.0527L305.843 62.7034C306.918 62.7268 307.99 62.7578 309.059 62.7966L309.082 62.1461C310.164 62.1853 311.243 62.2323 312.318 62.2871L312.285 62.9371C313.357 62.9917 314.426 63.0541 315.492 63.124L315.534 62.4745C316.616 62.5455 317.694 62.6243 318.768 62.7109L318.716 63.3597C319.787 63.4461 320.855 63.5402 321.919 63.6419L321.981 62.994C323.059 63.097 324.132 63.2078 325.202 63.3264L325.13 63.9734C326.2 64.092 327.265 64.2183 328.327 64.3523L328.408 63.7065C329.481 63.8419 330.549 63.9851 331.613 64.136L331.522 64.7805C332.589 64.9318 333.651 65.0909 334.709 65.2577L334.81 64.6147C335.877 64.7829 336.939 64.9588 337.996 65.1425L337.885 65.7838C338.948 65.9684 340.005 66.1608 341.058 66.3608L341.18 65.7214C342.24 65.9228 343.295 66.132 344.344 66.3489L344.213 66.9864C345.27 67.2048 346.322 67.4311 347.369 67.6651L347.511 67.0298C348.563 67.2651 349.61 67.5081 350.651 67.7588L350.498 68.3916C351.549 68.6446 352.594 68.9054 353.632 69.1739L353.795 68.5437C354.839 68.8134 355.876 69.0909 356.907 69.3761L356.734 70.0034C357.776 70.2916 358.812 70.5876 359.841 70.8914L360.025 70.2671C361.059 70.5721 362.086 70.8848 363.106 71.2052L362.911 71.8262C363.943 72.1503 364.968 72.4823 365.986 72.822L366.192 72.2046C367.214 72.5457 368.229 72.8945 369.237 73.251L369.02 73.8647C370.04 74.2256 371.052 74.5943 372.057 74.9708L372.286 74.3613C373.295 74.7395 374.297 75.1255 375.29 75.5192L375.05 76.1243C376.056 76.5229 377.054 76.9293 378.043 77.3434L378.295 76.743C379.29 77.1594 380.276 77.5837 381.254 78.0157L380.991 78.6111C381.98 79.0482 382.961 79.4931 383.932 79.9457L384.207 79.3558C385.185 79.8118 386.155 80.2757 387.115 80.7473L386.828 81.3315C387.797 81.8081 388.758 82.2924 389.708 82.7845L390.007 82.2065C390.967 82.7036 391.917 83.2086 392.857 83.7212L392.545 84.2926C393.492 84.8096 394.429 85.3343 395.355 85.8668L395.68 85.3025C396.618 85.8422 397.546 86.3898 398.462 86.9451L398.125 87.5018C399.046 88.0601 399.956 88.6262 400.854 89.1999L401.204 88.6514C402.119 89.2354 403.021 89.8273 403.911 90.427L403.547 90.9668C404.438 91.5673 405.317 92.1756 406.183 92.7916L406.56 92.2611C407.446 92.8911 408.318 93.5291 409.178 94.1748L408.786 94.6952C409.645 95.3408 410.491 95.9941 411.322 96.655L411.727 96.1454C412.578 96.8213 413.414 97.505 414.235 98.1965L413.816 98.6945C414.64 99.388 415.449 100.089 416.242 100.798L416.676 100.313C417.483 101.034 418.275 101.763 419.051 102.499L418.603 102.971C419.385 103.714 420.152 104.465 420.901 105.223L421.364 104.765C422.124 105.534 422.867 106.31 423.593 107.094L423.115 107.536C423.848 108.327 424.563 109.126 425.26 109.933L425.752 109.507C426.461 110.327 427.151 111.155 427.822 111.99L427.314 112.398C427.986 113.234 428.639 114.078 429.272 114.928L429.794 114.54C430.442 115.411 431.07 116.29 431.678 117.176L431.141 117.544C431.748 118.43 432.334 119.322 432.898 120.222L433.45 119.876C434.025 120.792 434.578 121.715 435.108 122.645L434.543 122.968C435.076 123.901 435.586 124.842 436.072 125.788L436.651 125.491C437.145 126.452 437.616 127.42 438.063 128.395L437.471 128.666C437.917 129.639 438.339 130.619 438.736 131.605L439.34 131.362C439.744 132.364 440.123 133.374 440.476 134.39L439.861 134.604C440.212 135.613 440.538 136.628 440.837 137.649L441.462 137.466C441.766 138.5 442.043 139.541 442.293 140.588L441.66 140.739C441.908 141.776 442.13 142.819 442.324 143.867L442.964 143.749C443.16 144.807 443.329 145.87 443.47 146.939L442.825 147.024C442.964 148.08 443.076 149.141 443.16 150.207L443.809 150.156Z" stroke="url(#paint0_linear_558_17521)" stroke-width="1.30182" stroke-dasharray="3.25 3.25"/>
<path d="M443.809 273.156C443.894 274.225 443.95 275.3 443.979 276.379L443.328 276.396C443.342 276.929 443.349 277.464 443.349 278C443.349 278.536 443.342 279.071 443.328 279.604L443.979 279.621C443.95 280.7 443.894 281.775 443.809 282.844L443.16 282.793C443.076 283.859 442.964 284.92 442.825 285.976L443.47 286.061C443.329 287.13 443.16 288.193 442.964 289.251L442.324 289.133C442.13 290.181 441.908 291.224 441.66 292.261L442.293 292.412C442.043 293.459 441.766 294.5 441.462 295.534L440.838 295.351C440.538 296.372 440.212 297.387 439.861 298.396L440.476 298.61C440.123 299.626 439.744 300.636 439.34 301.638L438.736 301.395C438.339 302.381 437.917 303.361 437.471 304.334L438.063 304.605C437.616 305.58 437.146 306.548 436.651 307.509L436.072 307.212C435.586 308.158 435.076 309.099 434.543 310.032L435.109 310.355C434.578 311.285 434.025 312.208 433.45 313.124L432.899 312.778C432.334 313.678 431.748 314.57 431.141 315.456L431.678 315.824C431.071 316.71 430.442 317.589 429.794 318.46L429.272 318.072C428.639 318.923 427.986 319.766 427.314 320.602L427.822 321.01C427.151 321.845 426.461 322.673 425.752 323.493L425.26 323.067C424.563 323.874 423.848 324.673 423.115 325.464L423.593 325.906C422.867 326.69 422.124 327.466 421.364 328.235L420.901 327.777C420.152 328.535 419.385 329.286 418.603 330.029L419.051 330.501C418.275 331.238 417.483 331.966 416.676 332.687L416.242 332.202C415.449 332.911 414.64 333.612 413.816 334.306L414.235 334.804C413.414 335.495 412.578 336.179 411.727 336.855L411.322 336.345C410.491 337.006 409.645 337.659 408.786 338.305L409.178 338.825C408.318 339.471 407.446 340.109 406.56 340.739L406.183 340.208C405.317 340.824 404.438 341.433 403.547 342.033L403.911 342.573C403.021 343.173 402.119 343.765 401.204 344.349L400.854 343.8C399.956 344.374 399.046 344.94 398.125 345.498L398.462 346.055C397.546 346.61 396.618 347.158 395.68 347.698L395.355 347.133C394.429 347.666 393.492 348.19 392.545 348.707L392.857 349.279C391.917 349.791 390.967 350.296 390.007 350.794L389.708 350.216C388.758 350.708 387.797 351.192 386.828 351.668L387.115 352.253C386.155 352.724 385.185 353.188 384.207 353.644L383.932 353.054C382.961 353.507 381.98 353.952 380.991 354.389L381.254 354.984C380.276 355.416 379.29 355.841 378.295 356.257L378.043 355.657C377.054 356.071 376.056 356.477 375.05 356.876L375.29 357.481C374.297 357.875 373.295 358.261 372.286 358.639L372.057 358.029C371.052 358.406 370.04 358.774 369.02 359.135L369.237 359.749C368.229 360.106 367.214 360.454 366.192 360.795L365.986 360.178C364.968 360.518 363.943 360.85 362.911 361.174L363.106 361.795C362.086 362.115 361.059 362.428 360.025 362.733L359.841 362.109C358.812 362.412 357.776 362.708 356.734 362.997L356.907 363.624C355.876 363.909 354.839 364.187 353.795 364.456L353.632 363.826C352.594 364.095 351.549 364.355 350.498 364.608L350.651 365.241C349.61 365.492 348.563 365.735 347.511 365.97L347.369 365.335C346.322 365.569 345.27 365.795 344.213 366.014L344.345 366.651C343.295 366.868 342.24 367.077 341.18 367.279L341.058 366.639C340.006 366.839 338.948 367.032 337.885 367.216L337.996 367.858C336.939 368.041 335.877 368.217 334.81 368.385L334.709 367.742C333.651 367.909 332.589 368.068 331.522 368.22L331.613 368.864C330.549 369.015 329.481 369.158 328.408 369.294L328.327 368.648C327.265 368.782 326.2 368.908 325.13 369.027L325.202 369.674C324.132 369.792 323.059 369.903 321.981 370.006L321.919 369.358C320.855 369.46 319.787 369.554 318.716 369.64L318.768 370.289C317.694 370.376 316.616 370.455 315.534 370.526L315.492 369.876C314.426 369.946 313.357 370.008 312.285 370.063L312.318 370.713C311.243 370.768 310.164 370.815 309.082 370.854L309.059 370.203C307.99 370.242 306.918 370.273 305.843 370.297L305.858 370.947C304.782 370.971 303.704 370.986 302.624 370.994L302.619 370.343C302.08 370.347 301.54 370.349 301 370.349C300.46 370.349 299.92 370.347 299.381 370.343L299.377 370.994C298.296 370.986 297.218 370.971 296.143 370.947L296.157 370.297C295.082 370.273 294.01 370.242 292.941 370.203L292.918 370.854C291.836 370.815 290.757 370.768 289.682 370.713L289.715 370.063C288.643 370.008 287.574 369.946 286.509 369.876L286.466 370.526C285.384 370.455 284.306 370.376 283.232 370.289L283.284 369.64C282.213 369.554 281.145 369.46 280.081 369.358L280.019 370.006C278.941 369.903 277.868 369.792 276.798 369.674L276.87 369.027C275.8 368.908 274.735 368.782 273.673 368.648L273.592 369.294C272.519 369.158 271.451 369.015 270.387 368.864L270.478 368.22C269.411 368.068 268.349 367.909 267.291 367.742L267.19 368.385C266.123 368.217 265.061 368.041 264.004 367.858L264.115 367.216C263.052 367.032 261.995 366.839 260.942 366.639L260.82 367.279C259.76 367.077 258.705 366.868 257.656 366.651L257.787 366.014C256.73 365.795 255.678 365.569 254.631 365.335L254.489 365.97C253.437 365.735 252.39 365.492 251.349 365.241L251.502 364.608C250.451 364.355 249.406 364.095 248.368 363.826L248.205 364.456C247.161 364.187 246.124 363.909 245.093 363.624L245.266 362.997C244.224 362.708 243.188 362.412 242.159 362.109L241.975 362.733C240.941 362.428 239.914 362.115 238.894 361.795L239.089 361.174C238.057 360.85 237.032 360.518 236.014 360.178L235.808 360.795C234.786 360.454 233.771 360.105 232.763 359.749L232.98 359.135C231.96 358.774 230.948 358.406 229.943 358.029L229.714 358.639C228.705 358.26 227.703 357.874 226.71 357.481L226.95 356.876C225.944 356.477 224.946 356.071 223.957 355.657L223.705 356.257C222.71 355.841 221.724 355.416 220.746 354.984L221.009 354.389C220.02 353.952 219.039 353.507 218.068 353.054L217.793 353.644C216.815 353.188 215.845 352.724 214.885 352.253L215.172 351.668C214.203 351.192 213.242 350.708 212.292 350.215L211.993 350.794C211.033 350.296 210.083 349.791 209.143 349.279L209.455 348.707C208.508 348.19 207.571 347.666 206.645 347.133L206.32 347.698C205.382 347.158 204.454 346.61 203.538 346.055L203.875 345.498C202.954 344.94 202.044 344.374 201.146 343.8L200.796 344.349C199.881 343.765 198.979 343.173 198.089 342.573L198.453 342.033C197.562 341.433 196.683 340.824 195.817 340.208L195.44 340.739C194.554 340.109 193.682 339.471 192.822 338.825L193.214 338.305C192.355 337.659 191.509 337.006 190.678 336.345L190.273 336.855C189.422 336.179 188.586 335.495 187.765 334.803L188.184 334.306C187.36 333.612 186.551 332.911 185.758 332.202L185.324 332.687C184.517 331.966 183.725 331.237 182.949 330.501L183.397 330.029C182.615 329.286 181.848 328.535 181.099 327.777L180.636 328.235C179.876 327.466 179.133 326.69 178.407 325.906L178.885 325.464C178.152 324.673 177.437 323.874 176.74 323.067L176.248 323.493C175.539 322.673 174.849 321.845 174.178 321.01L174.686 320.602C174.014 319.766 173.361 318.922 172.728 318.072L172.206 318.46C171.558 317.589 170.93 316.71 170.322 315.824L170.859 315.456C170.252 314.57 169.666 313.678 169.102 312.778L168.55 313.124C167.975 312.208 167.422 311.285 166.892 310.355L167.457 310.032C166.924 309.099 166.414 308.158 165.928 307.212L165.349 307.509C164.855 306.548 164.384 305.58 163.937 304.605L164.529 304.334C164.083 303.361 163.661 302.381 163.264 301.395L162.66 301.638C162.256 300.636 161.877 299.626 161.524 298.61L162.139 298.396C161.788 297.387 161.462 296.372 161.163 295.351L160.538 295.534C160.234 294.5 159.957 293.459 159.707 292.412L160.34 292.261C160.092 291.224 159.87 290.181 159.676 289.133L159.036 289.251C158.84 288.193 158.671 287.13 158.53 286.061L159.175 285.976C159.036 284.92 158.924 283.859 158.84 282.793L158.191 282.844C158.106 281.775 158.05 280.7 158.021 279.621L158.672 279.604C158.658 279.071 158.651 278.536 158.651 278C158.651 277.464 158.658 276.929 158.672 276.396L158.021 276.379C158.05 275.3 158.106 274.225 158.191 273.156L158.84 273.207C158.924 272.141 159.036 271.08 159.175 270.024L158.53 269.939C158.671 268.87 158.84 267.807 159.036 266.749L159.676 266.867C159.87 265.819 160.092 264.776 160.34 263.739L159.707 263.588C159.957 262.541 160.234 261.5 160.538 260.466L161.162 260.649C161.462 259.628 161.788 258.613 162.139 257.604L161.524 257.39C161.877 256.374 162.256 255.364 162.66 254.362L163.264 254.605C163.661 253.619 164.083 252.639 164.529 251.666L163.937 251.395C164.384 250.42 164.855 249.452 165.349 248.491L165.928 248.788C166.414 247.842 166.924 246.901 167.457 245.968L166.891 245.645C167.422 244.715 167.975 243.792 168.55 242.876L169.101 243.222C169.666 242.322 170.252 241.43 170.859 240.544L170.322 240.176C170.93 239.29 171.558 238.411 172.206 237.54L172.728 237.928C173.361 237.078 174.014 236.234 174.686 235.398L174.178 234.99C174.849 234.155 175.539 233.327 176.248 232.507L176.74 232.933C177.437 232.126 178.152 231.327 178.885 230.536L178.407 230.094C179.133 229.31 179.876 228.534 180.636 227.765L181.099 228.223C181.848 227.465 182.615 226.714 183.397 225.971L182.949 225.499C183.725 224.763 184.517 224.034 185.324 223.313L185.758 223.798C186.551 223.089 187.36 222.388 188.184 221.694L187.765 221.196C188.586 220.505 189.422 219.821 190.273 219.145L190.678 219.655C191.509 218.994 192.355 218.341 193.214 217.695L192.822 217.175C193.682 216.529 194.554 215.891 195.44 215.261L195.817 215.792C196.683 215.176 197.562 214.567 198.453 213.967L198.089 213.427C198.979 212.827 199.881 212.235 200.796 211.651L201.146 212.2C202.044 211.626 202.954 211.06 203.875 210.502L203.538 209.945C204.454 209.39 205.382 208.842 206.32 208.302L206.645 208.867C207.571 208.334 208.508 207.81 209.455 207.293L209.143 206.721C210.083 206.209 211.033 205.704 211.993 205.206L212.292 205.784C213.242 205.292 214.203 204.808 215.172 204.332L214.885 203.747C215.845 203.276 216.815 202.812 217.793 202.356L218.068 202.946C219.039 202.493 220.02 202.048 221.009 201.611L220.746 201.016C221.724 200.584 222.71 200.159 223.705 199.743L223.957 200.343C224.946 199.929 225.944 199.523 226.95 199.124L226.71 198.519C227.703 198.125 228.705 197.739 229.714 197.361L229.943 197.971C230.948 197.594 231.96 197.226 232.98 196.865L232.763 196.251C233.771 195.894 234.786 195.546 235.808 195.205L236.014 195.822C237.032 195.482 238.057 195.15 239.089 194.826L238.894 194.205C239.914 193.885 240.941 193.572 241.975 193.267L242.159 193.891C243.188 193.588 244.224 193.292 245.266 193.003L245.093 192.376C246.124 192.091 247.161 191.813 248.205 191.544L248.368 192.174C249.406 191.905 250.451 191.645 251.502 191.392L251.349 190.759C252.39 190.508 253.437 190.265 254.489 190.03L254.631 190.665C255.678 190.431 256.73 190.205 257.787 189.986L257.656 189.349C258.705 189.132 259.76 188.923 260.82 188.721L260.942 189.361C261.994 189.161 263.052 188.968 264.115 188.784L264.004 188.142C265.061 187.959 266.123 187.783 267.19 187.615L267.291 188.258C268.349 188.091 269.411 187.932 270.478 187.78L270.387 187.136C271.451 186.985 272.519 186.842 273.592 186.706L273.673 187.352C274.735 187.218 275.8 187.092 276.87 186.973L276.798 186.326C277.868 186.208 278.941 186.097 280.019 185.994L280.081 186.642C281.145 186.54 282.213 186.446 283.284 186.36L283.232 185.711C284.306 185.624 285.384 185.545 286.466 185.474L286.508 186.124C287.574 186.054 288.643 185.992 289.715 185.937L289.682 185.287C290.757 185.232 291.836 185.185 292.918 185.146L292.941 185.797C294.01 185.758 295.082 185.727 296.157 185.703L296.142 185.053C297.218 185.029 298.296 185.014 299.376 185.006L299.381 185.657C299.92 185.653 300.46 185.651 301 185.651C301.54 185.651 302.08 185.653 302.619 185.657L302.623 185.006C303.704 185.014 304.782 185.029 305.857 185.053L305.843 185.703C306.918 185.727 307.99 185.758 309.059 185.797L309.082 185.146C310.164 185.185 311.243 185.232 312.318 185.287L312.285 185.937C313.357 185.992 314.426 186.054 315.492 186.124L315.534 185.474C316.616 185.545 317.694 185.624 318.768 185.711L318.716 186.36C319.787 186.446 320.855 186.54 321.919 186.642L321.981 185.994C323.059 186.097 324.132 186.208 325.202 186.326L325.13 186.973C326.2 187.092 327.265 187.218 328.327 187.352L328.408 186.707C329.481 186.842 330.549 186.985 331.613 187.136L331.522 187.78C332.589 187.932 333.651 188.091 334.709 188.258L334.81 187.615C335.877 187.783 336.939 187.959 337.996 188.142L337.885 188.784C338.948 188.968 340.005 189.161 341.058 189.361L341.18 188.721C342.24 188.923 343.295 189.132 344.344 189.349L344.213 189.986C345.27 190.205 346.322 190.431 347.369 190.665L347.511 190.03C348.563 190.265 349.61 190.508 350.651 190.759L350.498 191.392C351.549 191.645 352.594 191.905 353.632 192.174L353.795 191.544C354.839 191.813 355.876 192.091 356.907 192.376L356.734 193.003C357.776 193.292 358.812 193.588 359.841 193.891L360.025 193.267C361.059 193.572 362.086 193.885 363.106 194.205L362.911 194.826C363.943 195.15 364.968 195.482 365.986 195.822L366.192 195.205C367.214 195.546 368.229 195.895 369.237 196.251L369.02 196.865C370.04 197.226 371.052 197.594 372.057 197.971L372.286 197.361C373.295 197.74 374.297 198.126 375.29 198.519L375.05 199.124C376.056 199.523 377.054 199.929 378.043 200.343L378.295 199.743C379.29 200.159 380.276 200.584 381.254 201.016L380.991 201.611C381.98 202.048 382.961 202.493 383.932 202.946L384.207 202.356C385.185 202.812 386.155 203.276 387.115 203.747L386.828 204.332C387.797 204.808 388.758 205.292 389.708 205.785L390.007 205.207C390.967 205.704 391.917 206.209 392.857 206.721L392.545 207.293C393.492 207.81 394.429 208.334 395.355 208.867L395.68 208.302C396.618 208.842 397.546 209.39 398.462 209.945L398.125 210.502C399.046 211.06 399.956 211.626 400.854 212.2L401.204 211.651C402.119 212.235 403.021 212.827 403.911 213.427L403.547 213.967C404.438 214.567 405.317 215.176 406.183 215.792L406.56 215.261C407.446 215.891 408.318 216.529 409.178 217.175L408.786 217.695C409.645 218.341 410.491 218.994 411.322 219.655L411.727 219.145C412.578 219.821 413.414 220.505 414.235 221.197L413.816 221.694C414.64 222.388 415.449 223.089 416.242 223.798L416.676 223.313C417.483 224.034 418.275 224.763 419.051 225.499L418.603 225.971C419.385 226.714 420.152 227.465 420.901 228.223L421.364 227.765C422.124 228.534 422.867 229.31 423.593 230.094L423.115 230.536C423.848 231.327 424.563 232.126 425.26 232.933L425.752 232.507C426.461 233.327 427.151 234.155 427.822 234.99L427.314 235.398C427.986 236.234 428.639 237.078 429.272 237.928L429.794 237.54C430.442 238.411 431.07 239.29 431.678 240.176L431.141 240.544C431.748 241.43 432.334 242.322 432.898 243.222L433.45 242.876C434.025 243.792 434.578 244.715 435.108 245.645L434.543 245.968C435.076 246.901 435.586 247.842 436.072 248.788L436.651 248.491C437.145 249.452 437.616 250.42 438.063 251.395L437.471 251.666C437.917 252.639 438.339 253.619 438.736 254.605L439.34 254.362C439.744 255.364 440.123 256.374 440.476 257.39L439.861 257.604C440.212 258.613 440.538 259.628 440.837 260.649L441.462 260.466C441.766 261.5 442.043 262.541 442.293 263.588L441.66 263.739C441.908 264.776 442.13 265.819 442.324 266.867L442.964 266.749C443.16 267.807 443.329 268.87 443.47 269.939L442.825 270.024C442.964 271.08 443.076 272.141 443.16 273.207L443.809 273.156Z" stroke="url(#paint1_linear_558_17521)" stroke-width="1.30182" stroke-dasharray="3.25 3.25"/>
<path d="M443.808 211.665C443.893 212.732 443.95 213.805 443.979 214.882L443.328 214.899C443.342 215.432 443.349 215.965 443.349 216.5C443.349 217.035 443.342 217.569 443.328 218.101L443.979 218.118C443.95 219.195 443.893 220.268 443.808 221.335L443.159 221.284C443.074 222.347 442.962 223.406 442.821 224.46L443.467 224.545C443.325 225.612 443.154 226.673 442.957 227.729L442.317 227.61C442.121 228.655 441.899 229.696 441.649 230.731L442.282 230.883C442.03 231.927 441.751 232.966 441.445 233.998L440.821 233.813C440.52 234.831 440.192 235.844 439.839 236.85L440.453 237.065C440.098 238.078 439.716 239.085 439.31 240.085L438.707 239.839C438.308 240.822 437.884 241.799 437.435 242.769L438.026 243.042C437.577 244.013 437.104 244.978 436.607 245.936L436.029 245.636C435.54 246.579 435.028 247.516 434.493 248.445L435.057 248.77C434.524 249.697 433.968 250.616 433.391 251.529L432.841 251.18C432.274 252.076 431.686 252.965 431.076 253.846L431.612 254.216C431.002 255.098 430.372 255.973 429.721 256.84L429.201 256.449C428.565 257.296 427.91 258.136 427.236 258.968L427.742 259.378C427.069 260.208 426.377 261.031 425.666 261.847L425.176 261.419C424.477 262.222 423.759 263.017 423.024 263.804L423.5 264.248C422.773 265.027 422.028 265.799 421.267 266.562L420.806 266.103C420.055 266.856 419.287 267.602 418.503 268.341L418.949 268.814C418.172 269.547 417.378 270.271 416.569 270.988L416.137 270.501C415.343 271.205 414.533 271.902 413.708 272.591L414.125 273.09C413.302 273.777 412.465 274.457 411.613 275.129L411.21 274.618C410.377 275.274 409.532 275.922 408.672 276.563L409.061 277.085C408.201 277.726 407.328 278.359 406.442 278.985L406.067 278.453C405.2 279.065 404.32 279.669 403.428 280.266L403.79 280.807C402.9 281.402 401.998 281.989 401.083 282.569L400.735 282.019C399.836 282.589 398.925 283.151 398.004 283.705L398.339 284.263C397.423 284.814 396.495 285.357 395.557 285.893L395.234 285.327C394.308 285.856 393.371 286.377 392.423 286.89L392.733 287.463C391.794 287.971 390.844 288.472 389.885 288.965L389.588 288.386C388.637 288.875 387.677 289.355 386.707 289.828L386.992 290.413C386.033 290.881 385.064 291.341 384.087 291.793L383.813 291.202C382.842 291.652 381.862 292.093 380.873 292.527L381.134 293.123C380.158 293.551 379.172 293.972 378.178 294.385L377.929 293.784C376.94 294.195 375.942 294.598 374.937 294.993L375.175 295.599C374.183 295.989 373.182 296.372 372.174 296.747L371.947 296.137C370.943 296.51 369.932 296.876 368.912 297.234L369.128 297.848C368.121 298.201 367.108 298.547 366.087 298.885L365.882 298.267C364.865 298.604 363.841 298.934 362.809 299.255L363.003 299.876C361.985 300.194 360.959 300.504 359.927 300.806L359.744 300.181C358.716 300.483 357.681 300.776 356.64 301.062L356.813 301.69C355.783 301.972 354.747 302.247 353.706 302.515L353.544 301.884C352.506 302.15 351.463 302.409 350.414 302.66L350.565 303.293C349.526 303.541 348.481 303.782 347.43 304.015L347.289 303.38C346.244 303.612 345.193 303.836 344.137 304.052L344.268 304.69C343.22 304.905 342.167 305.112 341.109 305.312L340.988 304.672C339.937 304.871 338.881 305.061 337.82 305.244L337.93 305.886C336.875 306.068 335.815 306.242 334.75 306.409L334.649 305.766C333.593 305.931 332.532 306.089 331.467 306.239L331.558 306.883C330.496 307.033 329.43 307.175 328.359 307.309L328.278 306.663C327.218 306.796 326.154 306.921 325.087 307.039L325.158 307.686C324.09 307.803 323.018 307.913 321.943 308.015L321.881 307.367C320.819 307.468 319.753 307.561 318.684 307.647L318.736 308.296C317.663 308.381 316.587 308.459 315.508 308.53L315.465 307.88C314.402 307.95 313.335 308.011 312.265 308.065L312.297 308.716C311.224 308.77 310.147 308.816 309.067 308.855L309.044 308.205C307.977 308.243 306.907 308.274 305.835 308.297L305.849 308.948C304.776 308.971 303.699 308.986 302.621 308.994L302.616 308.343C302.078 308.347 301.539 308.349 301 308.349C300.461 308.349 299.922 308.347 299.384 308.343L299.379 308.994C298.301 308.986 297.224 308.971 296.151 308.948L296.165 308.297C295.093 308.274 294.023 308.243 292.956 308.205L292.933 308.855C291.853 308.816 290.776 308.77 289.703 308.716L289.735 308.065C288.665 308.011 287.598 307.95 286.535 307.88L286.492 308.53C285.413 308.459 284.337 308.381 283.264 308.296L283.316 307.647C282.247 307.561 281.181 307.468 280.119 307.367L280.057 308.015C278.981 307.913 277.91 307.803 276.842 307.686L276.913 307.039C275.845 306.921 274.782 306.796 273.722 306.663L273.641 307.309C272.57 307.175 271.504 307.033 270.442 306.883L270.533 306.239C269.468 306.089 268.407 305.931 267.351 305.766L267.25 306.409C266.185 306.242 265.125 306.068 264.07 305.886L264.18 305.244C263.119 305.061 262.063 304.871 261.011 304.672L260.891 305.312C259.833 305.112 258.78 304.905 257.732 304.69L257.862 304.052C256.807 303.836 255.756 303.612 254.711 303.38L254.57 304.015C253.519 303.782 252.474 303.541 251.435 303.293L251.586 302.66C250.537 302.409 249.494 302.15 248.456 301.884L248.294 302.514C247.253 302.247 246.217 301.972 245.187 301.69L245.36 301.062C244.319 300.776 243.284 300.483 242.255 300.181L242.073 300.806C241.041 300.504 240.015 300.194 238.997 299.876L239.191 299.255C238.159 298.933 237.135 298.604 236.118 298.267L235.913 298.885C234.892 298.547 233.878 298.201 232.872 297.848L233.088 297.234C232.068 296.876 231.057 296.51 230.053 296.137L229.826 296.747C228.818 296.372 227.817 295.989 226.825 295.599L227.063 294.993C226.058 294.598 225.06 294.194 224.071 293.784L223.822 294.385C222.828 293.972 221.842 293.551 220.866 293.123L221.127 292.527C220.138 292.093 219.158 291.652 218.187 291.202L217.913 291.793C216.936 291.341 215.967 290.881 215.008 290.413L215.293 289.828C214.323 289.355 213.363 288.874 212.412 288.386L212.115 288.965C211.156 288.472 210.206 287.971 209.267 287.463L209.577 286.89C208.629 286.377 207.692 285.856 206.766 285.327L206.443 285.893C205.505 285.357 204.577 284.814 203.661 284.263L203.996 283.705C203.074 283.151 202.164 282.589 201.265 282.019L200.917 282.569C200.002 281.989 199.1 281.402 198.21 280.807L198.572 280.266C197.68 279.669 196.8 279.065 195.933 278.453L195.558 278.985C194.672 278.359 193.799 277.726 192.939 277.085L193.328 276.563C192.468 275.922 191.622 275.274 190.79 274.618L190.387 275.129C189.535 274.457 188.698 273.777 187.875 273.09L188.292 272.59C187.467 271.902 186.657 271.205 185.863 270.501L185.431 270.988C184.622 270.271 183.828 269.547 183.051 268.814L183.497 268.34C182.713 267.602 181.945 266.856 181.194 266.103L180.733 266.562C179.972 265.799 179.227 265.027 178.5 264.248L178.976 263.804C178.241 263.016 177.523 262.221 176.824 261.419L176.333 261.847C175.623 261.031 174.931 260.208 174.258 259.378L174.764 258.968C174.09 258.135 173.435 257.296 172.799 256.449L172.279 256.84C171.628 255.973 170.998 255.098 170.388 254.216L170.924 253.846C170.314 252.964 169.726 252.076 169.159 251.18L168.609 251.529C168.032 250.616 167.476 249.696 166.943 248.77L167.507 248.445C166.972 247.516 166.46 246.579 165.971 245.636L165.393 245.936C164.896 244.978 164.423 244.013 163.974 243.042L164.565 242.769C164.116 241.799 163.692 240.822 163.293 239.839L162.69 240.084C162.284 239.085 161.902 238.078 161.547 237.065L162.161 236.85C161.808 235.844 161.48 234.831 161.179 233.813L160.555 233.998C160.249 232.966 159.97 231.927 159.718 230.883L160.351 230.731C160.101 229.696 159.879 228.655 159.683 227.61L159.043 227.729C158.846 226.673 158.675 225.612 158.533 224.545L159.179 224.459C159.038 223.406 158.926 222.347 158.841 221.283L158.192 221.335C158.107 220.268 158.05 219.195 158.021 218.118L158.672 218.101C158.658 217.568 158.651 217.035 158.651 216.5C158.651 215.965 158.658 215.431 158.672 214.899L158.021 214.882C158.05 213.805 158.107 212.732 158.192 211.665L158.841 211.716C158.926 210.653 159.038 209.594 159.179 208.54L158.533 208.455C158.675 207.388 158.846 206.327 159.043 205.271L159.683 205.39C159.879 204.345 160.101 203.304 160.351 202.269L159.718 202.117C159.97 201.073 160.249 200.034 160.555 199.002L161.179 199.187C161.48 198.169 161.808 197.156 162.161 196.15L161.547 195.935C161.902 194.922 162.284 193.915 162.69 192.915L163.293 193.161C163.692 192.178 164.116 191.201 164.565 190.231L163.974 189.958C164.423 188.987 164.896 188.022 165.393 187.064L165.971 187.364C166.46 186.421 166.972 185.484 167.507 184.555L166.943 184.23C167.476 183.303 168.032 182.384 168.609 181.471L169.159 181.82C169.726 180.924 170.314 180.035 170.924 179.154L170.388 178.784C170.998 177.902 171.628 177.027 172.279 176.16L172.799 176.551C173.435 175.704 174.09 174.864 174.764 174.032L174.258 173.622C174.931 172.792 175.623 171.969 176.334 171.153L176.824 171.581C177.523 170.778 178.241 169.983 178.976 169.196L178.5 168.752C179.227 167.973 179.972 167.201 180.733 166.438L181.194 166.897C181.945 166.144 182.713 165.398 183.497 164.659L183.051 164.186C183.828 163.453 184.622 162.729 185.431 162.012L185.863 162.499C186.658 161.795 187.467 161.098 188.292 160.409L187.875 159.91C188.698 159.223 189.535 158.543 190.387 157.871L190.79 158.382C191.623 157.726 192.468 157.078 193.328 156.437L192.939 155.915C193.799 155.274 194.672 154.641 195.558 154.015L195.933 154.547C196.8 153.935 197.68 153.331 198.572 152.734L198.21 152.193C199.1 151.598 200.002 151.011 200.917 150.431L201.265 150.981C202.164 150.411 203.075 149.849 203.997 149.295L203.661 148.737C204.577 148.186 205.505 147.643 206.443 147.107L206.766 147.673C207.692 147.144 208.629 146.623 209.577 146.11L209.267 145.537C210.206 145.029 211.156 144.528 212.115 144.035L212.412 144.614C213.363 144.125 214.323 143.645 215.293 143.172L215.008 142.587C215.967 142.119 216.936 141.659 217.913 141.207L218.187 141.798C219.158 141.348 220.138 140.907 221.127 140.473L220.866 139.877C221.842 139.449 222.828 139.028 223.822 138.615L224.071 139.216C225.06 138.805 226.058 138.402 227.063 138.007L226.825 137.401C227.817 137.011 228.818 136.628 229.826 136.253L230.053 136.863C231.057 136.49 232.068 136.124 233.088 135.766L232.872 135.152C233.879 134.799 234.892 134.453 235.913 134.115L236.118 134.733C237.135 134.396 238.159 134.067 239.191 133.745L238.997 133.124C240.015 132.806 241.041 132.496 242.073 132.194L242.256 132.819C243.284 132.517 244.319 132.224 245.36 131.938L245.187 131.31C246.217 131.028 247.253 130.753 248.294 130.485L248.456 131.116C249.494 130.85 250.537 130.591 251.587 130.34L251.435 129.707C252.474 129.459 253.519 129.218 254.57 128.985L254.711 129.62C255.756 129.388 256.807 129.164 257.863 128.948L257.732 128.31C258.78 128.095 259.833 127.888 260.891 127.688L261.012 128.328C262.063 128.129 263.119 127.939 264.18 127.756L264.07 127.114C265.125 126.932 266.185 126.758 267.25 126.591L267.351 127.234C268.407 127.069 269.468 126.911 270.533 126.761L270.442 126.117C271.504 125.967 272.57 125.825 273.641 125.691L273.722 126.337C274.782 126.204 275.846 126.079 276.913 125.961L276.842 125.314C277.91 125.197 278.982 125.087 280.057 124.985L280.119 125.633C281.181 125.532 282.247 125.439 283.316 125.353L283.264 124.704C284.337 124.619 285.413 124.541 286.492 124.47L286.535 125.12C287.598 125.05 288.665 124.989 289.735 124.935L289.703 124.284C290.776 124.23 291.853 124.184 292.933 124.145L292.956 124.795C294.023 124.757 295.093 124.726 296.165 124.703L296.151 124.052C297.224 124.029 298.301 124.014 299.379 124.006L299.384 124.657C299.922 124.653 300.461 124.651 301 124.651C301.539 124.651 302.078 124.653 302.616 124.657L302.621 124.006C303.699 124.014 304.776 124.029 305.849 124.052L305.835 124.703C306.907 124.726 307.977 124.757 309.044 124.795L309.067 124.145C310.147 124.184 311.224 124.23 312.297 124.284L312.265 124.935C313.335 124.989 314.402 125.05 315.465 125.12L315.508 124.47C316.587 124.541 317.663 124.619 318.736 124.704L318.684 125.353C319.753 125.439 320.819 125.532 321.881 125.633L321.943 124.985C323.019 125.087 324.09 125.197 325.158 125.314L325.087 125.961C326.155 126.079 327.218 126.204 328.278 126.337L328.359 125.691C329.43 125.825 330.496 125.967 331.558 126.117L331.467 126.761C332.532 126.911 333.593 127.069 334.649 127.234L334.75 126.591C335.815 126.758 336.875 126.932 337.93 127.114L337.82 127.756C338.881 127.939 339.937 128.129 340.989 128.328L341.109 127.688C342.167 127.888 343.22 128.095 344.268 128.31L344.138 128.948C345.193 129.164 346.244 129.388 347.289 129.62L347.43 128.985C348.481 129.218 349.526 129.459 350.565 129.707L350.414 130.34C351.463 130.591 352.506 130.85 353.544 131.116L353.706 130.486C354.747 130.753 355.783 131.028 356.813 131.31L356.64 131.938C357.682 132.224 358.716 132.517 359.745 132.819L359.927 132.194C360.959 132.496 361.985 132.806 363.003 133.124L362.81 133.745C363.841 134.067 364.865 134.396 365.882 134.733L366.087 134.115C367.108 134.453 368.122 134.799 369.128 135.152L368.912 135.766C369.932 136.124 370.943 136.49 371.947 136.863L372.174 136.253C373.182 136.628 374.183 137.011 375.175 137.401L374.937 138.007C375.942 138.402 376.94 138.806 377.929 139.216L378.178 138.615C379.172 139.028 380.158 139.449 381.134 139.877L380.873 140.473C381.862 140.907 382.842 141.348 383.813 141.798L384.087 141.207C385.064 141.659 386.033 142.119 386.992 142.587L386.707 143.172C387.677 143.645 388.637 144.126 389.588 144.614L389.885 144.035C390.844 144.528 391.794 145.029 392.733 145.537L392.423 146.11C393.371 146.623 394.308 147.144 395.234 147.673L395.557 147.107C396.495 147.643 397.423 148.186 398.339 148.737L398.004 149.295C398.926 149.849 399.836 150.411 400.735 150.981L401.083 150.431C401.998 151.011 402.9 151.598 403.79 152.193L403.428 152.734C404.32 153.331 405.2 153.935 406.067 154.547L406.442 154.015C407.328 154.641 408.201 155.274 409.061 155.915L408.672 156.437C409.532 157.078 410.378 157.726 411.21 158.382L411.613 157.871C412.465 158.543 413.302 159.223 414.125 159.91L413.708 160.41C414.533 161.098 415.343 161.795 416.137 162.499L416.569 162.012C417.378 162.729 418.172 163.453 418.949 164.186L418.503 164.66C419.287 165.398 420.055 166.144 420.806 166.897L421.267 166.438C422.028 167.201 422.773 167.973 423.5 168.752L423.024 169.196C423.759 169.984 424.477 170.779 425.176 171.581L425.666 171.153C426.377 171.969 427.069 172.792 427.742 173.622L427.236 174.032C427.91 174.865 428.565 175.704 429.201 176.551L429.721 176.16C430.372 177.027 431.002 177.902 431.612 178.784L431.077 179.154C431.686 180.036 432.274 180.924 432.841 181.82L433.391 181.471C433.968 182.384 434.524 183.304 435.057 184.23L434.493 184.555C435.028 185.484 435.54 186.421 436.029 187.364L436.607 187.064C437.104 188.022 437.577 188.987 438.026 189.958L437.435 190.231C437.884 191.201 438.308 192.178 438.707 193.161L439.31 192.916C439.716 193.915 440.098 194.922 440.453 195.935L439.839 196.15C440.192 197.156 440.52 198.169 440.821 199.187L441.445 199.002C441.751 200.034 442.03 201.073 442.282 202.117L441.649 202.269C441.899 203.304 442.121 204.345 442.317 205.39L442.957 205.271C443.155 206.327 443.325 207.388 443.467 208.455L442.821 208.541C442.962 209.594 443.074 210.653 443.159 211.717L443.808 211.665Z" stroke="url(#paint2_linear_558_17521)" stroke-width="1.30182" stroke-dasharray="3.25 3.25"/>
<path d="M443.809 88.1559C443.894 89.2255 443.95 90.2998 443.979 91.3787L443.328 91.3958C443.342 91.9294 443.349 92.4642 443.349 93C443.349 93.5359 443.342 94.0706 443.328 94.6042L443.979 94.6213C443.95 95.7002 443.894 96.7745 443.809 97.8441L443.16 97.7929C443.076 98.8587 442.964 99.9197 442.825 100.976L443.47 101.061C443.329 102.13 443.16 103.193 442.964 104.251L442.324 104.133C442.13 105.181 441.908 106.224 441.66 107.261L442.293 107.412C442.043 108.459 441.766 109.5 441.462 110.534L440.838 110.351C440.538 111.372 440.212 112.387 439.861 113.396L440.476 113.61C440.123 114.626 439.744 115.636 439.34 116.638L438.736 116.395C438.339 117.381 437.917 118.361 437.471 119.334L438.063 119.605C437.616 120.58 437.146 121.548 436.651 122.509L436.072 122.212C435.586 123.158 435.076 124.099 434.543 125.032L435.109 125.355C434.578 126.285 434.025 127.208 433.45 128.124L432.899 127.778C432.334 128.678 431.748 129.57 431.141 130.456L431.678 130.824C431.071 131.71 430.442 132.589 429.794 133.46L429.272 133.072C428.639 133.923 427.986 134.766 427.314 135.602L427.822 136.01C427.151 136.845 426.461 137.673 425.752 138.493L425.26 138.067C424.563 138.874 423.848 139.673 423.115 140.464L423.593 140.906C422.867 141.69 422.124 142.466 421.364 143.235L420.901 142.777C420.152 143.535 419.385 144.286 418.603 145.029L419.051 145.501C418.275 146.238 417.483 146.966 416.676 147.687L416.242 147.202C415.449 147.911 414.64 148.612 413.816 149.306L414.235 149.804C413.414 150.495 412.578 151.179 411.727 151.855L411.322 151.345C410.491 152.006 409.645 152.659 408.786 153.305L409.178 153.825C408.318 154.471 407.446 155.109 406.56 155.739L406.183 155.208C405.317 155.824 404.438 156.433 403.547 157.033L403.911 157.573C403.021 158.173 402.119 158.765 401.204 159.349L400.854 158.8C399.956 159.374 399.046 159.94 398.125 160.498L398.462 161.055C397.546 161.61 396.618 162.158 395.68 162.698L395.355 162.133C394.429 162.666 393.492 163.19 392.545 163.707L392.857 164.279C391.917 164.791 390.967 165.296 390.007 165.794L389.708 165.216C388.758 165.708 387.797 166.192 386.828 166.668L387.115 167.253C386.155 167.724 385.185 168.188 384.207 168.644L383.932 168.054C382.961 168.507 381.98 168.952 380.991 169.389L381.254 169.984C380.276 170.416 379.29 170.841 378.295 171.257L378.043 170.657C377.054 171.071 376.056 171.477 375.05 171.876L375.29 172.481C374.297 172.875 373.295 173.261 372.286 173.639L372.057 173.029C371.052 173.406 370.04 173.774 369.02 174.135L369.237 174.749C368.229 175.106 367.214 175.454 366.192 175.795L365.986 175.178C364.968 175.518 363.943 175.85 362.911 176.174L363.106 176.795C362.086 177.115 361.059 177.428 360.025 177.733L359.841 177.109C358.812 177.412 357.776 177.708 356.734 177.997L356.907 178.624C355.876 178.909 354.839 179.187 353.795 179.456L353.632 178.826C352.594 179.095 351.549 179.355 350.498 179.608L350.651 180.241C349.61 180.492 348.563 180.735 347.511 180.97L347.369 180.335C346.322 180.569 345.27 180.795 344.213 181.014L344.345 181.651C343.295 181.868 342.24 182.077 341.18 182.279L341.058 181.639C340.006 181.839 338.948 182.032 337.885 182.216L337.996 182.858C336.939 183.041 335.877 183.217 334.81 183.385L334.709 182.742C333.651 182.909 332.589 183.068 331.522 183.22L331.613 183.864C330.549 184.015 329.481 184.158 328.408 184.294L328.327 183.648C327.265 183.782 326.2 183.908 325.13 184.027L325.202 184.674C324.132 184.792 323.059 184.903 321.981 185.006L321.919 184.358C320.855 184.46 319.787 184.554 318.716 184.64L318.768 185.289C317.694 185.376 316.616 185.455 315.534 185.526L315.492 184.876C314.426 184.946 313.357 185.008 312.285 185.063L312.318 185.713C311.243 185.768 310.164 185.815 309.082 185.854L309.059 185.203C307.99 185.242 306.918 185.273 305.843 185.297L305.858 185.947C304.782 185.971 303.704 185.986 302.624 185.994L302.619 185.343C302.08 185.347 301.54 185.349 301 185.349C300.46 185.349 299.92 185.347 299.381 185.343L299.377 185.994C298.296 185.986 297.218 185.971 296.143 185.947L296.157 185.297C295.082 185.273 294.01 185.242 292.941 185.203L292.918 185.854C291.836 185.815 290.757 185.768 289.682 185.713L289.715 185.063C288.643 185.008 287.574 184.946 286.509 184.876L286.466 185.526C285.384 185.455 284.306 185.376 283.232 185.289L283.284 184.64C282.213 184.554 281.145 184.46 280.081 184.358L280.019 185.006C278.941 184.903 277.868 184.792 276.798 184.674L276.87 184.027C275.8 183.908 274.735 183.782 273.673 183.648L273.592 184.294C272.519 184.158 271.451 184.015 270.387 183.864L270.478 183.22C269.411 183.068 268.349 182.909 267.291 182.742L267.19 183.385C266.123 183.217 265.061 183.041 264.004 182.858L264.115 182.216C263.052 182.032 261.995 181.839 260.942 181.639L260.82 182.279C259.76 182.077 258.705 181.868 257.656 181.651L257.787 181.014C256.73 180.795 255.678 180.569 254.631 180.335L254.489 180.97C253.437 180.735 252.39 180.492 251.349 180.241L251.502 179.608C250.451 179.355 249.406 179.095 248.368 178.826L248.205 179.456C247.161 179.187 246.124 178.909 245.093 178.624L245.266 177.997C244.224 177.708 243.188 177.412 242.159 177.109L241.975 177.733C240.941 177.428 239.914 177.115 238.894 176.795L239.089 176.174C238.057 175.85 237.032 175.518 236.014 175.178L235.808 175.795C234.786 175.454 233.771 175.105 232.763 174.749L232.98 174.135C231.96 173.774 230.948 173.406 229.943 173.029L229.714 173.639C228.705 173.26 227.703 172.874 226.71 172.481L226.95 171.876C225.944 171.477 224.946 171.071 223.957 170.657L223.705 171.257C222.71 170.841 221.724 170.416 220.746 169.984L221.009 169.389C220.02 168.952 219.039 168.507 218.068 168.054L217.793 168.644C216.815 168.188 215.845 167.724 214.885 167.253L215.172 166.668C214.203 166.192 213.242 165.708 212.292 165.215L211.993 165.794C211.033 165.296 210.083 164.791 209.143 164.279L209.455 163.707C208.508 163.19 207.571 162.666 206.645 162.133L206.32 162.698C205.382 162.158 204.454 161.61 203.538 161.055L203.875 160.498C202.954 159.94 202.044 159.374 201.146 158.8L200.796 159.349C199.881 158.765 198.979 158.173 198.089 157.573L198.453 157.033C197.562 156.433 196.683 155.824 195.817 155.208L195.44 155.739C194.554 155.109 193.682 154.471 192.822 153.825L193.214 153.305C192.355 152.659 191.509 152.006 190.678 151.345L190.273 151.855C189.422 151.179 188.586 150.495 187.765 149.803L188.184 149.306C187.36 148.612 186.551 147.911 185.758 147.202L185.324 147.687C184.517 146.966 183.725 146.237 182.949 145.501L183.397 145.029C182.615 144.286 181.848 143.535 181.099 142.777L180.636 143.235C179.876 142.466 179.133 141.69 178.407 140.906L178.885 140.464C178.152 139.673 177.437 138.874 176.74 138.067L176.248 138.493C175.539 137.673 174.849 136.845 174.178 136.01L174.686 135.602C174.014 134.766 173.361 133.922 172.728 133.072L172.206 133.46C171.558 132.589 170.93 131.71 170.322 130.824L170.859 130.456C170.252 129.57 169.666 128.678 169.102 127.778L168.55 128.124C167.975 127.208 167.422 126.285 166.892 125.355L167.457 125.032C166.924 124.099 166.414 123.158 165.928 122.212L165.349 122.509C164.855 121.548 164.384 120.58 163.937 119.605L164.529 119.334C164.083 118.361 163.661 117.381 163.264 116.395L162.66 116.638C162.256 115.636 161.877 114.626 161.524 113.61L162.139 113.396C161.788 112.387 161.462 111.372 161.163 110.351L160.538 110.534C160.234 109.5 159.957 108.459 159.707 107.412L160.34 107.261C160.092 106.224 159.87 105.181 159.676 104.133L159.036 104.251C158.84 103.193 158.671 102.13 158.53 101.061L159.175 100.976C159.036 99.9197 158.924 98.8587 158.84 97.7929L158.191 97.8441C158.106 96.7745 158.05 95.7002 158.021 94.6213L158.672 94.6042C158.658 94.0706 158.651 93.5358 158.651 93C158.651 92.4641 158.658 91.9294 158.672 91.3958L158.021 91.3787C158.05 90.2999 158.106 89.2255 158.191 88.1559L158.84 88.2071C158.924 87.1413 159.036 86.0804 159.175 85.0244L158.53 84.9392C158.671 83.8705 158.84 82.8069 159.036 81.7488L159.676 81.8675C159.87 80.8193 160.092 79.7764 160.34 78.7391L159.707 78.5877C159.957 77.5411 160.234 76.5003 160.538 75.4656L161.162 75.6488C161.462 74.6278 161.788 73.6126 162.139 72.6036L161.524 72.3897C161.877 71.374 162.256 70.3645 162.66 69.3616L163.264 69.6049C163.661 68.619 164.083 67.6394 164.529 66.6664L163.937 66.3952C164.384 65.4203 164.855 64.4521 165.349 63.4909L165.928 63.7885C166.414 62.8415 166.924 61.9013 167.457 60.968L166.891 60.6454C167.422 59.7152 167.975 58.792 168.55 57.8761L169.101 58.2221C169.666 57.3225 170.252 56.4297 170.859 55.5442L170.322 55.1763C170.93 54.29 171.558 53.411 172.206 52.5397L172.728 52.9282C173.361 52.0775 174.014 51.2339 174.686 50.3977L174.178 49.99C174.849 49.1549 175.539 48.3272 176.248 47.5072L176.74 47.9328C177.437 47.1264 178.152 46.3274 178.885 45.536L178.407 45.0937C179.133 44.31 179.876 43.5337 180.636 42.7653L181.099 43.2229C181.848 42.4647 182.615 41.714 183.397 40.971L182.949 40.4989C183.725 39.7625 184.517 39.0337 185.324 38.3127L185.758 38.7982C186.551 38.0893 187.36 37.388 188.184 36.6944L187.765 36.1965C188.586 35.505 189.422 34.8212 190.273 34.1454L190.678 34.655C191.509 33.9941 192.355 33.3407 193.214 32.6951L192.822 32.1748C193.682 31.5291 194.554 30.8911 195.44 30.2611L195.817 30.7915C196.683 30.1756 197.562 29.5673 198.453 28.9667L198.089 28.4269C198.979 27.8273 199.881 27.2353 200.796 26.6514L201.146 27.1999C202.044 26.6261 202.954 26.06 203.875 25.5018L203.538 24.9451C204.454 24.3898 205.382 23.8422 206.32 23.3025L206.645 23.8667C207.571 23.3343 208.508 22.8095 209.455 22.2926L209.143 21.7212C210.083 21.2085 211.033 20.7036 211.993 20.2065L212.292 20.7845C213.242 20.2924 214.203 19.808 215.172 19.3315L214.885 18.7473C215.845 18.2757 216.815 17.8118 217.793 17.3557L218.068 17.9457C219.039 17.4931 220.02 17.0481 221.009 16.6111L220.746 16.0157C221.724 15.5837 222.71 15.1594 223.705 14.7429L223.957 15.3433C224.946 14.9292 225.944 14.5228 226.95 14.1243L226.71 13.5191C227.703 13.1255 228.705 12.7395 229.714 12.3613L229.943 12.9708C230.948 12.5943 231.96 12.2255 232.98 11.8646L232.763 11.251C233.771 10.8945 234.786 10.5456 235.808 10.2046L236.014 10.822C237.032 10.4823 238.057 10.1503 239.089 9.82614L238.894 9.20513C239.914 8.88476 240.941 8.57203 241.975 8.26706L242.159 8.89136C243.188 8.58762 244.224 8.2916 245.266 8.00342L245.093 7.37605C246.124 7.09091 247.161 6.81341 248.205 6.54368L248.368 7.17388C249.406 6.90537 250.451 6.64458 251.502 6.3916L251.349 5.75878C252.39 5.5081 253.437 5.26508 254.489 5.02982L254.631 5.66505C255.678 5.43108 256.73 5.20482 257.787 4.98635L257.656 4.34891C258.705 4.13202 259.76 3.92281 260.82 3.72137L260.942 4.36083C261.994 4.16077 263.052 3.96839 264.115 3.78379L264.004 3.14248C265.061 2.95883 266.123 2.78286 267.19 2.61468L267.291 3.25764C268.349 3.09089 269.411 2.9318 270.478 2.78048L270.387 2.13602C271.451 1.98511 272.519 1.84191 273.592 1.7065L273.673 2.35228C274.735 2.21829 275.8 2.09195 276.87 1.97336L276.798 1.32641C277.868 1.20784 278.941 1.09699 280.019 0.993955L280.081 1.64191C281.145 1.54017 282.213 1.44608 283.284 1.35972L283.232 0.710914C284.306 0.624321 285.384 0.545478 286.466 0.474474L286.508 1.12399C287.574 1.05405 288.643 0.991735 289.715 0.937136L289.682 0.287069C290.757 0.232308 291.836 0.185284 292.918 0.146082L292.941 0.796564C294.01 0.757843 295.082 0.726775 296.157 0.703444L296.142 0.0526871C297.218 0.0293505 298.296 0.013731 299.376 0.00591113L299.381 0.656804C299.92 0.652905 300.46 0.650951 301 0.650951C301.54 0.650951 302.08 0.652906 302.619 0.656804L302.623 0.00591146C303.704 0.0137316 304.782 0.0293513 305.857 0.0526881L305.843 0.703445C306.918 0.726777 307.99 0.757845 309.059 0.796566L309.082 0.146083C310.164 0.185286 311.243 0.232311 312.318 0.287072L312.285 0.937139C313.357 0.991739 314.426 1.05405 315.492 1.12399L315.534 0.474479C316.616 0.545483 317.694 0.624326 318.768 0.710919L318.716 1.35972C319.787 1.44609 320.855 1.54018 321.919 1.64192L321.981 0.993962C323.059 1.097 324.132 1.20785 325.202 1.32642L325.13 1.97337C326.2 2.09196 327.265 2.2183 328.327 2.35229L328.408 1.70651C329.481 1.84192 330.549 1.98512 331.613 2.13603L331.522 2.78049C332.589 2.93181 333.651 3.0909 334.709 3.25766L334.81 2.61469C335.877 2.78288 336.939 2.95884 337.996 3.1425L337.885 3.7838C338.948 3.9684 340.005 4.16078 341.058 4.36085L341.18 3.72138C342.24 3.92283 343.295 4.13204 344.344 4.34892L344.213 4.98637C345.27 5.20483 346.322 5.4311 347.369 5.66506L347.511 5.02984C348.563 5.2651 349.61 5.50812 350.651 5.7588L350.498 6.39162C351.549 6.6446 352.594 6.9054 353.632 7.1739L353.795 6.5437C354.839 6.81344 355.876 7.09093 356.907 7.37607L356.734 8.00344C357.776 8.29163 358.812 8.58764 359.841 8.89138L360.025 8.26708C361.059 8.57205 362.086 8.88478 363.106 9.20516L362.911 9.82616C363.943 10.1503 364.968 10.4823 365.986 10.822L366.192 10.2046C367.214 10.5457 368.229 10.8945 369.237 11.251L369.02 11.8647C370.04 12.2256 371.052 12.5943 372.057 12.9708L372.286 12.3613C373.295 12.7395 374.297 13.1255 375.29 13.5192L375.05 14.1243C376.056 14.5229 377.054 14.9293 378.043 15.3434L378.295 14.743C379.29 15.1594 380.276 15.5837 381.254 16.0157L380.991 16.6111C381.98 17.0482 382.961 17.4931 383.932 17.9457L384.207 17.3558C385.185 17.8118 386.155 18.2757 387.115 18.7473L386.828 19.3315C387.797 19.8081 388.758 20.2924 389.708 20.7845L390.007 20.2065C390.967 20.7036 391.917 21.2086 392.857 21.7212L392.545 22.2926C393.492 22.8096 394.429 23.3343 395.355 23.8668L395.68 23.3025C396.618 23.8422 397.546 24.3898 398.462 24.9451L398.125 25.5018C399.046 26.0601 399.956 26.6262 400.854 27.1999L401.204 26.6514C402.119 27.2354 403.021 27.8273 403.911 28.427L403.547 28.9668C404.438 29.5673 405.317 30.1756 406.183 30.7916L406.56 30.2611C407.446 30.8911 408.318 31.5291 409.178 32.1748L408.786 32.6952C409.645 33.3408 410.491 33.9941 411.322 34.655L411.727 34.1454C412.578 34.8213 413.414 35.505 414.235 36.1965L413.816 36.6945C414.64 37.388 415.449 38.0894 416.242 38.7982L416.676 38.3128C417.483 39.0337 418.275 39.7625 419.051 40.499L418.603 40.9711C419.385 41.7141 420.152 42.4648 420.901 43.2229L421.364 42.7653C422.124 43.5338 422.867 44.31 423.593 45.0938L423.115 45.536C423.848 46.3274 424.563 47.1264 425.26 47.9328L425.752 47.5072C426.461 48.3272 427.151 49.1549 427.822 49.99L427.314 50.3977C427.986 51.2339 428.639 52.0775 429.272 52.9283L429.794 52.5397C430.442 53.4111 431.07 54.29 431.678 55.1763L431.141 55.5443C431.748 56.4298 432.334 57.3225 432.898 58.2222L433.45 57.8761C434.025 58.792 434.578 59.7152 435.108 60.6454L434.543 60.968C435.076 61.9013 435.586 62.8415 436.072 63.7885L436.651 63.4909C437.145 64.4521 437.616 65.4203 438.063 66.3952L437.471 66.6664C437.917 67.6394 438.339 68.619 438.736 69.6049L439.34 69.3616C439.744 70.3645 440.123 71.374 440.476 72.3897L439.861 72.6036C440.212 73.6126 440.538 74.6278 440.837 75.6488L441.462 75.4656C441.766 76.5003 442.043 77.5411 442.293 78.5877L441.66 78.7391C441.908 79.7764 442.13 80.8193 442.324 81.8675L442.964 81.7488C443.16 82.8069 443.329 83.8705 443.47 84.9392L442.825 85.0244C442.964 86.0803 443.076 87.1413 443.16 88.2071L443.809 88.1559Z" stroke="url(#paint3_linear_558_17521)" stroke-width="1.30182" stroke-dasharray="3.25 3.25"/>
</g>
<defs>
<linearGradient id="paint0_linear_558_17521" x1="301.187" y1="137.859" x2="301.187" y2="360.937" gradientUnits="userSpaceOnUse">
<stop stop-opacity="0"/>
<stop offset="1"/>
</linearGradient>
<linearGradient id="paint1_linear_558_17521" x1="301.187" y1="260.859" x2="301.187" y2="483.937" gradientUnits="userSpaceOnUse">
<stop stop-opacity="0"/>
<stop offset="1"/>
</linearGradient>
<linearGradient id="paint2_linear_558_17521" x1="301.187" y1="199.451" x2="301.187" y2="421.33" gradientUnits="userSpaceOnUse">
<stop stop-opacity="0"/>
<stop offset="1"/>
</linearGradient>
<linearGradient id="paint3_linear_558_17521" x1="301.187" y1="75.8588" x2="301.187" y2="298.937" gradientUnits="userSpaceOnUse">
<stop stop-opacity="0"/>
<stop offset="1"/>
</linearGradient>
<clipPath id="clip0_558_17521">
<rect width="604" height="385" rx="8" fill="white"/>
</clipPath>
</defs>
</svg>
